ISO-10303-21;
HEADER;
/* Generated by software containing ST-Developer
 * from STEP Tools, Inc. (www.steptools.com) 
 */

FILE_DESCRIPTION(
/* description */ (''),
/* implementation_level */ '2;1');

FILE_NAME(
/* name */ 'Back Plate.step',
/* time_stamp */ '2026-08-29T00:43:20+03:00',
/* author */ (''),
/* organization */ (''),
/* preprocessor_version */ 'ST-DEVELOPER v20.1',
/* originating_system */ 'Autodesk Translation Framework v15.8.0.0',
/* authorisation */ '');

FILE_SCHEMA (('AUTOMOTIVE_DESIGN { 1 0 10303 214 3 1 1 }'));
ENDSEC;

DATA;
#10=MECHANICAL_DESIGN_GEOMETRIC_PRESENTATION_REPRESENTATION('',(#13),#1551);
#11=SHAPE_REPRESENTATION_RELATIONSHIP('SRR','None',#1558,#12);
#12=ADVANCED_BREP_SHAPE_REPRESENTATION('',(#14),#1550);
#13=STYLED_ITEM('',(#1567),#14);
#14=MANIFOLD_SOLID_BREP('Body1',#955);
#15=CYLINDRICAL_SURFACE('',#989,25.);
#16=CYLINDRICAL_SURFACE('',#997,25.);
#17=CYLINDRICAL_SURFACE('',#999,25.);
#18=CYLINDRICAL_SURFACE('',#1007,25.);
#19=CYLINDRICAL_SURFACE('',#1009,25.);
#20=CYLINDRICAL_SURFACE('',#1020,25.);
#21=CYLINDRICAL_SURFACE('',#1022,2.10000000000001);
#22=CYLINDRICAL_SURFACE('',#1024,2.10000000000001);
#23=CYLINDRICAL_SURFACE('',#1026,2.1);
#24=CYLINDRICAL_SURFACE('',#1028,2.1);
#25=CIRCLE('',#979,25.);
#26=CIRCLE('',#980,25.);
#27=CIRCLE('',#981,25.);
#28=CIRCLE('',#982,25.);
#29=CIRCLE('',#983,25.);
#30=CIRCLE('',#984,25.);
#31=CIRCLE('',#985,2.10000000000001);
#32=CIRCLE('',#986,2.10000000000001);
#33=CIRCLE('',#987,2.1);
#34=CIRCLE('',#988,2.1);
#35=CIRCLE('',#990,25.);
#36=CIRCLE('',#998,25.);
#37=CIRCLE('',#1000,25.);
#38=CIRCLE('',#1008,25.);
#39=CIRCLE('',#1010,25.);
#40=CIRCLE('',#1021,25.);
#41=CIRCLE('',#1023,2.10000000000001);
#42=CIRCLE('',#1025,2.10000000000001);
#43=CIRCLE('',#1027,2.1);
#44=CIRCLE('',#1029,2.1);
#45=FACE_BOUND('',#115,.T.);
#46=FACE_BOUND('',#116,.T.);
#47=FACE_BOUND('',#117,.T.);
#48=FACE_BOUND('',#118,.T.);
#49=FACE_BOUND('',#119,.T.);
#50=FACE_BOUND('',#120,.T.);
#51=FACE_BOUND('',#121,.T.);
#52=FACE_BOUND('',#158,.T.);
#53=FACE_BOUND('',#159,.T.);
#54=FACE_BOUND('',#160,.T.);
#55=FACE_BOUND('',#161,.T.);
#56=FACE_BOUND('',#162,.T.);
#57=FACE_BOUND('',#163,.T.);
#58=FACE_BOUND('',#164,.T.);
#59=FACE_OUTER_BOUND('',#105,.T.);
#60=FACE_OUTER_BOUND('',#106,.T.);
#61=FACE_OUTER_BOUND('',#107,.T.);
#62=FACE_OUTER_BOUND('',#108,.T.);
#63=FACE_OUTER_BOUND('',#109,.T.);
#64=FACE_OUTER_BOUND('',#110,.T.);
#65=FACE_OUTER_BOUND('',#111,.T.);
#66=FACE_OUTER_BOUND('',#112,.T.);
#67=FACE_OUTER_BOUND('',#113,.T.);
#68=FACE_OUTER_BOUND('',#114,.T.);
#69=FACE_OUTER_BOUND('',#122,.T.);
#70=FACE_OUTER_BOUND('',#123,.T.);
#71=FACE_OUTER_BOUND('',#124,.T.);
#72=FACE_OUTER_BOUND('',#125,.T.);
#73=FACE_OUTER_BOUND('',#126,.T.);
#74=FACE_OUTER_BOUND('',#127,.T.);
#75=FACE_OUTER_BOUND('',#128,.T.);
#76=FACE_OUTER_BOUND('',#129,.T.);
#77=FACE_OUTER_BOUND('',#130,.T.);
#78=FACE_OUTER_BOUND('',#131,.T.);
#79=FACE_OUTER_BOUND('',#132,.T.);
#80=FACE_OUTER_BOUND('',#133,.T.);
#81=FACE_OUTER_BOUND('',#134,.T.);
#82=FACE_OUTER_BOUND('',#135,.T.);
#83=FACE_OUTER_BOUND('',#136,.T.);
#84=FACE_OUTER_BOUND('',#137,.T.);
#85=FACE_OUTER_BOUND('',#138,.T.);
#86=FACE_OUTER_BOUND('',#139,.T.);
#87=FACE_OUTER_BOUND('',#140,.T.);
#88=FACE_OUTER_BOUND('',#141,.T.);
#89=FACE_OUTER_BOUND('',#142,.T.);
#90=FACE_OUTER_BOUND('',#143,.T.);
#91=FACE_OUTER_BOUND('',#144,.T.);
#92=FACE_OUTER_BOUND('',#145,.T.);
#93=FACE_OUTER_BOUND('',#146,.T.);
#94=FACE_OUTER_BOUND('',#147,.T.);
#95=FACE_OUTER_BOUND('',#148,.T.);
#96=FACE_OUTER_BOUND('',#149,.T.);
#97=FACE_OUTER_BOUND('',#150,.T.);
#98=FACE_OUTER_BOUND('',#151,.T.);
#99=FACE_OUTER_BOUND('',#152,.T.);
#100=FACE_OUTER_BOUND('',#153,.T.);
#101=FACE_OUTER_BOUND('',#154,.T.);
#102=FACE_OUTER_BOUND('',#155,.T.);
#103=FACE_OUTER_BOUND('',#156,.T.);
#104=FACE_OUTER_BOUND('',#157,.T.);
#105=EDGE_LOOP('',(#609,#610,#611,#612));
#106=EDGE_LOOP('',(#613,#614,#615,#616));
#107=EDGE_LOOP('',(#617,#618,#619,#620));
#108=EDGE_LOOP('',(#621,#622,#623,#624));
#109=EDGE_LOOP('',(#625,#626,#627,#628));
#110=EDGE_LOOP('',(#629,#630,#631,#632));
#111=EDGE_LOOP('',(#633,#634,#635,#636));
#112=EDGE_LOOP('',(#637,#638,#639,#640));
#113=EDGE_LOOP('',(#641,#642,#643,#644));
#114=EDGE_LOOP('',(#645,#646,#647,#648));
#115=EDGE_LOOP('',(#649,#650,#651,#652));
#116=EDGE_LOOP('',(#653,#654,#655,#656));
#117=EDGE_LOOP('',(#657,#658,#659,#660,#661,#662,#663,#664,#665,#666,#667,
#668,#669,#670,#671,#672,#673,#674,#675,#676,#677,#678,#679,#680,#681,#682,
#683,#684));
#118=EDGE_LOOP('',(#685));
#119=EDGE_LOOP('',(#686));
#120=EDGE_LOOP('',(#687));
#121=EDGE_LOOP('',(#688));
#122=EDGE_LOOP('',(#689,#690,#691,#692));
#123=EDGE_LOOP('',(#693,#694,#695,#696));
#124=EDGE_LOOP('',(#697,#698,#699,#700));
#125=EDGE_LOOP('',(#701,#702,#703,#704));
#126=EDGE_LOOP('',(#705,#706,#707,#708));
#127=EDGE_LOOP('',(#709,#710,#711,#712));
#128=EDGE_LOOP('',(#713,#714,#715,#716));
#129=EDGE_LOOP('',(#717,#718,#719,#720));
#130=EDGE_LOOP('',(#721,#722,#723,#724));
#131=EDGE_LOOP('',(#725,#726,#727,#728));
#132=EDGE_LOOP('',(#729,#730,#731,#732));
#133=EDGE_LOOP('',(#733,#734,#735,#736));
#134=EDGE_LOOP('',(#737,#738,#739,#740));
#135=EDGE_LOOP('',(#741,#742,#743,#744));
#136=EDGE_LOOP('',(#745,#746,#747,#748));
#137=EDGE_LOOP('',(#749,#750,#751,#752));
#138=EDGE_LOOP('',(#753,#754,#755,#756));
#139=EDGE_LOOP('',(#757,#758,#759,#760));
#140=EDGE_LOOP('',(#761,#762,#763,#764));
#141=EDGE_LOOP('',(#765,#766,#767,#768));
#142=EDGE_LOOP('',(#769,#770,#771,#772));
#143=EDGE_LOOP('',(#773,#774,#775,#776));
#144=EDGE_LOOP('',(#777,#778,#779,#780));
#145=EDGE_LOOP('',(#781,#782,#783,#784));
#146=EDGE_LOOP('',(#785,#786,#787,#788));
#147=EDGE_LOOP('',(#789,#790,#791,#792));
#148=EDGE_LOOP('',(#793,#794,#795,#796));
#149=EDGE_LOOP('',(#797,#798,#799,#800));
#150=EDGE_LOOP('',(#801,#802,#803,#804));
#151=EDGE_LOOP('',(#805,#806,#807,#808));
#152=EDGE_LOOP('',(#809,#810,#811,#812));
#153=EDGE_LOOP('',(#813,#814,#815,#816));
#154=EDGE_LOOP('',(#817,#818,#819,#820));
#155=EDGE_LOOP('',(#821,#822,#823,#824));
#156=EDGE_LOOP('',(#825,#826,#827,#828));
#157=EDGE_LOOP('',(#829,#830,#831,#832));
#158=EDGE_LOOP('',(#833,#834,#835,#836));
#159=EDGE_LOOP('',(#837,#838,#839,#840,#841,#842,#843,#844,#845,#846,#847,
#848,#849,#850,#851,#852,#853,#854,#855,#856,#857,#858,#859,#860,#861,#862,
#863,#864));
#160=EDGE_LOOP('',(#865,#866,#867,#868));
#161=EDGE_LOOP('',(#869));
#162=EDGE_LOOP('',(#870));
#163=EDGE_LOOP('',(#871));
#164=EDGE_LOOP('',(#872));
#165=LINE('',#1285,#277);
#166=LINE('',#1287,#278);
#167=LINE('',#1289,#279);
#168=LINE('',#1290,#280);
#169=LINE('',#1293,#281);
#170=LINE('',#1295,#282);
#171=LINE('',#1296,#283);
#172=LINE('',#1299,#284);
#173=LINE('',#1301,#285);
#174=LINE('',#1302,#286);
#175=LINE('',#1304,#287);
#176=LINE('',#1305,#288);
#177=LINE('',#1309,#289);
#178=LINE('',#1311,#290);
#179=LINE('',#1313,#291);
#180=LINE('',#1314,#292);
#181=LINE('',#1317,#293);
#182=LINE('',#1319,#294);
#183=LINE('',#1320,#295);
#184=LINE('',#1323,#296);
#185=LINE('',#1325,#297);
#186=LINE('',#1326,#298);
#187=LINE('',#1329,#299);
#188=LINE('',#1331,#300);
#189=LINE('',#1332,#301);
#190=LINE('',#1336,#302);
#191=LINE('',#1337,#303);
#192=LINE('',#1338,#304);
#193=LINE('',#1342,#305);
#194=LINE('',#1344,#306);
#195=LINE('',#1346,#307);
#196=LINE('',#1347,#308);
#197=LINE('',#1350,#309);
#198=LINE('',#1352,#310);
#199=LINE('',#1354,#311);
#200=LINE('',#1355,#312);
#201=LINE('',#1359,#313);
#202=LINE('',#1361,#314);
#203=LINE('',#1363,#315);
#204=LINE('',#1367,#316);
#205=LINE('',#1369,#317);
#206=LINE('',#1371,#318);
#207=LINE('',#1375,#319);
#208=LINE('',#1377,#320);
#209=LINE('',#1379,#321);
#210=LINE('',#1381,#322);
#211=LINE('',#1383,#323);
#212=LINE('',#1387,#324);
#213=LINE('',#1389,#325);
#214=LINE('',#1391,#326);
#215=LINE('',#1395,#327);
#216=LINE('',#1397,#328);
#217=LINE('',#1399,#329);
#218=LINE('',#1412,#330);
#219=LINE('',#1415,#331);
#220=LINE('',#1417,#332);
#221=LINE('',#1418,#333);
#222=LINE('',#1421,#334);
#223=LINE('',#1423,#335);
#224=LINE('',#1424,#336);
#225=LINE('',#1427,#337);
#226=LINE('',#1429,#338);
#227=LINE('',#1430,#339);
#228=LINE('',#1433,#340);
#229=LINE('',#1434,#341);
#230=LINE('',#1436,#342);
#231=LINE('',#1438,#343);
#232=LINE('',#1441,#344);
#233=LINE('',#1446,#345);
#234=LINE('',#1449,#346);
#235=LINE('',#1451,#347);
#236=LINE('',#1452,#348);
#237=LINE('',#1455,#349);
#238=LINE('',#1457,#350);
#239=LINE('',#1458,#351);
#240=LINE('',#1461,#352);
#241=LINE('',#1462,#353);
#242=LINE('',#1465,#354);
#243=LINE('',#1466,#355);
#244=LINE('',#1468,#356);
#245=LINE('',#1470,#357);
#246=LINE('',#1473,#358);
#247=LINE('',#1478,#359);
#248=LINE('',#1481,#360);
#249=LINE('',#1482,#361);
#250=LINE('',#1485,#362);
#251=LINE('',#1487,#363);
#252=LINE('',#1488,#364);
#253=LINE('',#1490,#365);
#254=LINE('',#1493,#366);
#255=LINE('',#1494,#367);
#256=LINE('',#1496,#368);
#257=LINE('',#1499,#369);
#258=LINE('',#1501,#370);
#259=LINE('',#1502,#371);
#260=LINE('',#1505,#372);
#261=LINE('',#1506,#373);
#262=LINE('',#1509,#374);
#263=LINE('',#1510,#375);
#264=LINE('',#1512,#376);
#265=LINE('',#1517,#377);
#266=LINE('',#1521,#378);
#267=LINE('',#1525,#379);
#268=LINE('',#1529,#380);
#269=LINE('',#1533,#381);
#270=LINE('',#1535,#382);
#271=LINE('',#1536,#383);
#272=LINE('',#1539,#384);
#273=LINE('',#1540,#385);
#274=LINE('',#1543,#386);
#275=LINE('',#1544,#387);
#276=LINE('',#1546,#388);
#277=VECTOR('',#1039,10.);
#278=VECTOR('',#1040,10.);
#279=VECTOR('',#1041,10.);
#280=VECTOR('',#1042,10.);
#281=VECTOR('',#1045,10.);
#282=VECTOR('',#1046,10.);
#283=VECTOR('',#1047,10.);
#284=VECTOR('',#1050,10.);
#285=VECTOR('',#1051,10.);
#286=VECTOR('',#1052,10.);
#287=VECTOR('',#1055,10.);
#288=VECTOR('',#1056,10.);
#289=VECTOR('',#1059,10.);
#290=VECTOR('',#1060,10.);
#291=VECTOR('',#1061,10.);
#292=VECTOR('',#1062,10.);
#293=VECTOR('',#1065,10.);
#294=VECTOR('',#1066,10.);
#295=VECTOR('',#1067,10.);
#296=VECTOR('',#1070,10.);
#297=VECTOR('',#1071,10.);
#298=VECTOR('',#1072,10.);
#299=VECTOR('',#1075,10.);
#300=VECTOR('',#1076,10.);
#301=VECTOR('',#1077,10.);
#302=VECTOR('',#1080,10.);
#303=VECTOR('',#1081,10.);
#304=VECTOR('',#1082,10.);
#305=VECTOR('',#1085,10.);
#306=VECTOR('',#1086,10.);
#307=VECTOR('',#1087,10.);
#308=VECTOR('',#1088,10.);
#309=VECTOR('',#1089,10.);
#310=VECTOR('',#1090,10.);
#311=VECTOR('',#1091,10.);
#312=VECTOR('',#1092,10.);
#313=VECTOR('',#1095,10.);
#314=VECTOR('',#1096,10.);
#315=VECTOR('',#1097,10.);
#316=VECTOR('',#1100,10.);
#317=VECTOR('',#1101,10.);
#318=VECTOR('',#1102,10.);
#319=VECTOR('',#1105,10.);
#320=VECTOR('',#1106,10.);
#321=VECTOR('',#1107,10.);
#322=VECTOR('',#1108,10.);
#323=VECTOR('',#1109,10.);
#324=VECTOR('',#1112,10.);
#325=VECTOR('',#1113,10.);
#326=VECTOR('',#1114,10.);
#327=VECTOR('',#1117,10.);
#328=VECTOR('',#1118,10.);
#329=VECTOR('',#1119,10.);
#330=VECTOR('',#1134,10.);
#331=VECTOR('',#1137,10.);
#332=VECTOR('',#1138,10.);
#333=VECTOR('',#1139,10.);
#334=VECTOR('',#1142,10.);
#335=VECTOR('',#1143,10.);
#336=VECTOR('',#1144,10.);
#337=VECTOR('',#1147,10.);
#338=VECTOR('',#1148,10.);
#339=VECTOR('',#1149,10.);
#340=VECTOR('',#1152,10.);
#341=VECTOR('',#1153,10.);
#342=VECTOR('',#1156,10.);
#343=VECTOR('',#1159,10.);
#344=VECTOR('',#1162,10.);
#345=VECTOR('',#1169,10.);
#346=VECTOR('',#1172,10.);
#347=VECTOR('',#1173,10.);
#348=VECTOR('',#1174,10.);
#349=VECTOR('',#1177,10.);
#350=VECTOR('',#1178,10.);
#351=VECTOR('',#1179,10.);
#352=VECTOR('',#1182,10.);
#353=VECTOR('',#1183,10.);
#354=VECTOR('',#1186,10.);
#355=VECTOR('',#1187,10.);
#356=VECTOR('',#1190,10.);
#357=VECTOR('',#1193,10.);
#358=VECTOR('',#1196,10.);
#359=VECTOR('',#1203,10.);
#360=VECTOR('',#1206,10.);
#361=VECTOR('',#1207,10.);
#362=VECTOR('',#1210,10.);
#363=VECTOR('',#1211,10.);
#364=VECTOR('',#1212,10.);
#365=VECTOR('',#1215,10.);
#366=VECTOR('',#1218,10.);
#367=VECTOR('',#1219,10.);
#368=VECTOR('',#1222,10.);
#369=VECTOR('',#1225,10.);
#370=VECTOR('',#1226,10.);
#371=VECTOR('',#1227,10.);
#372=VECTOR('',#1230,10.);
#373=VECTOR('',#1231,10.);
#374=VECTOR('',#1234,10.);
#375=VECTOR('',#1235,10.);
#376=VECTOR('',#1238,10.);
#377=VECTOR('',#1245,2.10000000000001);
#378=VECTOR('',#1250,2.10000000000001);
#379=VECTOR('',#1255,2.1);
#380=VECTOR('',#1260,2.1);
#381=VECTOR('',#1265,10.);
#382=VECTOR('',#1266,10.);
#383=VECTOR('',#1267,10.);
#384=VECTOR('',#1270,10.);
#385=VECTOR('',#1271,10.);
#386=VECTOR('',#1274,10.);
#387=VECTOR('',#1275,10.);
#388=VECTOR('',#1278,10.);
#389=VERTEX_POINT('',#1283);
#390=VERTEX_POINT('',#1284);
#391=VERTEX_POINT('',#1286);
#392=VERTEX_POINT('',#1288);
#393=VERTEX_POINT('',#1292);
#394=VERTEX_POINT('',#1294);
#395=VERTEX_POINT('',#1298);
#396=VERTEX_POINT('',#1300);
#397=VERTEX_POINT('',#1307);
#398=VERTEX_POINT('',#1308);
#399=VERTEX_POINT('',#1310);
#400=VERTEX_POINT('',#1312);
#401=VERTEX_POINT('',#1316);
#402=VERTEX_POINT('',#1318);
#403=VERTEX_POINT('',#1322);
#404=VERTEX_POINT('',#1324);
#405=VERTEX_POINT('',#1328);
#406=VERTEX_POINT('',#1330);
#407=VERTEX_POINT('',#1334);
#408=VERTEX_POINT('',#1335);
#409=VERTEX_POINT('',#1340);
#410=VERTEX_POINT('',#1341);
#411=VERTEX_POINT('',#1343);
#412=VERTEX_POINT('',#1345);
#413=VERTEX_POINT('',#1348);
#414=VERTEX_POINT('',#1349);
#415=VERTEX_POINT('',#1351);
#416=VERTEX_POINT('',#1353);
#417=VERTEX_POINT('',#1356);
#418=VERTEX_POINT('',#1358);
#419=VERTEX_POINT('',#1360);
#420=VERTEX_POINT('',#1362);
#421=VERTEX_POINT('',#1364);
#422=VERTEX_POINT('',#1366);
#423=VERTEX_POINT('',#1368);
#424=VERTEX_POINT('',#1370);
#425=VERTEX_POINT('',#1372);
#426=VERTEX_POINT('',#1374);
#427=VERTEX_POINT('',#1376);
#428=VERTEX_POINT('',#1378);
#429=VERTEX_POINT('',#1380);
#430=VERTEX_POINT('',#1382);
#431=VERTEX_POINT('',#1384);
#432=VERTEX_POINT('',#1386);
#433=VERTEX_POINT('',#1388);
#434=VERTEX_POINT('',#1390);
#435=VERTEX_POINT('',#1392);
#436=VERTEX_POINT('',#1394);
#437=VERTEX_POINT('',#1396);
#438=VERTEX_POINT('',#1398);
#439=VERTEX_POINT('',#1401);
#440=VERTEX_POINT('',#1403);
#441=VERTEX_POINT('',#1405);
#442=VERTEX_POINT('',#1407);
#443=VERTEX_POINT('',#1410);
#444=VERTEX_POINT('',#1414);
#445=VERTEX_POINT('',#1416);
#446=VERTEX_POINT('',#1420);
#447=VERTEX_POINT('',#1422);
#448=VERTEX_POINT('',#1426);
#449=VERTEX_POINT('',#1428);
#450=VERTEX_POINT('',#1432);
#451=VERTEX_POINT('',#1440);
#452=VERTEX_POINT('',#1444);
#453=VERTEX_POINT('',#1448);
#454=VERTEX_POINT('',#1450);
#455=VERTEX_POINT('',#1454);
#456=VERTEX_POINT('',#1456);
#457=VERTEX_POINT('',#1460);
#458=VERTEX_POINT('',#1464);
#459=VERTEX_POINT('',#1472);
#460=VERTEX_POINT('',#1476);
#461=VERTEX_POINT('',#1480);
#462=VERTEX_POINT('',#1484);
#463=VERTEX_POINT('',#1486);
#464=VERTEX_POINT('',#1492);
#465=VERTEX_POINT('',#1498);
#466=VERTEX_POINT('',#1500);
#467=VERTEX_POINT('',#1504);
#468=VERTEX_POINT('',#1508);
#469=VERTEX_POINT('',#1516);
#470=VERTEX_POINT('',#1520);
#471=VERTEX_POINT('',#1524);
#472=VERTEX_POINT('',#1528);
#473=VERTEX_POINT('',#1532);
#474=VERTEX_POINT('',#1534);
#475=VERTEX_POINT('',#1538);
#476=VERTEX_POINT('',#1542);
#477=EDGE_CURVE('',#389,#390,#165,.T.);
#478=EDGE_CURVE('',#389,#391,#166,.T.);
#479=EDGE_CURVE('',#392,#391,#167,.T.);
#480=EDGE_CURVE('',#390,#392,#168,.T.);
#481=EDGE_CURVE('',#393,#389,#169,.T.);
#482=EDGE_CURVE('',#393,#394,#170,.T.);
#483=EDGE_CURVE('',#391,#394,#171,.T.);
#484=EDGE_CURVE('',#395,#393,#172,.T.);
#485=EDGE_CURVE('',#395,#396,#173,.T.);
#486=EDGE_CURVE('',#394,#396,#174,.T.);
#487=EDGE_CURVE('',#390,#395,#175,.T.);
#488=EDGE_CURVE('',#396,#392,#176,.T.);
#489=EDGE_CURVE('',#397,#398,#177,.T.);
#490=EDGE_CURVE('',#399,#397,#178,.T.);
#491=EDGE_CURVE('',#399,#400,#179,.T.);
#492=EDGE_CURVE('',#398,#400,#180,.T.);
#493=EDGE_CURVE('',#401,#399,#181,.T.);
#494=EDGE_CURVE('',#401,#402,#182,.T.);
#495=EDGE_CURVE('',#400,#402,#183,.T.);
#496=EDGE_CURVE('',#403,#401,#184,.T.);
#497=EDGE_CURVE('',#403,#404,#185,.T.);
#498=EDGE_CURVE('',#402,#404,#186,.T.);
#499=EDGE_CURVE('',#405,#403,#187,.T.);
#500=EDGE_CURVE('',#405,#406,#188,.T.);
#501=EDGE_CURVE('',#404,#406,#189,.T.);
#502=EDGE_CURVE('',#407,#408,#190,.T.);
#503=EDGE_CURVE('',#406,#407,#191,.T.);
#504=EDGE_CURVE('',#408,#405,#192,.T.);
#505=EDGE_CURVE('',#409,#410,#193,.T.);
#506=EDGE_CURVE('',#411,#409,#194,.T.);
#507=EDGE_CURVE('',#412,#411,#195,.T.);
#508=EDGE_CURVE('',#410,#412,#196,.T.);
#509=EDGE_CURVE('',#413,#414,#197,.T.);
#510=EDGE_CURVE('',#414,#415,#198,.T.);
#511=EDGE_CURVE('',#415,#416,#199,.T.);
#512=EDGE_CURVE('',#416,#413,#200,.T.);
#513=EDGE_CURVE('',#397,#417,#25,.T.);
#514=EDGE_CURVE('',#417,#418,#201,.T.);
#515=EDGE_CURVE('',#418,#419,#202,.T.);
#516=EDGE_CURVE('',#419,#420,#203,.T.);
#517=EDGE_CURVE('',#420,#421,#26,.T.);
#518=EDGE_CURVE('',#421,#422,#204,.T.);
#519=EDGE_CURVE('',#422,#423,#205,.T.);
#520=EDGE_CURVE('',#423,#424,#206,.T.);
#521=EDGE_CURVE('',#424,#425,#27,.T.);
#522=EDGE_CURVE('',#425,#426,#207,.T.);
#523=EDGE_CURVE('',#426,#427,#208,.T.);
#524=EDGE_CURVE('',#427,#428,#209,.T.);
#525=EDGE_CURVE('',#428,#429,#210,.T.);
#526=EDGE_CURVE('',#429,#430,#211,.T.);
#527=EDGE_CURVE('',#430,#431,#28,.T.);
#528=EDGE_CURVE('',#431,#432,#212,.T.);
#529=EDGE_CURVE('',#432,#433,#213,.T.);
#530=EDGE_CURVE('',#433,#434,#214,.T.);
#531=EDGE_CURVE('',#434,#435,#29,.T.);
#532=EDGE_CURVE('',#435,#436,#215,.T.);
#533=EDGE_CURVE('',#436,#437,#216,.T.);
#534=EDGE_CURVE('',#437,#438,#217,.T.);
#535=EDGE_CURVE('',#438,#408,#30,.T.);
#536=EDGE_CURVE('',#439,#439,#31,.T.);
#537=EDGE_CURVE('',#440,#440,#32,.T.);
#538=EDGE_CURVE('',#441,#441,#33,.T.);
#539=EDGE_CURVE('',#442,#442,#34,.T.);
#540=EDGE_CURVE('',#443,#398,#35,.T.);
#541=EDGE_CURVE('',#443,#417,#218,.T.);
#542=EDGE_CURVE('',#444,#435,#219,.T.);
#543=EDGE_CURVE('',#445,#444,#220,.T.);
#544=EDGE_CURVE('',#436,#445,#221,.T.);
#545=EDGE_CURVE('',#420,#446,#222,.T.);
#546=EDGE_CURVE('',#419,#447,#223,.T.);
#547=EDGE_CURVE('',#446,#447,#224,.T.);
#548=EDGE_CURVE('',#438,#448,#225,.T.);
#549=EDGE_CURVE('',#437,#449,#226,.T.);
#550=EDGE_CURVE('',#448,#449,#227,.T.);
#551=EDGE_CURVE('',#418,#450,#228,.T.);
#552=EDGE_CURVE('',#447,#450,#229,.T.);
#553=EDGE_CURVE('',#450,#443,#230,.T.);
#554=EDGE_CURVE('',#449,#445,#231,.T.);
#555=EDGE_CURVE('',#434,#451,#232,.T.);
#556=EDGE_CURVE('',#444,#451,#36,.T.);
#557=EDGE_CURVE('',#452,#446,#37,.T.);
#558=EDGE_CURVE('',#452,#421,#233,.T.);
#559=EDGE_CURVE('',#453,#431,#234,.T.);
#560=EDGE_CURVE('',#454,#453,#235,.T.);
#561=EDGE_CURVE('',#432,#454,#236,.T.);
#562=EDGE_CURVE('',#424,#455,#237,.T.);
#563=EDGE_CURVE('',#423,#456,#238,.T.);
#564=EDGE_CURVE('',#455,#456,#239,.T.);
#565=EDGE_CURVE('',#433,#457,#240,.T.);
#566=EDGE_CURVE('',#451,#457,#241,.T.);
#567=EDGE_CURVE('',#422,#458,#242,.T.);
#568=EDGE_CURVE('',#456,#458,#243,.T.);
#569=EDGE_CURVE('',#458,#452,#244,.T.);
#570=EDGE_CURVE('',#457,#454,#245,.T.);
#571=EDGE_CURVE('',#430,#459,#246,.T.);
#572=EDGE_CURVE('',#453,#459,#38,.T.);
#573=EDGE_CURVE('',#460,#455,#39,.T.);
#574=EDGE_CURVE('',#460,#425,#247,.T.);
#575=EDGE_CURVE('',#429,#461,#248,.T.);
#576=EDGE_CURVE('',#459,#461,#249,.T.);
#577=EDGE_CURVE('',#426,#462,#250,.T.);
#578=EDGE_CURVE('',#463,#462,#251,.T.);
#579=EDGE_CURVE('',#427,#463,#252,.T.);
#580=EDGE_CURVE('',#462,#460,#253,.T.);
#581=EDGE_CURVE('',#428,#464,#254,.T.);
#582=EDGE_CURVE('',#461,#464,#255,.T.);
#583=EDGE_CURVE('',#464,#463,#256,.T.);
#584=EDGE_CURVE('',#413,#465,#257,.T.);
#585=EDGE_CURVE('',#466,#465,#258,.T.);
#586=EDGE_CURVE('',#414,#466,#259,.T.);
#587=EDGE_CURVE('',#416,#467,#260,.T.);
#588=EDGE_CURVE('',#465,#467,#261,.T.);
#589=EDGE_CURVE('',#415,#468,#262,.T.);
#590=EDGE_CURVE('',#467,#468,#263,.T.);
#591=EDGE_CURVE('',#468,#466,#264,.T.);
#592=EDGE_CURVE('',#407,#448,#40,.T.);
#593=EDGE_CURVE('',#439,#469,#265,.T.);
#594=EDGE_CURVE('',#469,#469,#41,.T.);
#595=EDGE_CURVE('',#440,#470,#266,.T.);
#596=EDGE_CURVE('',#470,#470,#42,.T.);
#597=EDGE_CURVE('',#441,#471,#267,.T.);
#598=EDGE_CURVE('',#471,#471,#43,.T.);
#599=EDGE_CURVE('',#442,#472,#268,.T.);
#600=EDGE_CURVE('',#472,#472,#44,.T.);
#601=EDGE_CURVE('',#409,#473,#269,.T.);
#602=EDGE_CURVE('',#474,#473,#270,.T.);
#603=EDGE_CURVE('',#411,#474,#271,.T.);
#604=EDGE_CURVE('',#475,#474,#272,.T.);
#605=EDGE_CURVE('',#412,#475,#273,.T.);
#606=EDGE_CURVE('',#476,#475,#274,.T.);
#607=EDGE_CURVE('',#410,#476,#275,.T.);
#608=EDGE_CURVE('',#473,#476,#276,.T.);
#609=ORIENTED_EDGE('',*,*,#477,.F.);
#610=ORIENTED_EDGE('',*,*,#478,.T.);
#611=ORIENTED_EDGE('',*,*,#479,.F.);
#612=ORIENTED_EDGE('',*,*,#480,.F.);
#613=ORIENTED_EDGE('',*,*,#481,.F.);
#614=ORIENTED_EDGE('',*,*,#482,.T.);
#615=ORIENTED_EDGE('',*,*,#483,.F.);
#616=ORIENTED_EDGE('',*,*,#478,.F.);
#617=ORIENTED_EDGE('',*,*,#484,.F.);
#618=ORIENTED_EDGE('',*,*,#485,.T.);
#619=ORIENTED_EDGE('',*,*,#486,.F.);
#620=ORIENTED_EDGE('',*,*,#482,.F.);
#621=ORIENTED_EDGE('',*,*,#487,.F.);
#622=ORIENTED_EDGE('',*,*,#480,.T.);
#623=ORIENTED_EDGE('',*,*,#488,.F.);
#624=ORIENTED_EDGE('',*,*,#485,.F.);
#625=ORIENTED_EDGE('',*,*,#489,.F.);
#626=ORIENTED_EDGE('',*,*,#490,.F.);
#627=ORIENTED_EDGE('',*,*,#491,.T.);
#628=ORIENTED_EDGE('',*,*,#492,.F.);
#629=ORIENTED_EDGE('',*,*,#493,.F.);
#630=ORIENTED_EDGE('',*,*,#494,.T.);
#631=ORIENTED_EDGE('',*,*,#495,.F.);
#632=ORIENTED_EDGE('',*,*,#491,.F.);
#633=ORIENTED_EDGE('',*,*,#496,.F.);
#634=ORIENTED_EDGE('',*,*,#497,.T.);
#635=ORIENTED_EDGE('',*,*,#498,.F.);
#636=ORIENTED_EDGE('',*,*,#494,.F.);
#637=ORIENTED_EDGE('',*,*,#499,.F.);
#638=ORIENTED_EDGE('',*,*,#500,.T.);
#639=ORIENTED_EDGE('',*,*,#501,.F.);
#640=ORIENTED_EDGE('',*,*,#497,.F.);
#641=ORIENTED_EDGE('',*,*,#502,.F.);
#642=ORIENTED_EDGE('',*,*,#503,.F.);
#643=ORIENTED_EDGE('',*,*,#500,.F.);
#644=ORIENTED_EDGE('',*,*,#504,.F.);
#645=ORIENTED_EDGE('',*,*,#505,.F.);
#646=ORIENTED_EDGE('',*,*,#506,.F.);
#647=ORIENTED_EDGE('',*,*,#507,.F.);
#648=ORIENTED_EDGE('',*,*,#508,.F.);
#649=ORIENTED_EDGE('',*,*,#477,.T.);
#650=ORIENTED_EDGE('',*,*,#487,.T.);
#651=ORIENTED_EDGE('',*,*,#484,.T.);
#652=ORIENTED_EDGE('',*,*,#481,.T.);
#653=ORIENTED_EDGE('',*,*,#509,.T.);
#654=ORIENTED_EDGE('',*,*,#510,.T.);
#655=ORIENTED_EDGE('',*,*,#511,.T.);
#656=ORIENTED_EDGE('',*,*,#512,.T.);
#657=ORIENTED_EDGE('',*,*,#504,.T.);
#658=ORIENTED_EDGE('',*,*,#499,.T.);
#659=ORIENTED_EDGE('',*,*,#496,.T.);
#660=ORIENTED_EDGE('',*,*,#493,.T.);
#661=ORIENTED_EDGE('',*,*,#490,.T.);
#662=ORIENTED_EDGE('',*,*,#513,.T.);
#663=ORIENTED_EDGE('',*,*,#514,.T.);
#664=ORIENTED_EDGE('',*,*,#515,.T.);
#665=ORIENTED_EDGE('',*,*,#516,.T.);
#666=ORIENTED_EDGE('',*,*,#517,.T.);
#667=ORIENTED_EDGE('',*,*,#518,.T.);
#668=ORIENTED_EDGE('',*,*,#519,.T.);
#669=ORIENTED_EDGE('',*,*,#520,.T.);
#670=ORIENTED_EDGE('',*,*,#521,.T.);
#671=ORIENTED_EDGE('',*,*,#522,.T.);
#672=ORIENTED_EDGE('',*,*,#523,.T.);
#673=ORIENTED_EDGE('',*,*,#524,.T.);
#674=ORIENTED_EDGE('',*,*,#525,.T.);
#675=ORIENTED_EDGE('',*,*,#526,.T.);
#676=ORIENTED_EDGE('',*,*,#527,.T.);
#677=ORIENTED_EDGE('',*,*,#528,.T.);
#678=ORIENTED_EDGE('',*,*,#529,.T.);
#679=ORIENTED_EDGE('',*,*,#530,.T.);
#680=ORIENTED_EDGE('',*,*,#531,.T.);
#681=ORIENTED_EDGE('',*,*,#532,.T.);
#682=ORIENTED_EDGE('',*,*,#533,.T.);
#683=ORIENTED_EDGE('',*,*,#534,.T.);
#684=ORIENTED_EDGE('',*,*,#535,.T.);
#685=ORIENTED_EDGE('',*,*,#536,.T.);
#686=ORIENTED_EDGE('',*,*,#537,.T.);
#687=ORIENTED_EDGE('',*,*,#538,.T.);
#688=ORIENTED_EDGE('',*,*,#539,.T.);
#689=ORIENTED_EDGE('',*,*,#489,.T.);
#690=ORIENTED_EDGE('',*,*,#540,.F.);
#691=ORIENTED_EDGE('',*,*,#541,.T.);
#692=ORIENTED_EDGE('',*,*,#513,.F.);
#693=ORIENTED_EDGE('',*,*,#542,.F.);
#694=ORIENTED_EDGE('',*,*,#543,.F.);
#695=ORIENTED_EDGE('',*,*,#544,.F.);
#696=ORIENTED_EDGE('',*,*,#532,.F.);
#697=ORIENTED_EDGE('',*,*,#545,.F.);
#698=ORIENTED_EDGE('',*,*,#516,.F.);
#699=ORIENTED_EDGE('',*,*,#546,.T.);
#700=ORIENTED_EDGE('',*,*,#547,.F.);
#701=ORIENTED_EDGE('',*,*,#548,.F.);
#702=ORIENTED_EDGE('',*,*,#534,.F.);
#703=ORIENTED_EDGE('',*,*,#549,.T.);
#704=ORIENTED_EDGE('',*,*,#550,.F.);
#705=ORIENTED_EDGE('',*,*,#515,.F.);
#706=ORIENTED_EDGE('',*,*,#551,.T.);
#707=ORIENTED_EDGE('',*,*,#552,.F.);
#708=ORIENTED_EDGE('',*,*,#546,.F.);
#709=ORIENTED_EDGE('',*,*,#541,.F.);
#710=ORIENTED_EDGE('',*,*,#553,.F.);
#711=ORIENTED_EDGE('',*,*,#551,.F.);
#712=ORIENTED_EDGE('',*,*,#514,.F.);
#713=ORIENTED_EDGE('',*,*,#533,.F.);
#714=ORIENTED_EDGE('',*,*,#544,.T.);
#715=ORIENTED_EDGE('',*,*,#554,.F.);
#716=ORIENTED_EDGE('',*,*,#549,.F.);
#717=ORIENTED_EDGE('',*,*,#542,.T.);
#718=ORIENTED_EDGE('',*,*,#531,.F.);
#719=ORIENTED_EDGE('',*,*,#555,.T.);
#720=ORIENTED_EDGE('',*,*,#556,.F.);
#721=ORIENTED_EDGE('',*,*,#545,.T.);
#722=ORIENTED_EDGE('',*,*,#557,.F.);
#723=ORIENTED_EDGE('',*,*,#558,.T.);
#724=ORIENTED_EDGE('',*,*,#517,.F.);
#725=ORIENTED_EDGE('',*,*,#559,.F.);
#726=ORIENTED_EDGE('',*,*,#560,.F.);
#727=ORIENTED_EDGE('',*,*,#561,.F.);
#728=ORIENTED_EDGE('',*,*,#528,.F.);
#729=ORIENTED_EDGE('',*,*,#562,.F.);
#730=ORIENTED_EDGE('',*,*,#520,.F.);
#731=ORIENTED_EDGE('',*,*,#563,.T.);
#732=ORIENTED_EDGE('',*,*,#564,.F.);
#733=ORIENTED_EDGE('',*,*,#555,.F.);
#734=ORIENTED_EDGE('',*,*,#530,.F.);
#735=ORIENTED_EDGE('',*,*,#565,.T.);
#736=ORIENTED_EDGE('',*,*,#566,.F.);
#737=ORIENTED_EDGE('',*,*,#519,.F.);
#738=ORIENTED_EDGE('',*,*,#567,.T.);
#739=ORIENTED_EDGE('',*,*,#568,.F.);
#740=ORIENTED_EDGE('',*,*,#563,.F.);
#741=ORIENTED_EDGE('',*,*,#558,.F.);
#742=ORIENTED_EDGE('',*,*,#569,.F.);
#743=ORIENTED_EDGE('',*,*,#567,.F.);
#744=ORIENTED_EDGE('',*,*,#518,.F.);
#745=ORIENTED_EDGE('',*,*,#529,.F.);
#746=ORIENTED_EDGE('',*,*,#561,.T.);
#747=ORIENTED_EDGE('',*,*,#570,.F.);
#748=ORIENTED_EDGE('',*,*,#565,.F.);
#749=ORIENTED_EDGE('',*,*,#559,.T.);
#750=ORIENTED_EDGE('',*,*,#527,.F.);
#751=ORIENTED_EDGE('',*,*,#571,.T.);
#752=ORIENTED_EDGE('',*,*,#572,.F.);
#753=ORIENTED_EDGE('',*,*,#562,.T.);
#754=ORIENTED_EDGE('',*,*,#573,.F.);
#755=ORIENTED_EDGE('',*,*,#574,.T.);
#756=ORIENTED_EDGE('',*,*,#521,.F.);
#757=ORIENTED_EDGE('',*,*,#571,.F.);
#758=ORIENTED_EDGE('',*,*,#526,.F.);
#759=ORIENTED_EDGE('',*,*,#575,.T.);
#760=ORIENTED_EDGE('',*,*,#576,.F.);
#761=ORIENTED_EDGE('',*,*,#523,.F.);
#762=ORIENTED_EDGE('',*,*,#577,.T.);
#763=ORIENTED_EDGE('',*,*,#578,.F.);
#764=ORIENTED_EDGE('',*,*,#579,.F.);
#765=ORIENTED_EDGE('',*,*,#574,.F.);
#766=ORIENTED_EDGE('',*,*,#580,.F.);
#767=ORIENTED_EDGE('',*,*,#577,.F.);
#768=ORIENTED_EDGE('',*,*,#522,.F.);
#769=ORIENTED_EDGE('',*,*,#525,.F.);
#770=ORIENTED_EDGE('',*,*,#581,.T.);
#771=ORIENTED_EDGE('',*,*,#582,.F.);
#772=ORIENTED_EDGE('',*,*,#575,.F.);
#773=ORIENTED_EDGE('',*,*,#524,.F.);
#774=ORIENTED_EDGE('',*,*,#579,.T.);
#775=ORIENTED_EDGE('',*,*,#583,.F.);
#776=ORIENTED_EDGE('',*,*,#581,.F.);
#777=ORIENTED_EDGE('',*,*,#509,.F.);
#778=ORIENTED_EDGE('',*,*,#584,.T.);
#779=ORIENTED_EDGE('',*,*,#585,.F.);
#780=ORIENTED_EDGE('',*,*,#586,.F.);
#781=ORIENTED_EDGE('',*,*,#512,.F.);
#782=ORIENTED_EDGE('',*,*,#587,.T.);
#783=ORIENTED_EDGE('',*,*,#588,.F.);
#784=ORIENTED_EDGE('',*,*,#584,.F.);
#785=ORIENTED_EDGE('',*,*,#511,.F.);
#786=ORIENTED_EDGE('',*,*,#589,.T.);
#787=ORIENTED_EDGE('',*,*,#590,.F.);
#788=ORIENTED_EDGE('',*,*,#587,.F.);
#789=ORIENTED_EDGE('',*,*,#510,.F.);
#790=ORIENTED_EDGE('',*,*,#586,.T.);
#791=ORIENTED_EDGE('',*,*,#591,.F.);
#792=ORIENTED_EDGE('',*,*,#589,.F.);
#793=ORIENTED_EDGE('',*,*,#502,.T.);
#794=ORIENTED_EDGE('',*,*,#535,.F.);
#795=ORIENTED_EDGE('',*,*,#548,.T.);
#796=ORIENTED_EDGE('',*,*,#592,.F.);
#797=ORIENTED_EDGE('',*,*,#536,.F.);
#798=ORIENTED_EDGE('',*,*,#593,.T.);
#799=ORIENTED_EDGE('',*,*,#594,.F.);
#800=ORIENTED_EDGE('',*,*,#593,.F.);
#801=ORIENTED_EDGE('',*,*,#537,.F.);
#802=ORIENTED_EDGE('',*,*,#595,.T.);
#803=ORIENTED_EDGE('',*,*,#596,.F.);
#804=ORIENTED_EDGE('',*,*,#595,.F.);
#805=ORIENTED_EDGE('',*,*,#538,.F.);
#806=ORIENTED_EDGE('',*,*,#597,.T.);
#807=ORIENTED_EDGE('',*,*,#598,.F.);
#808=ORIENTED_EDGE('',*,*,#597,.F.);
#809=ORIENTED_EDGE('',*,*,#539,.F.);
#810=ORIENTED_EDGE('',*,*,#599,.T.);
#811=ORIENTED_EDGE('',*,*,#600,.F.);
#812=ORIENTED_EDGE('',*,*,#599,.F.);
#813=ORIENTED_EDGE('',*,*,#506,.T.);
#814=ORIENTED_EDGE('',*,*,#601,.T.);
#815=ORIENTED_EDGE('',*,*,#602,.F.);
#816=ORIENTED_EDGE('',*,*,#603,.F.);
#817=ORIENTED_EDGE('',*,*,#507,.T.);
#818=ORIENTED_EDGE('',*,*,#603,.T.);
#819=ORIENTED_EDGE('',*,*,#604,.F.);
#820=ORIENTED_EDGE('',*,*,#605,.F.);
#821=ORIENTED_EDGE('',*,*,#508,.T.);
#822=ORIENTED_EDGE('',*,*,#605,.T.);
#823=ORIENTED_EDGE('',*,*,#606,.F.);
#824=ORIENTED_EDGE('',*,*,#607,.F.);
#825=ORIENTED_EDGE('',*,*,#505,.T.);
#826=ORIENTED_EDGE('',*,*,#607,.T.);
#827=ORIENTED_EDGE('',*,*,#608,.F.);
#828=ORIENTED_EDGE('',*,*,#601,.F.);
#829=ORIENTED_EDGE('',*,*,#608,.T.);
#830=ORIENTED_EDGE('',*,*,#606,.T.);
#831=ORIENTED_EDGE('',*,*,#604,.T.);
#832=ORIENTED_EDGE('',*,*,#602,.T.);
#833=ORIENTED_EDGE('',*,*,#479,.T.);
#834=ORIENTED_EDGE('',*,*,#483,.T.);
#835=ORIENTED_EDGE('',*,*,#486,.T.);
#836=ORIENTED_EDGE('',*,*,#488,.T.);
#837=ORIENTED_EDGE('',*,*,#503,.T.);
#838=ORIENTED_EDGE('',*,*,#592,.T.);
#839=ORIENTED_EDGE('',*,*,#550,.T.);
#840=ORIENTED_EDGE('',*,*,#554,.T.);
#841=ORIENTED_EDGE('',*,*,#543,.T.);
#842=ORIENTED_EDGE('',*,*,#556,.T.);
#843=ORIENTED_EDGE('',*,*,#566,.T.);
#844=ORIENTED_EDGE('',*,*,#570,.T.);
#845=ORIENTED_EDGE('',*,*,#560,.T.);
#846=ORIENTED_EDGE('',*,*,#572,.T.);
#847=ORIENTED_EDGE('',*,*,#576,.T.);
#848=ORIENTED_EDGE('',*,*,#582,.T.);
#849=ORIENTED_EDGE('',*,*,#583,.T.);
#850=ORIENTED_EDGE('',*,*,#578,.T.);
#851=ORIENTED_EDGE('',*,*,#580,.T.);
#852=ORIENTED_EDGE('',*,*,#573,.T.);
#853=ORIENTED_EDGE('',*,*,#564,.T.);
#854=ORIENTED_EDGE('',*,*,#568,.T.);
#855=ORIENTED_EDGE('',*,*,#569,.T.);
#856=ORIENTED_EDGE('',*,*,#557,.T.);
#857=ORIENTED_EDGE('',*,*,#547,.T.);
#858=ORIENTED_EDGE('',*,*,#552,.T.);
#859=ORIENTED_EDGE('',*,*,#553,.T.);
#860=ORIENTED_EDGE('',*,*,#540,.T.);
#861=ORIENTED_EDGE('',*,*,#492,.T.);
#862=ORIENTED_EDGE('',*,*,#495,.T.);
#863=ORIENTED_EDGE('',*,*,#498,.T.);
#864=ORIENTED_EDGE('',*,*,#501,.T.);
#865=ORIENTED_EDGE('',*,*,#585,.T.);
#866=ORIENTED_EDGE('',*,*,#588,.T.);
#867=ORIENTED_EDGE('',*,*,#590,.T.);
#868=ORIENTED_EDGE('',*,*,#591,.T.);
#869=ORIENTED_EDGE('',*,*,#594,.T.);
#870=ORIENTED_EDGE('',*,*,#596,.T.);
#871=ORIENTED_EDGE('',*,*,#598,.T.);
#872=ORIENTED_EDGE('',*,*,#600,.T.);
#873=PLANE('',#969);
#874=PLANE('',#970);
#875=PLANE('',#971);
#876=PLANE('',#972);
#877=PLANE('',#973);
#878=PLANE('',#974);
#879=PLANE('',#975);
#880=PLANE('',#976);
#881=PLANE('',#977);
#882=PLANE('',#978);
#883=PLANE('',#991);
#884=PLANE('',#992);
#885=PLANE('',#993);
#886=PLANE('',#994);
#887=PLANE('',#995);
#888=PLANE('',#996);
#889=PLANE('',#1001);
#890=PLANE('',#1002);
#891=PLANE('',#1003);
#892=PLANE('',#1004);
#893=PLANE('',#1005);
#894=PLANE('',#1006);
#895=PLANE('',#1011);
#896=PLANE('',#1012);
#897=PLANE('',#1013);
#898=PLANE('',#1014);
#899=PLANE('',#1015);
#900=PLANE('',#1016);
#901=PLANE('',#1017);
#902=PLANE('',#1018);
#903=PLANE('',#1019);
#904=PLANE('',#1030);
#905=PLANE('',#1031);
#906=PLANE('',#1032);
#907=PLANE('',#1033);
#908=PLANE('',#1034);
#909=ADVANCED_FACE('',(#59),#873,.F.);
#910=ADVANCED_FACE('',(#60),#874,.F.);
#911=ADVANCED_FACE('',(#61),#875,.F.);
#912=ADVANCED_FACE('',(#62),#876,.F.);
#913=ADVANCED_FACE('',(#63),#877,.F.);
#914=ADVANCED_FACE('',(#64),#878,.F.);
#915=ADVANCED_FACE('',(#65),#879,.F.);
#916=ADVANCED_FACE('',(#66),#880,.F.);
#917=ADVANCED_FACE('',(#67),#881,.F.);
#918=ADVANCED_FACE('',(#68,#45,#46,#47,#48,#49,#50,#51),#882,.F.);
#919=ADVANCED_FACE('',(#69),#15,.F.);
#920=ADVANCED_FACE('',(#70),#883,.F.);
#921=ADVANCED_FACE('',(#71),#884,.F.);
#922=ADVANCED_FACE('',(#72),#885,.F.);
#923=ADVANCED_FACE('',(#73),#886,.F.);
#924=ADVANCED_FACE('',(#74),#887,.F.);
#925=ADVANCED_FACE('',(#75),#888,.F.);
#926=ADVANCED_FACE('',(#76),#16,.F.);
#927=ADVANCED_FACE('',(#77),#17,.F.);
#928=ADVANCED_FACE('',(#78),#889,.F.);
#929=ADVANCED_FACE('',(#79),#890,.F.);
#930=ADVANCED_FACE('',(#80),#891,.F.);
#931=ADVANCED_FACE('',(#81),#892,.F.);
#932=ADVANCED_FACE('',(#82),#893,.F.);
#933=ADVANCED_FACE('',(#83),#894,.F.);
#934=ADVANCED_FACE('',(#84),#18,.F.);
#935=ADVANCED_FACE('',(#85),#19,.F.);
#936=ADVANCED_FACE('',(#86),#895,.F.);
#937=ADVANCED_FACE('',(#87),#896,.F.);
#938=ADVANCED_FACE('',(#88),#897,.F.);
#939=ADVANCED_FACE('',(#89),#898,.F.);
#940=ADVANCED_FACE('',(#90),#899,.F.);
#941=ADVANCED_FACE('',(#91),#900,.F.);
#942=ADVANCED_FACE('',(#92),#901,.F.);
#943=ADVANCED_FACE('',(#93),#902,.F.);
#944=ADVANCED_FACE('',(#94),#903,.F.);
#945=ADVANCED_FACE('',(#95),#20,.F.);
#946=ADVANCED_FACE('',(#96),#21,.F.);
#947=ADVANCED_FACE('',(#97),#22,.F.);
#948=ADVANCED_FACE('',(#98),#23,.F.);
#949=ADVANCED_FACE('',(#99),#24,.F.);
#950=ADVANCED_FACE('',(#100),#904,.T.);
#951=ADVANCED_FACE('',(#101),#905,.T.);
#952=ADVANCED_FACE('',(#102),#906,.T.);
#953=ADVANCED_FACE('',(#103),#907,.T.);
#954=ADVANCED_FACE('',(#104,#52,#53,#54,#55,#56,#57,#58),#908,.T.);
#955=CLOSED_SHELL('',(#909,#910,#911,#912,#913,#914,#915,#916,#917,#918,
#919,#920,#921,#922,#923,#924,#925,#926,#927,#928,#929,#930,#931,#932,#933,
#934,#935,#936,#937,#938,#939,#940,#941,#942,#943,#944,#945,#946,#947,#948,
#949,#950,#951,#952,#953,#954));
#956=DERIVED_UNIT_ELEMENT(#958,1.);
#957=DERIVED_UNIT_ELEMENT(#1553,-3.);
#958=(
MASS_UNIT()
NAMED_UNIT(*)
SI_UNIT(.KILO.,.GRAM.)
);
#959=DERIVED_UNIT((#956,#957));
#960=MEASURE_REPRESENTATION_ITEM('density measure',
POSITIVE_RATIO_MEASURE(7850.),#959);
#961=PROPERTY_DEFINITION_REPRESENTATION(#966,#963);
#962=PROPERTY_DEFINITION_REPRESENTATION(#967,#964);
#963=REPRESENTATION('material name',(#965),#1550);
#964=REPRESENTATION('density',(#960),#1550);
#965=DESCRIPTIVE_REPRESENTATION_ITEM('Steel','Steel');
#966=PROPERTY_DEFINITION('material property','material name',#1560);
#967=PROPERTY_DEFINITION('material property','density of part',#1560);
#968=AXIS2_PLACEMENT_3D('',#1281,#1035,#1036);
#969=AXIS2_PLACEMENT_3D('',#1282,#1037,#1038);
#970=AXIS2_PLACEMENT_3D('',#1291,#1043,#1044);
#971=AXIS2_PLACEMENT_3D('',#1297,#1048,#1049);
#972=AXIS2_PLACEMENT_3D('',#1303,#1053,#1054);
#973=AXIS2_PLACEMENT_3D('',#1306,#1057,#1058);
#974=AXIS2_PLACEMENT_3D('',#1315,#1063,#1064);
#975=AXIS2_PLACEMENT_3D('',#1321,#1068,#1069);
#976=AXIS2_PLACEMENT_3D('',#1327,#1073,#1074);
#977=AXIS2_PLACEMENT_3D('',#1333,#1078,#1079);
#978=AXIS2_PLACEMENT_3D('',#1339,#1083,#1084);
#979=AXIS2_PLACEMENT_3D('',#1357,#1093,#1094);
#980=AXIS2_PLACEMENT_3D('',#1365,#1098,#1099);
#981=AXIS2_PLACEMENT_3D('',#1373,#1103,#1104);
#982=AXIS2_PLACEMENT_3D('',#1385,#1110,#1111);
#983=AXIS2_PLACEMENT_3D('',#1393,#1115,#1116);
#984=AXIS2_PLACEMENT_3D('',#1400,#1120,#1121);
#985=AXIS2_PLACEMENT_3D('',#1402,#1122,#1123);
#986=AXIS2_PLACEMENT_3D('',#1404,#1124,#1125);
#987=AXIS2_PLACEMENT_3D('',#1406,#1126,#1127);
#988=AXIS2_PLACEMENT_3D('',#1408,#1128,#1129);
#989=AXIS2_PLACEMENT_3D('',#1409,#1130,#1131);
#990=AXIS2_PLACEMENT_3D('',#1411,#1132,#1133);
#991=AXIS2_PLACEMENT_3D('',#1413,#1135,#1136);
#992=AXIS2_PLACEMENT_3D('',#1419,#1140,#1141);
#993=AXIS2_PLACEMENT_3D('',#1425,#1145,#1146);
#994=AXIS2_PLACEMENT_3D('',#1431,#1150,#1151);
#995=AXIS2_PLACEMENT_3D('',#1435,#1154,#1155);
#996=AXIS2_PLACEMENT_3D('',#1437,#1157,#1158);
#997=AXIS2_PLACEMENT_3D('',#1439,#1160,#1161);
#998=AXIS2_PLACEMENT_3D('',#1442,#1163,#1164);
#999=AXIS2_PLACEMENT_3D('',#1443,#1165,#1166);
#1000=AXIS2_PLACEMENT_3D('',#1445,#1167,#1168);
#1001=AXIS2_PLACEMENT_3D('',#1447,#1170,#1171);
#1002=AXIS2_PLACEMENT_3D('',#1453,#1175,#1176);
#1003=AXIS2_PLACEMENT_3D('',#1459,#1180,#1181);
#1004=AXIS2_PLACEMENT_3D('',#1463,#1184,#1185);
#1005=AXIS2_PLACEMENT_3D('',#1467,#1188,#1189);
#1006=AXIS2_PLACEMENT_3D('',#1469,#1191,#1192);
#1007=AXIS2_PLACEMENT_3D('',#1471,#1194,#1195);
#1008=AXIS2_PLACEMENT_3D('',#1474,#1197,#1198);
#1009=AXIS2_PLACEMENT_3D('',#1475,#1199,#1200);
#1010=AXIS2_PLACEMENT_3D('',#1477,#1201,#1202);
#1011=AXIS2_PLACEMENT_3D('',#1479,#1204,#1205);
#1012=AXIS2_PLACEMENT_3D('',#1483,#1208,#1209);
#1013=AXIS2_PLACEMENT_3D('',#1489,#1213,#1214);
#1014=AXIS2_PLACEMENT_3D('',#1491,#1216,#1217);
#1015=AXIS2_PLACEMENT_3D('',#1495,#1220,#1221);
#1016=AXIS2_PLACEMENT_3D('',#1497,#1223,#1224);
#1017=AXIS2_PLACEMENT_3D('',#1503,#1228,#1229);
#1018=AXIS2_PLACEMENT_3D('',#1507,#1232,#1233);
#1019=AXIS2_PLACEMENT_3D('',#1511,#1236,#1237);
#1020=AXIS2_PLACEMENT_3D('',#1513,#1239,#1240);
#1021=AXIS2_PLACEMENT_3D('',#1514,#1241,#1242);
#1022=AXIS2_PLACEMENT_3D('',#1515,#1243,#1244);
#1023=AXIS2_PLACEMENT_3D('',#1518,#1246,#1247);
#1024=AXIS2_PLACEMENT_3D('',#1519,#1248,#1249);
#1025=AXIS2_PLACEMENT_3D('',#1522,#1251,#1252);
#1026=AXIS2_PLACEMENT_3D('',#1523,#1253,#1254);
#1027=AXIS2_PLACEMENT_3D('',#1526,#1256,#1257);
#1028=AXIS2_PLACEMENT_3D('',#1527,#1258,#1259);
#1029=AXIS2_PLACEMENT_3D('',#1530,#1261,#1262);
#1030=AXIS2_PLACEMENT_3D('',#1531,#1263,#1264);
#1031=AXIS2_PLACEMENT_3D('',#1537,#1268,#1269);
#1032=AXIS2_PLACEMENT_3D('',#1541,#1272,#1273);
#1033=AXIS2_PLACEMENT_3D('',#1545,#1276,#1277);
#1034=AXIS2_PLACEMENT_3D('',#1547,#1279,#1280);
#1035=DIRECTION('axis',(0.,0.,1.));
#1036=DIRECTION('refdir',(1.,0.,0.));
#1037=DIRECTION('center_axis',(0.,1.,0.));
#1038=DIRECTION('ref_axis',(-1.,0.,0.));
#1039=DIRECTION('',(-1.,0.,0.));
#1040=DIRECTION('',(0.,0.,1.));
#1041=DIRECTION('',(1.,0.,0.));
#1042=DIRECTION('',(0.,0.,1.));
#1043=DIRECTION('center_axis',(1.,0.,0.));
#1044=DIRECTION('ref_axis',(0.,1.,0.));
#1045=DIRECTION('',(0.,1.,0.));
#1046=DIRECTION('',(0.,0.,1.));
#1047=DIRECTION('',(0.,-1.,0.));
#1048=DIRECTION('center_axis',(0.,-1.,0.));
#1049=DIRECTION('ref_axis',(1.,0.,0.));
#1050=DIRECTION('',(1.,0.,0.));
#1051=DIRECTION('',(0.,0.,1.));
#1052=DIRECTION('',(-1.,0.,0.));
#1053=DIRECTION('center_axis',(-1.,0.,0.));
#1054=DIRECTION('ref_axis',(0.,-1.,0.));
#1055=DIRECTION('',(0.,-1.,0.));
#1056=DIRECTION('',(0.,1.,0.));
#1057=DIRECTION('center_axis',(-1.,0.,0.));
#1058=DIRECTION('ref_axis',(0.,-1.,0.));
#1059=DIRECTION('',(0.,0.,1.));
#1060=DIRECTION('',(0.,-1.,0.));
#1061=DIRECTION('',(0.,0.,1.));
#1062=DIRECTION('',(0.,1.,0.));
#1063=DIRECTION('center_axis',(0.,1.,0.));
#1064=DIRECTION('ref_axis',(-1.,0.,0.));
#1065=DIRECTION('',(-1.,0.,0.));
#1066=DIRECTION('',(0.,0.,1.));
#1067=DIRECTION('',(1.,0.,0.));
#1068=DIRECTION('center_axis',(1.,0.,0.));
#1069=DIRECTION('ref_axis',(0.,1.,0.));
#1070=DIRECTION('',(0.,1.,0.));
#1071=DIRECTION('',(0.,0.,1.));
#1072=DIRECTION('',(0.,-1.,0.));
#1073=DIRECTION('center_axis',(0.,-1.,0.));
#1074=DIRECTION('ref_axis',(1.,0.,0.));
#1075=DIRECTION('',(1.,0.,0.));
#1076=DIRECTION('',(0.,0.,1.));
#1077=DIRECTION('',(-1.,0.,0.));
#1078=DIRECTION('center_axis',(-1.,0.,0.));
#1079=DIRECTION('ref_axis',(0.,-1.,0.));
#1080=DIRECTION('',(0.,0.,-1.));
#1081=DIRECTION('',(0.,1.,0.));
#1082=DIRECTION('',(0.,-1.,0.));
#1083=DIRECTION('center_axis',(0.,0.,1.));
#1084=DIRECTION('ref_axis',(1.,0.,0.));
#1085=DIRECTION('',(0.,-1.,0.));
#1086=DIRECTION('',(-1.,0.,0.));
#1087=DIRECTION('',(0.,1.,0.));
#1088=DIRECTION('',(1.,0.,0.));
#1089=DIRECTION('',(-1.,0.,0.));
#1090=DIRECTION('',(0.,-1.,0.));
#1091=DIRECTION('',(1.,0.,0.));
#1092=DIRECTION('',(0.,1.,0.));
#1093=DIRECTION('center_axis',(0.,0.,1.));
#1094=DIRECTION('ref_axis',(1.,0.,0.));
#1095=DIRECTION('',(0.,1.,0.));
#1096=DIRECTION('',(-1.,0.,0.));
#1097=DIRECTION('',(0.,-1.,0.));
#1098=DIRECTION('center_axis',(0.,0.,1.));
#1099=DIRECTION('ref_axis',(1.,0.,0.));
#1100=DIRECTION('',(0.,1.,0.));
#1101=DIRECTION('',(-1.,0.,0.));
#1102=DIRECTION('',(0.,-1.,0.));
#1103=DIRECTION('center_axis',(0.,0.,1.));
#1104=DIRECTION('ref_axis',(1.,0.,0.));
#1105=DIRECTION('',(0.,1.,0.));
#1106=DIRECTION('',(-1.,0.,0.));
#1107=DIRECTION('',(0.,-1.,0.));
#1108=DIRECTION('',(1.,0.,0.));
#1109=DIRECTION('',(0.,1.,0.));
#1110=DIRECTION('center_axis',(0.,0.,1.));
#1111=DIRECTION('ref_axis',(1.,0.,0.));
#1112=DIRECTION('',(0.,-1.,0.));
#1113=DIRECTION('',(1.,0.,0.));
#1114=DIRECTION('',(0.,1.,0.));
#1115=DIRECTION('center_axis',(0.,0.,1.));
#1116=DIRECTION('ref_axis',(1.,0.,0.));
#1117=DIRECTION('',(0.,-1.,0.));
#1118=DIRECTION('',(1.,0.,0.));
#1119=DIRECTION('',(0.,1.,0.));
#1120=DIRECTION('center_axis',(0.,0.,1.));
#1121=DIRECTION('ref_axis',(1.,0.,0.));
#1122=DIRECTION('center_axis',(0.,0.,1.));
#1123=DIRECTION('ref_axis',(1.,0.,0.));
#1124=DIRECTION('center_axis',(0.,0.,1.));
#1125=DIRECTION('ref_axis',(1.,0.,0.));
#1126=DIRECTION('center_axis',(0.,0.,1.));
#1127=DIRECTION('ref_axis',(1.,0.,0.));
#1128=DIRECTION('center_axis',(0.,0.,1.));
#1129=DIRECTION('ref_axis',(1.,0.,0.));
#1130=DIRECTION('center_axis',(0.,0.,1.));
#1131=DIRECTION('ref_axis',(1.,0.,0.));
#1132=DIRECTION('center_axis',(0.,0.,-1.));
#1133=DIRECTION('ref_axis',(1.,0.,0.));
#1134=DIRECTION('',(0.,0.,-1.));
#1135=DIRECTION('center_axis',(-1.,0.,0.));
#1136=DIRECTION('ref_axis',(0.,-1.,0.));
#1137=DIRECTION('',(0.,0.,-1.));
#1138=DIRECTION('',(0.,1.,0.));
#1139=DIRECTION('',(0.,0.,1.));
#1140=DIRECTION('center_axis',(-1.,0.,0.));
#1141=DIRECTION('ref_axis',(0.,-1.,0.));
#1142=DIRECTION('',(0.,0.,1.));
#1143=DIRECTION('',(0.,0.,1.));
#1144=DIRECTION('',(0.,1.,0.));
#1145=DIRECTION('center_axis',(1.,0.,0.));
#1146=DIRECTION('ref_axis',(0.,1.,0.));
#1147=DIRECTION('',(0.,0.,1.));
#1148=DIRECTION('',(0.,0.,1.));
#1149=DIRECTION('',(0.,-1.,0.));
#1150=DIRECTION('center_axis',(0.,1.,0.));
#1151=DIRECTION('ref_axis',(-1.,0.,0.));
#1152=DIRECTION('',(0.,0.,1.));
#1153=DIRECTION('',(1.,0.,0.));
#1154=DIRECTION('center_axis',(1.,0.,0.));
#1155=DIRECTION('ref_axis',(0.,1.,0.));
#1156=DIRECTION('',(0.,-1.,0.));
#1157=DIRECTION('center_axis',(0.,-1.,0.));
#1158=DIRECTION('ref_axis',(1.,0.,0.));
#1159=DIRECTION('',(-1.,0.,0.));
#1160=DIRECTION('center_axis',(0.,0.,1.));
#1161=DIRECTION('ref_axis',(1.,0.,0.));
#1162=DIRECTION('',(0.,0.,1.));
#1163=DIRECTION('center_axis',(0.,0.,-1.));
#1164=DIRECTION('ref_axis',(1.,0.,0.));
#1165=DIRECTION('center_axis',(0.,0.,1.));
#1166=DIRECTION('ref_axis',(1.,0.,0.));
#1167=DIRECTION('center_axis',(0.,0.,-1.));
#1168=DIRECTION('ref_axis',(1.,0.,0.));
#1169=DIRECTION('',(0.,0.,-1.));
#1170=DIRECTION('center_axis',(-1.,0.,0.));
#1171=DIRECTION('ref_axis',(0.,-1.,0.));
#1172=DIRECTION('',(0.,0.,-1.));
#1173=DIRECTION('',(0.,1.,0.));
#1174=DIRECTION('',(0.,0.,1.));
#1175=DIRECTION('center_axis',(-1.,0.,0.));
#1176=DIRECTION('ref_axis',(0.,-1.,0.));
#1177=DIRECTION('',(0.,0.,1.));
#1178=DIRECTION('',(0.,0.,1.));
#1179=DIRECTION('',(0.,1.,0.));
#1180=DIRECTION('center_axis',(1.,0.,0.));
#1181=DIRECTION('ref_axis',(0.,1.,0.));
#1182=DIRECTION('',(0.,0.,1.));
#1183=DIRECTION('',(0.,-1.,0.));
#1184=DIRECTION('center_axis',(0.,1.,0.));
#1185=DIRECTION('ref_axis',(-1.,0.,0.));
#1186=DIRECTION('',(0.,0.,1.));
#1187=DIRECTION('',(1.,0.,0.));
#1188=DIRECTION('center_axis',(1.,0.,0.));
#1189=DIRECTION('ref_axis',(0.,1.,0.));
#1190=DIRECTION('',(0.,-1.,0.));
#1191=DIRECTION('center_axis',(0.,-1.,0.));
#1192=DIRECTION('ref_axis',(1.,0.,0.));
#1193=DIRECTION('',(-1.,0.,0.));
#1194=DIRECTION('center_axis',(0.,0.,1.));
#1195=DIRECTION('ref_axis',(1.,0.,0.));
#1196=DIRECTION('',(0.,0.,1.));
#1197=DIRECTION('center_axis',(0.,0.,-1.));
#1198=DIRECTION('ref_axis',(1.,0.,0.));
#1199=DIRECTION('center_axis',(0.,0.,1.));
#1200=DIRECTION('ref_axis',(1.,0.,0.));
#1201=DIRECTION('center_axis',(0.,0.,-1.));
#1202=DIRECTION('ref_axis',(1.,0.,0.));
#1203=DIRECTION('',(0.,0.,-1.));
#1204=DIRECTION('center_axis',(1.,0.,0.));
#1205=DIRECTION('ref_axis',(0.,1.,0.));
#1206=DIRECTION('',(0.,0.,1.));
#1207=DIRECTION('',(0.,-1.,0.));
#1208=DIRECTION('center_axis',(0.,1.,0.));
#1209=DIRECTION('ref_axis',(-1.,0.,0.));
#1210=DIRECTION('',(0.,0.,1.));
#1211=DIRECTION('',(1.,0.,0.));
#1212=DIRECTION('',(0.,0.,1.));
#1213=DIRECTION('center_axis',(1.,0.,0.));
#1214=DIRECTION('ref_axis',(0.,1.,0.));
#1215=DIRECTION('',(0.,-1.,0.));
#1216=DIRECTION('center_axis',(0.,-1.,0.));
#1217=DIRECTION('ref_axis',(1.,0.,0.));
#1218=DIRECTION('',(0.,0.,1.));
#1219=DIRECTION('',(-1.,0.,0.));
#1220=DIRECTION('center_axis',(-1.,0.,0.));
#1221=DIRECTION('ref_axis',(0.,-1.,0.));
#1222=DIRECTION('',(0.,1.,0.));
#1223=DIRECTION('center_axis',(0.,1.,0.));
#1224=DIRECTION('ref_axis',(-1.,0.,0.));
#1225=DIRECTION('',(0.,0.,1.));
#1226=DIRECTION('',(1.,0.,0.));
#1227=DIRECTION('',(0.,0.,1.));
#1228=DIRECTION('center_axis',(1.,0.,0.));
#1229=DIRECTION('ref_axis',(0.,1.,0.));
#1230=DIRECTION('',(0.,0.,1.));
#1231=DIRECTION('',(0.,-1.,0.));
#1232=DIRECTION('center_axis',(0.,-1.,0.));
#1233=DIRECTION('ref_axis',(1.,0.,0.));
#1234=DIRECTION('',(0.,0.,1.));
#1235=DIRECTION('',(-1.,0.,0.));
#1236=DIRECTION('center_axis',(-1.,0.,0.));
#1237=DIRECTION('ref_axis',(0.,-1.,0.));
#1238=DIRECTION('',(0.,1.,0.));
#1239=DIRECTION('center_axis',(0.,0.,1.));
#1240=DIRECTION('ref_axis',(1.,0.,0.));
#1241=DIRECTION('center_axis',(0.,0.,-1.));
#1242=DIRECTION('ref_axis',(1.,0.,0.));
#1243=DIRECTION('center_axis',(0.,0.,1.));
#1244=DIRECTION('ref_axis',(1.,0.,0.));
#1245=DIRECTION('',(0.,0.,1.));
#1246=DIRECTION('center_axis',(0.,0.,-1.));
#1247=DIRECTION('ref_axis',(1.,0.,0.));
#1248=DIRECTION('center_axis',(0.,0.,1.));
#1249=DIRECTION('ref_axis',(1.,0.,0.));
#1250=DIRECTION('',(0.,0.,1.));
#1251=DIRECTION('center_axis',(0.,0.,-1.));
#1252=DIRECTION('ref_axis',(1.,0.,0.));
#1253=DIRECTION('center_axis',(0.,0.,1.));
#1254=DIRECTION('ref_axis',(1.,0.,0.));
#1255=DIRECTION('',(0.,0.,1.));
#1256=DIRECTION('center_axis',(0.,0.,-1.));
#1257=DIRECTION('ref_axis',(1.,0.,0.));
#1258=DIRECTION('center_axis',(0.,0.,1.));
#1259=DIRECTION('ref_axis',(1.,0.,0.));
#1260=DIRECTION('',(0.,0.,1.));
#1261=DIRECTION('center_axis',(0.,0.,-1.));
#1262=DIRECTION('ref_axis',(1.,0.,0.));
#1263=DIRECTION('center_axis',(0.,1.,0.));
#1264=DIRECTION('ref_axis',(-1.,0.,0.));
#1265=DIRECTION('',(0.,0.,1.));
#1266=DIRECTION('',(-1.,0.,0.));
#1267=DIRECTION('',(0.,0.,1.));
#1268=DIRECTION('center_axis',(1.,0.,0.));
#1269=DIRECTION('ref_axis',(0.,1.,0.));
#1270=DIRECTION('',(0.,1.,0.));
#1271=DIRECTION('',(0.,0.,1.));
#1272=DIRECTION('center_axis',(0.,-1.,0.));
#1273=DIRECTION('ref_axis',(1.,0.,0.));
#1274=DIRECTION('',(1.,0.,0.));
#1275=DIRECTION('',(0.,0.,1.));
#1276=DIRECTION('center_axis',(-1.,0.,0.));
#1277=DIRECTION('ref_axis',(0.,-1.,0.));
#1278=DIRECTION('',(0.,-1.,0.));
#1279=DIRECTION('center_axis',(0.,0.,1.));
#1280=DIRECTION('ref_axis',(1.,0.,0.));
#1281=CARTESIAN_POINT('',(0.,0.,0.));
#1282=CARTESIAN_POINT('Origin',(85.,84.,0.));
#1283=CARTESIAN_POINT('',(85.,84.,0.));
#1284=CARTESIAN_POINT('',(79.,84.,0.));
#1285=CARTESIAN_POINT('',(67.,84.,0.));
#1286=CARTESIAN_POINT('',(85.,84.,5.));
#1287=CARTESIAN_POINT('',(85.,84.,0.));
#1288=CARTESIAN_POINT('',(79.,84.,5.));
#1289=CARTESIAN_POINT('',(67.,84.,5.));
#1290=CARTESIAN_POINT('',(79.,84.,0.));
#1291=CARTESIAN_POINT('Origin',(85.,14.,0.));
#1292=CARTESIAN_POINT('',(85.,14.,0.));
#1293=CARTESIAN_POINT('',(85.,31.5,0.));
#1294=CARTESIAN_POINT('',(85.,14.,5.));
#1295=CARTESIAN_POINT('',(85.,14.,0.));
#1296=CARTESIAN_POINT('',(85.,31.5,5.));
#1297=CARTESIAN_POINT('Origin',(79.,14.,0.));
#1298=CARTESIAN_POINT('',(79.,14.,0.));
#1299=CARTESIAN_POINT('',(64.,14.,0.));
#1300=CARTESIAN_POINT('',(79.,14.,5.));
#1301=CARTESIAN_POINT('',(79.,14.,0.));
#1302=CARTESIAN_POINT('',(64.,14.,5.));
#1303=CARTESIAN_POINT('Origin',(79.,84.,0.));
#1304=CARTESIAN_POINT('',(79.,66.5,0.));
#1305=CARTESIAN_POINT('',(79.,66.5,5.));
#1306=CARTESIAN_POINT('Origin',(69.,84.,0.));
#1307=CARTESIAN_POINT('',(69.,64.,0.));
#1308=CARTESIAN_POINT('',(69.,64.,5.));
#1309=CARTESIAN_POINT('',(69.,64.,0.));
#1310=CARTESIAN_POINT('',(69.,84.,0.));
#1311=CARTESIAN_POINT('',(69.,66.5,0.));
#1312=CARTESIAN_POINT('',(69.,84.,5.));
#1313=CARTESIAN_POINT('',(69.,84.,0.));
#1314=CARTESIAN_POINT('',(69.,66.5,5.));
#1315=CARTESIAN_POINT('Origin',(75.,84.,0.));
#1316=CARTESIAN_POINT('',(75.,84.,0.));
#1317=CARTESIAN_POINT('',(62.,84.,0.));
#1318=CARTESIAN_POINT('',(75.,84.,5.));
#1319=CARTESIAN_POINT('',(75.,84.,0.));
#1320=CARTESIAN_POINT('',(62.,84.,5.));
#1321=CARTESIAN_POINT('Origin',(75.,14.,0.));
#1322=CARTESIAN_POINT('',(75.,14.,0.));
#1323=CARTESIAN_POINT('',(75.,31.5,0.));
#1324=CARTESIAN_POINT('',(75.,14.,5.));
#1325=CARTESIAN_POINT('',(75.,14.,0.));
#1326=CARTESIAN_POINT('',(75.,31.5,5.));
#1327=CARTESIAN_POINT('Origin',(69.,14.,0.));
#1328=CARTESIAN_POINT('',(69.,14.,0.));
#1329=CARTESIAN_POINT('',(59.,14.,0.));
#1330=CARTESIAN_POINT('',(69.,14.,5.));
#1331=CARTESIAN_POINT('',(69.,14.,0.));
#1332=CARTESIAN_POINT('',(59.,14.,5.));
#1333=CARTESIAN_POINT('Origin',(69.,84.,0.));
#1334=CARTESIAN_POINT('',(69.,34.,5.));
#1335=CARTESIAN_POINT('',(69.,34.,0.));
#1336=CARTESIAN_POINT('',(69.,34.,0.));
#1337=CARTESIAN_POINT('',(69.,66.5,5.));
#1338=CARTESIAN_POINT('',(69.,66.5,0.));
#1339=CARTESIAN_POINT('Origin',(49.,49.,0.));
#1340=CARTESIAN_POINT('',(0.,98.,0.));
#1341=CARTESIAN_POINT('',(0.,0.,0.));
#1342=CARTESIAN_POINT('',(0.,98.,0.));
#1343=CARTESIAN_POINT('',(98.,98.,0.));
#1344=CARTESIAN_POINT('',(98.,98.,0.));
#1345=CARTESIAN_POINT('',(98.,0.,0.));
#1346=CARTESIAN_POINT('',(98.,0.,0.));
#1347=CARTESIAN_POINT('',(0.,0.,0.));
#1348=CARTESIAN_POINT('',(19.,84.,0.));
#1349=CARTESIAN_POINT('',(13.,84.,0.));
#1350=CARTESIAN_POINT('',(34.,84.,0.));
#1351=CARTESIAN_POINT('',(13.,14.,0.));
#1352=CARTESIAN_POINT('',(13.,66.5,0.));
#1353=CARTESIAN_POINT('',(19.,14.,0.));
#1354=CARTESIAN_POINT('',(31.,14.,0.));
#1355=CARTESIAN_POINT('',(19.,31.5,0.));
#1356=CARTESIAN_POINT('',(65.,68.2093727122985,0.));
#1357=CARTESIAN_POINT('Origin',(49.,49.,0.));
#1358=CARTESIAN_POINT('',(65.,84.,0.));
#1359=CARTESIAN_POINT('',(65.,31.5,0.));
#1360=CARTESIAN_POINT('',(59.,84.,0.));
#1361=CARTESIAN_POINT('',(57.,84.,0.));
#1362=CARTESIAN_POINT('',(59.,71.9128784747792,0.));
#1363=CARTESIAN_POINT('',(59.,66.5,0.));
#1364=CARTESIAN_POINT('',(39.,71.9128784747792,0.));
#1365=CARTESIAN_POINT('Origin',(49.,49.,0.));
#1366=CARTESIAN_POINT('',(39.,84.,0.));
#1367=CARTESIAN_POINT('',(39.,31.5,0.));
#1368=CARTESIAN_POINT('',(33.,84.,0.));
#1369=CARTESIAN_POINT('',(44.,84.,0.));
#1370=CARTESIAN_POINT('',(33.,68.2093727122985,0.));
#1371=CARTESIAN_POINT('',(33.,66.5,0.));
#1372=CARTESIAN_POINT('',(29.,64.,0.));
#1373=CARTESIAN_POINT('Origin',(49.,49.,0.));
#1374=CARTESIAN_POINT('',(29.,84.,0.));
#1375=CARTESIAN_POINT('',(29.,31.5,0.));
#1376=CARTESIAN_POINT('',(23.,84.,0.));
#1377=CARTESIAN_POINT('',(39.,84.,0.));
#1378=CARTESIAN_POINT('',(23.,14.,0.));
#1379=CARTESIAN_POINT('',(23.,66.5,0.));
#1380=CARTESIAN_POINT('',(29.,14.,0.));
#1381=CARTESIAN_POINT('',(36.,14.,0.));
#1382=CARTESIAN_POINT('',(29.,34.,0.));
#1383=CARTESIAN_POINT('',(29.,31.5,0.));
#1384=CARTESIAN_POINT('',(33.,29.7906272877015,0.));
#1385=CARTESIAN_POINT('Origin',(49.,49.,0.));
#1386=CARTESIAN_POINT('',(33.,14.,0.));
#1387=CARTESIAN_POINT('',(33.,66.5,0.));
#1388=CARTESIAN_POINT('',(39.,14.,0.));
#1389=CARTESIAN_POINT('',(41.,14.,0.));
#1390=CARTESIAN_POINT('',(39.,26.0871215252208,0.));
#1391=CARTESIAN_POINT('',(39.,31.5,0.));
#1392=CARTESIAN_POINT('',(59.,26.0871215252208,0.));
#1393=CARTESIAN_POINT('Origin',(49.,49.,0.));
#1394=CARTESIAN_POINT('',(59.,14.,0.));
#1395=CARTESIAN_POINT('',(59.,66.5,0.));
#1396=CARTESIAN_POINT('',(65.,14.,0.));
#1397=CARTESIAN_POINT('',(54.,14.,0.));
#1398=CARTESIAN_POINT('',(65.,29.7906272877015,0.));
#1399=CARTESIAN_POINT('',(65.,31.5,0.));
#1400=CARTESIAN_POINT('Origin',(49.,49.,0.));
#1401=CARTESIAN_POINT('',(88.15,90.25,0.));
#1402=CARTESIAN_POINT('Origin',(90.25,90.25,0.));
#1403=CARTESIAN_POINT('',(88.15,7.75,0.));
#1404=CARTESIAN_POINT('Origin',(90.25,7.75,0.));
#1405=CARTESIAN_POINT('',(5.65,90.25,0.));
#1406=CARTESIAN_POINT('Origin',(7.75,90.25,0.));
#1407=CARTESIAN_POINT('',(5.65,7.75,0.));
#1408=CARTESIAN_POINT('Origin',(7.75,7.75,0.));
#1409=CARTESIAN_POINT('Origin',(49.,49.,0.));
#1410=CARTESIAN_POINT('',(65.,68.2093727122985,5.));
#1411=CARTESIAN_POINT('Origin',(49.,49.,5.));
#1412=CARTESIAN_POINT('',(65.,68.2093727122985,0.));
#1413=CARTESIAN_POINT('Origin',(59.,84.,0.));
#1414=CARTESIAN_POINT('',(59.,26.0871215252208,5.));
#1415=CARTESIAN_POINT('',(59.,26.0871215252208,0.));
#1416=CARTESIAN_POINT('',(59.,14.,5.));
#1417=CARTESIAN_POINT('',(59.,66.5,5.));
#1418=CARTESIAN_POINT('',(59.,14.,0.));
#1419=CARTESIAN_POINT('Origin',(59.,84.,0.));
#1420=CARTESIAN_POINT('',(59.,71.9128784747792,5.));
#1421=CARTESIAN_POINT('',(59.,71.9128784747792,0.));
#1422=CARTESIAN_POINT('',(59.,84.,5.));
#1423=CARTESIAN_POINT('',(59.,84.,0.));
#1424=CARTESIAN_POINT('',(59.,66.5,5.));
#1425=CARTESIAN_POINT('Origin',(65.,14.,0.));
#1426=CARTESIAN_POINT('',(65.,29.7906272877015,5.));
#1427=CARTESIAN_POINT('',(65.,29.7906272877015,0.));
#1428=CARTESIAN_POINT('',(65.,14.,5.));
#1429=CARTESIAN_POINT('',(65.,14.,0.));
#1430=CARTESIAN_POINT('',(65.,31.5,5.));
#1431=CARTESIAN_POINT('Origin',(65.,84.,0.));
#1432=CARTESIAN_POINT('',(65.,84.,5.));
#1433=CARTESIAN_POINT('',(65.,84.,0.));
#1434=CARTESIAN_POINT('',(57.,84.,5.));
#1435=CARTESIAN_POINT('Origin',(65.,14.,0.));
#1436=CARTESIAN_POINT('',(65.,31.5,5.));
#1437=CARTESIAN_POINT('Origin',(59.,14.,0.));
#1438=CARTESIAN_POINT('',(54.,14.,5.));
#1439=CARTESIAN_POINT('Origin',(49.,49.,0.));
#1440=CARTESIAN_POINT('',(39.,26.0871215252208,5.));
#1441=CARTESIAN_POINT('',(39.,26.0871215252208,0.));
#1442=CARTESIAN_POINT('Origin',(49.,49.,5.));
#1443=CARTESIAN_POINT('Origin',(49.,49.,0.));
#1444=CARTESIAN_POINT('',(39.,71.9128784747792,5.));
#1445=CARTESIAN_POINT('Origin',(49.,49.,5.));
#1446=CARTESIAN_POINT('',(39.,71.9128784747792,0.));
#1447=CARTESIAN_POINT('Origin',(33.,84.,0.));
#1448=CARTESIAN_POINT('',(33.,29.7906272877015,5.));
#1449=CARTESIAN_POINT('',(33.,29.7906272877015,0.));
#1450=CARTESIAN_POINT('',(33.,14.,5.));
#1451=CARTESIAN_POINT('',(33.,66.5,5.));
#1452=CARTESIAN_POINT('',(33.,14.,0.));
#1453=CARTESIAN_POINT('Origin',(33.,84.,0.));
#1454=CARTESIAN_POINT('',(33.,68.2093727122985,5.));
#1455=CARTESIAN_POINT('',(33.,68.2093727122985,0.));
#1456=CARTESIAN_POINT('',(33.,84.,5.));
#1457=CARTESIAN_POINT('',(33.,84.,0.));
#1458=CARTESIAN_POINT('',(33.,66.5,5.));
#1459=CARTESIAN_POINT('Origin',(39.,14.,0.));
#1460=CARTESIAN_POINT('',(39.,14.,5.));
#1461=CARTESIAN_POINT('',(39.,14.,0.));
#1462=CARTESIAN_POINT('',(39.,31.5,5.));
#1463=CARTESIAN_POINT('Origin',(39.,84.,0.));
#1464=CARTESIAN_POINT('',(39.,84.,5.));
#1465=CARTESIAN_POINT('',(39.,84.,0.));
#1466=CARTESIAN_POINT('',(44.,84.,5.));
#1467=CARTESIAN_POINT('Origin',(39.,14.,0.));
#1468=CARTESIAN_POINT('',(39.,31.5,5.));
#1469=CARTESIAN_POINT('Origin',(33.,14.,0.));
#1470=CARTESIAN_POINT('',(41.,14.,5.));
#1471=CARTESIAN_POINT('Origin',(49.,49.,0.));
#1472=CARTESIAN_POINT('',(29.,34.,5.));
#1473=CARTESIAN_POINT('',(29.,34.,0.));
#1474=CARTESIAN_POINT('Origin',(49.,49.,5.));
#1475=CARTESIAN_POINT('Origin',(49.,49.,0.));
#1476=CARTESIAN_POINT('',(29.,64.,5.));
#1477=CARTESIAN_POINT('Origin',(49.,49.,5.));
#1478=CARTESIAN_POINT('',(29.,64.,0.));
#1479=CARTESIAN_POINT('Origin',(29.,14.,0.));
#1480=CARTESIAN_POINT('',(29.,14.,5.));
#1481=CARTESIAN_POINT('',(29.,14.,0.));
#1482=CARTESIAN_POINT('',(29.,31.5,5.));
#1483=CARTESIAN_POINT('Origin',(29.,84.,0.));
#1484=CARTESIAN_POINT('',(29.,84.,5.));
#1485=CARTESIAN_POINT('',(29.,84.,0.));
#1486=CARTESIAN_POINT('',(23.,84.,5.));
#1487=CARTESIAN_POINT('',(39.,84.,5.));
#1488=CARTESIAN_POINT('',(23.,84.,0.));
#1489=CARTESIAN_POINT('Origin',(29.,14.,0.));
#1490=CARTESIAN_POINT('',(29.,31.5,5.));
#1491=CARTESIAN_POINT('Origin',(23.,14.,0.));
#1492=CARTESIAN_POINT('',(23.,14.,5.));
#1493=CARTESIAN_POINT('',(23.,14.,0.));
#1494=CARTESIAN_POINT('',(36.,14.,5.));
#1495=CARTESIAN_POINT('Origin',(23.,84.,0.));
#1496=CARTESIAN_POINT('',(23.,66.5,5.));
#1497=CARTESIAN_POINT('Origin',(19.,84.,0.));
#1498=CARTESIAN_POINT('',(19.,84.,5.));
#1499=CARTESIAN_POINT('',(19.,84.,0.));
#1500=CARTESIAN_POINT('',(13.,84.,5.));
#1501=CARTESIAN_POINT('',(34.,84.,5.));
#1502=CARTESIAN_POINT('',(13.,84.,0.));
#1503=CARTESIAN_POINT('Origin',(19.,14.,0.));
#1504=CARTESIAN_POINT('',(19.,14.,5.));
#1505=CARTESIAN_POINT('',(19.,14.,0.));
#1506=CARTESIAN_POINT('',(19.,31.5,5.));
#1507=CARTESIAN_POINT('Origin',(13.,14.,0.));
#1508=CARTESIAN_POINT('',(13.,14.,5.));
#1509=CARTESIAN_POINT('',(13.,14.,0.));
#1510=CARTESIAN_POINT('',(31.,14.,5.));
#1511=CARTESIAN_POINT('Origin',(13.,84.,0.));
#1512=CARTESIAN_POINT('',(13.,66.5,5.));
#1513=CARTESIAN_POINT('Origin',(49.,49.,0.));
#1514=CARTESIAN_POINT('Origin',(49.,49.,5.));
#1515=CARTESIAN_POINT('Origin',(90.25,90.25,0.));
#1516=CARTESIAN_POINT('',(88.15,90.25,5.));
#1517=CARTESIAN_POINT('',(88.15,90.25,0.));
#1518=CARTESIAN_POINT('Origin',(90.25,90.25,5.));
#1519=CARTESIAN_POINT('Origin',(90.25,7.75,0.));
#1520=CARTESIAN_POINT('',(88.15,7.75,5.));
#1521=CARTESIAN_POINT('',(88.15,7.75,0.));
#1522=CARTESIAN_POINT('Origin',(90.25,7.75,5.));
#1523=CARTESIAN_POINT('Origin',(7.75,90.25,0.));
#1524=CARTESIAN_POINT('',(5.65,90.25,5.));
#1525=CARTESIAN_POINT('',(5.65,90.25,0.));
#1526=CARTESIAN_POINT('Origin',(7.75,90.25,5.));
#1527=CARTESIAN_POINT('Origin',(7.75,7.75,0.));
#1528=CARTESIAN_POINT('',(5.65,7.75,5.));
#1529=CARTESIAN_POINT('',(5.65,7.75,0.));
#1530=CARTESIAN_POINT('Origin',(7.75,7.75,5.));
#1531=CARTESIAN_POINT('Origin',(98.,98.,0.));
#1532=CARTESIAN_POINT('',(0.,98.,5.));
#1533=CARTESIAN_POINT('',(0.,98.,0.));
#1534=CARTESIAN_POINT('',(98.,98.,5.));
#1535=CARTESIAN_POINT('',(98.,98.,5.));
#1536=CARTESIAN_POINT('',(98.,98.,0.));
#1537=CARTESIAN_POINT('Origin',(98.,0.,0.));
#1538=CARTESIAN_POINT('',(98.,0.,5.));
#1539=CARTESIAN_POINT('',(98.,0.,5.));
#1540=CARTESIAN_POINT('',(98.,0.,0.));
#1541=CARTESIAN_POINT('Origin',(0.,0.,0.));
#1542=CARTESIAN_POINT('',(0.,0.,5.));
#1543=CARTESIAN_POINT('',(0.,0.,5.));
#1544=CARTESIAN_POINT('',(0.,0.,0.));
#1545=CARTESIAN_POINT('Origin',(0.,98.,0.));
#1546=CARTESIAN_POINT('',(0.,98.,5.));
#1547=CARTESIAN_POINT('Origin',(49.,49.,5.));
#1548=UNCERTAINTY_MEASURE_WITH_UNIT(LENGTH_MEASURE(0.01),#1552,
'DISTANCE_ACCURACY_VALUE',
'Maximum model space distance between geometric entities at asserted c
onnectivities');
#1549=UNCERTAINTY_MEASURE_WITH_UNIT(LENGTH_MEASURE(0.01),#1552,
'DISTANCE_ACCURACY_VALUE',
'Maximum model space distance between geometric entities at asserted c
onnectivities');
#1550=(
GEOMETRIC_REPRESENTATION_CONTEXT(3)
GLOBAL_UNCERTAINTY_ASSIGNED_CONTEXT((#1548))
GLOBAL_UNIT_ASSIGNED_CONTEXT((#1552,#1554,#1555))
REPRESENTATION_CONTEXT('','3D')
);
#1551=(
GEOMETRIC_REPRESENTATION_CONTEXT(3)
GLOBAL_UNCERTAINTY_ASSIGNED_CONTEXT((#1549))
GLOBAL_UNIT_ASSIGNED_CONTEXT((#1552,#1554,#1555))
REPRESENTATION_CONTEXT('','3D')
);
#1552=(
LENGTH_UNIT()
NAMED_UNIT(*)
SI_UNIT(.MILLI.,.METRE.)
);
#1553=(
LENGTH_UNIT()
NAMED_UNIT(*)
SI_UNIT($,.METRE.)
);
#1554=(
NAMED_UNIT(*)
PLANE_ANGLE_UNIT()
SI_UNIT($,.RADIAN.)
);
#1555=(
NAMED_UNIT(*)
SI_UNIT($,.STERADIAN.)
SOLID_ANGLE_UNIT()
);
#1556=SHAPE_DEFINITION_REPRESENTATION(#1557,#1558);
#1557=PRODUCT_DEFINITION_SHAPE('',$,#1560);
#1558=SHAPE_REPRESENTATION('',(#968),#1550);
#1559=PRODUCT_DEFINITION_CONTEXT('part definition',#1564,'design');
#1560=PRODUCT_DEFINITION('2026-08-29-00-43-19-963','Back Plate',#1561,#1559);
#1561=PRODUCT_DEFINITION_FORMATION('',$,#1566);
#1562=PRODUCT_RELATED_PRODUCT_CATEGORY('Back Plate','Back Plate',(#1566));
#1563=APPLICATION_PROTOCOL_DEFINITION('international standard',
'automotive_design',2009,#1564);
#1564=APPLICATION_CONTEXT(
'Core Data for Automotive Mechanical Design Process');
#1565=PRODUCT_CONTEXT('part definition',#1564,'mechanical');
#1566=PRODUCT('2026-08-29-00-43-19-963','Back Plate',$,(#1565));
#1567=PRESENTATION_STYLE_ASSIGNMENT((#1568));
#1568=SURFACE_STYLE_USAGE(.BOTH.,#1569);
#1569=SURFACE_SIDE_STYLE('',(#1570));
#1570=SURFACE_STYLE_FILL_AREA(#1571);
#1571=FILL_AREA_STYLE('Steel - Satin',(#1572));
#1572=FILL_AREA_STYLE_COLOUR('Steel - Satin',#1573);
#1573=COLOUR_RGB('Steel - Satin',0.627450980392157,0.627450980392157,0.627450980392157);
ENDSEC;
END-ISO-10303-21;
