ISO-10303-21;
HEADER;
/* Generated by software containing ST-Developer
 * from STEP Tools, Inc. (www.steptools.com) 
 */

FILE_DESCRIPTION(
/* description */ (''),
/* implementation_level */ '2;1');

FILE_NAME(
/* name */ 'Body Tube.step',
/* time_stamp */ '2026-08-29T00:38:30+03:00',
/* author */ (''),
/* organization */ (''),
/* preprocessor_version */ 'ST-DEVELOPER v20.1',
/* originating_system */ 'Autodesk Translation Framework v15.8.0.0',
/* authorisation */ '');

FILE_SCHEMA (('AUTOMOTIVE_DESIGN { 1 0 10303 214 3 1 1 }'));
ENDSEC;

DATA;
#10=MECHANICAL_DESIGN_GEOMETRIC_PRESENTATION_REPRESENTATION('',(#13),#832);
#11=SHAPE_REPRESENTATION_RELATIONSHIP('SRR','None',#839,#12);
#12=ADVANCED_BREP_SHAPE_REPRESENTATION('',(#14),#831);
#13=STYLED_ITEM('',(#848),#14);
#14=MANIFOLD_SOLID_BREP('Body1',#464);
#15=CYLINDRICAL_SURFACE('',#488,6.);
#16=CIRCLE('',#482,6.);
#17=CIRCLE('',#489,6.);
#18=FACE_BOUND('',#69,.T.);
#19=FACE_BOUND('',#75,.T.);
#20=FACE_BOUND('',#86,.T.);
#21=FACE_BOUND('',#88,.T.);
#22=FACE_BOUND('',#94,.T.);
#23=PLANE('',#478);
#24=PLANE('',#479);
#25=PLANE('',#480);
#26=PLANE('',#481);
#27=PLANE('',#483);
#28=PLANE('',#484);
#29=PLANE('',#485);
#30=PLANE('',#486);
#31=PLANE('',#487);
#32=PLANE('',#490);
#33=PLANE('',#491);
#34=PLANE('',#492);
#35=PLANE('',#493);
#36=PLANE('',#494);
#37=PLANE('',#495);
#38=PLANE('',#496);
#39=PLANE('',#497);
#40=PLANE('',#498);
#41=PLANE('',#499);
#42=FACE_OUTER_BOUND('',#66,.T.);
#43=FACE_OUTER_BOUND('',#67,.T.);
#44=FACE_OUTER_BOUND('',#68,.T.);
#45=FACE_OUTER_BOUND('',#70,.T.);
#46=FACE_OUTER_BOUND('',#71,.T.);
#47=FACE_OUTER_BOUND('',#72,.T.);
#48=FACE_OUTER_BOUND('',#73,.T.);
#49=FACE_OUTER_BOUND('',#74,.T.);
#50=FACE_OUTER_BOUND('',#76,.T.);
#51=FACE_OUTER_BOUND('',#77,.T.);
#52=FACE_OUTER_BOUND('',#78,.T.);
#53=FACE_OUTER_BOUND('',#79,.T.);
#54=FACE_OUTER_BOUND('',#80,.T.);
#55=FACE_OUTER_BOUND('',#81,.T.);
#56=FACE_OUTER_BOUND('',#82,.T.);
#57=FACE_OUTER_BOUND('',#83,.T.);
#58=FACE_OUTER_BOUND('',#84,.T.);
#59=FACE_OUTER_BOUND('',#85,.T.);
#60=FACE_OUTER_BOUND('',#87,.T.);
#61=FACE_OUTER_BOUND('',#89,.T.);
#62=FACE_OUTER_BOUND('',#90,.T.);
#63=FACE_OUTER_BOUND('',#91,.T.);
#64=FACE_OUTER_BOUND('',#92,.T.);
#65=FACE_OUTER_BOUND('',#93,.T.);
#66=EDGE_LOOP('',(#310,#311,#312,#313,#314,#315));
#67=EDGE_LOOP('',(#316,#317,#318,#319));
#68=EDGE_LOOP('',(#320,#321,#322,#323));
#69=EDGE_LOOP('',(#324,#325,#326,#327));
#70=EDGE_LOOP('',(#328,#329,#330,#331,#332,#333));
#71=EDGE_LOOP('',(#334,#335,#336,#337));
#72=EDGE_LOOP('',(#338,#339,#340,#341));
#73=EDGE_LOOP('',(#342,#343,#344,#345));
#74=EDGE_LOOP('',(#346,#347,#348,#349,#350,#351,#352,#353));
#75=EDGE_LOOP('',(#354));
#76=EDGE_LOOP('',(#355,#356,#357,#358,#359,#360));
#77=EDGE_LOOP('',(#361,#362,#363,#364));
#78=EDGE_LOOP('',(#365,#366,#367,#368));
#79=EDGE_LOOP('',(#369,#370,#371,#372));
#80=EDGE_LOOP('',(#373,#374,#375,#376,#377,#378,#379,#380));
#81=EDGE_LOOP('',(#381,#382,#383,#384));
#82=EDGE_LOOP('',(#385,#386,#387,#388));
#83=EDGE_LOOP('',(#389,#390,#391,#392));
#84=EDGE_LOOP('',(#393,#394,#395,#396));
#85=EDGE_LOOP('',(#397,#398,#399,#400));
#86=EDGE_LOOP('',(#401));
#87=EDGE_LOOP('',(#402,#403,#404,#405));
#88=EDGE_LOOP('',(#406,#407,#408,#409));
#89=EDGE_LOOP('',(#410,#411,#412,#413));
#90=EDGE_LOOP('',(#414,#415,#416,#417));
#91=EDGE_LOOP('',(#418,#419,#420,#421,#422,#423));
#92=EDGE_LOOP('',(#424,#425,#426,#427));
#93=EDGE_LOOP('',(#428,#429,#430,#431));
#94=EDGE_LOOP('',(#432,#433,#434,#435));
#95=LINE('',#624,#144);
#96=LINE('',#665,#145);
#97=LINE('',#672,#146);
#98=LINE('',#673,#147);
#99=LINE('',#676,#148);
#100=LINE('',#678,#149);
#101=LINE('',#680,#150);
#102=LINE('',#681,#151);
#103=LINE('',#743,#152);
#104=LINE('',#745,#153);
#105=LINE('',#746,#154);
#106=LINE('',#749,#155);
#107=LINE('',#750,#156);
#108=LINE('',#753,#157);
#109=LINE('',#755,#158);
#110=LINE('',#757,#159);
#111=LINE('',#759,#160);
#112=LINE('',#761,#161);
#113=LINE('',#763,#162);
#114=LINE('',#764,#163);
#115=LINE('',#769,#164);
#116=LINE('',#770,#165);
#117=LINE('',#773,#166);
#118=LINE('',#775,#167);
#119=LINE('',#776,#168);
#120=LINE('',#779,#169);
#121=LINE('',#780,#170);
#122=LINE('',#782,#171);
#123=LINE('',#785,#172);
#124=LINE('',#787,#173);
#125=LINE('',#788,#174);
#126=LINE('',#791,#175);
#127=LINE('',#796,#176);
#128=LINE('',#798,#177);
#129=LINE('',#800,#178);
#130=LINE('',#801,#179);
#131=LINE('',#804,#180);
#132=LINE('',#806,#181);
#133=LINE('',#807,#182);
#134=LINE('',#810,#183);
#135=LINE('',#812,#184);
#136=LINE('',#813,#185);
#137=LINE('',#815,#186);
#138=LINE('',#816,#187);
#139=LINE('',#819,#188);
#140=LINE('',#820,#189);
#141=LINE('',#822,#190);
#142=LINE('',#825,#191);
#143=LINE('',#827,#192);
#144=VECTOR('',#502,10.);
#145=VECTOR('',#503,10.);
#146=VECTOR('',#506,10.);
#147=VECTOR('',#507,10.);
#148=VECTOR('',#508,10.);
#149=VECTOR('',#509,10.);
#150=VECTOR('',#510,10.);
#151=VECTOR('',#511,10.);
#152=VECTOR('',#514,10.);
#153=VECTOR('',#515,10.);
#154=VECTOR('',#516,10.);
#155=VECTOR('',#519,10.);
#156=VECTOR('',#520,10.);
#157=VECTOR('',#523,10.);
#158=VECTOR('',#524,10.);
#159=VECTOR('',#525,10.);
#160=VECTOR('',#526,10.);
#161=VECTOR('',#527,10.);
#162=VECTOR('',#528,10.);
#163=VECTOR('',#529,10.);
#164=VECTOR('',#534,10.);
#165=VECTOR('',#535,10.);
#166=VECTOR('',#538,10.);
#167=VECTOR('',#539,10.);
#168=VECTOR('',#540,10.);
#169=VECTOR('',#543,10.);
#170=VECTOR('',#544,10.);
#171=VECTOR('',#547,10.);
#172=VECTOR('',#550,10.);
#173=VECTOR('',#551,10.);
#174=VECTOR('',#552,10.);
#175=VECTOR('',#555,6.);
#176=VECTOR('',#560,10.);
#177=VECTOR('',#561,10.);
#178=VECTOR('',#562,10.);
#179=VECTOR('',#563,10.);
#180=VECTOR('',#566,10.);
#181=VECTOR('',#567,10.);
#182=VECTOR('',#568,10.);
#183=VECTOR('',#571,10.);
#184=VECTOR('',#572,10.);
#185=VECTOR('',#573,10.);
#186=VECTOR('',#576,10.);
#187=VECTOR('',#577,10.);
#188=VECTOR('',#580,10.);
#189=VECTOR('',#581,10.);
#190=VECTOR('',#584,10.);
#191=VECTOR('',#589,10.);
#192=VECTOR('',#592,10.);
#193=B_SPLINE_CURVE_WITH_KNOTS('',3,(#614,#615,#616,#617),.UNSPECIFIED.,
 .F.,.F.,(4,4),(0.,0.490054851189604),.UNSPECIFIED.);
#194=B_SPLINE_CURVE_WITH_KNOTS('',3,(#619,#620,#621,#622),.UNSPECIFIED.,
 .F.,.F.,(4,4),(0.923373348632242,1.),.UNSPECIFIED.);
#195=B_SPLINE_CURVE_WITH_KNOTS('',3,(#626,#627,#628,#629),.UNSPECIFIED.,
 .F.,.F.,(4,4),(0.923373348632255,1.),.UNSPECIFIED.);
#196=B_SPLINE_CURVE_WITH_KNOTS('',3,(#631,#632,#633,#634),.UNSPECIFIED.,
 .F.,.F.,(4,4),(0.150855939715817,0.640910861727797),.UNSPECIFIED.);
#197=B_SPLINE_CURVE_WITH_KNOTS('',3,(#635,#636,#637,#638,#639,#640),
 .UNSPECIFIED.,.F.,.F.,(4,2,4),(0.00988821445648824,4.90988821445649,9.80988821445649),
 .UNSPECIFIED.);
#198=B_SPLINE_CURVE_WITH_KNOTS('',3,(#658,#659,#660,#661,#662,#663),
 .UNSPECIFIED.,.F.,.F.,(4,2,4),(0.,4.87375627599517,9.74751255199034),
 .UNSPECIFIED.);
#199=B_SPLINE_CURVE_WITH_KNOTS('',3,(#666,#667,#668,#669),.UNSPECIFIED.,
 .F.,.F.,(4,4),(0.923373348632255,1.),.UNSPECIFIED.);
#200=B_SPLINE_CURVE_WITH_KNOTS('',3,(#700,#701,#702,#703),.UNSPECIFIED.,
 .F.,.F.,(4,4),(0.150855939715789,0.640910861727786),.UNSPECIFIED.);
#201=B_SPLINE_CURVE_WITH_KNOTS('',3,(#705,#706,#707,#708,#709,#710),
 .UNSPECIFIED.,.F.,.F.,(4,2,4),(0.00988821445649065,4.90988821445649,9.80988821445649),
 .UNSPECIFIED.);
#202=B_SPLINE_CURVE_WITH_KNOTS('',3,(#711,#712,#713,#714),.UNSPECIFIED.,
 .F.,.F.,(4,4),(0.,0.490054851189659),.UNSPECIFIED.);
#203=B_SPLINE_CURVE_WITH_KNOTS('',3,(#715,#716,#717,#718),.UNSPECIFIED.,
 .F.,.F.,(4,4),(0.923373348632242,1.),.UNSPECIFIED.);
#204=B_SPLINE_CURVE_WITH_KNOTS('',3,(#735,#736,#737,#738,#739,#740),
 .UNSPECIFIED.,.F.,.F.,(4,2,4),(0.,4.87375627599517,9.74751255199034),
 .UNSPECIFIED.);
#205=VERTEX_POINT('',#612);
#206=VERTEX_POINT('',#613);
#207=VERTEX_POINT('',#618);
#208=VERTEX_POINT('',#623);
#209=VERTEX_POINT('',#625);
#210=VERTEX_POINT('',#630);
#211=VERTEX_POINT('',#657);
#212=VERTEX_POINT('',#664);
#213=VERTEX_POINT('',#671);
#214=VERTEX_POINT('',#674);
#215=VERTEX_POINT('',#675);
#216=VERTEX_POINT('',#677);
#217=VERTEX_POINT('',#679);
#218=VERTEX_POINT('',#698);
#219=VERTEX_POINT('',#699);
#220=VERTEX_POINT('',#704);
#221=VERTEX_POINT('',#742);
#222=VERTEX_POINT('',#744);
#223=VERTEX_POINT('',#748);
#224=VERTEX_POINT('',#752);
#225=VERTEX_POINT('',#754);
#226=VERTEX_POINT('',#756);
#227=VERTEX_POINT('',#758);
#228=VERTEX_POINT('',#760);
#229=VERTEX_POINT('',#762);
#230=VERTEX_POINT('',#765);
#231=VERTEX_POINT('',#768);
#232=VERTEX_POINT('',#772);
#233=VERTEX_POINT('',#774);
#234=VERTEX_POINT('',#778);
#235=VERTEX_POINT('',#784);
#236=VERTEX_POINT('',#786);
#237=VERTEX_POINT('',#790);
#238=VERTEX_POINT('',#794);
#239=VERTEX_POINT('',#795);
#240=VERTEX_POINT('',#797);
#241=VERTEX_POINT('',#799);
#242=VERTEX_POINT('',#803);
#243=VERTEX_POINT('',#805);
#244=VERTEX_POINT('',#809);
#245=VERTEX_POINT('',#811);
#246=VERTEX_POINT('',#818);
#247=EDGE_CURVE('',#205,#206,#193,.T.);
#248=EDGE_CURVE('',#205,#207,#194,.T.);
#249=EDGE_CURVE('',#207,#208,#95,.T.);
#250=EDGE_CURVE('',#209,#208,#195,.T.);
#251=EDGE_CURVE('',#210,#209,#196,.T.);
#252=EDGE_CURVE('',#206,#210,#197,.T.);
#253=EDGE_CURVE('',#209,#211,#198,.T.);
#254=EDGE_CURVE('',#208,#212,#96,.T.);
#255=EDGE_CURVE('',#211,#212,#199,.T.);
#256=EDGE_CURVE('',#213,#207,#97,.T.);
#257=EDGE_CURVE('',#212,#213,#98,.T.);
#258=EDGE_CURVE('',#214,#215,#99,.T.);
#259=EDGE_CURVE('',#216,#214,#100,.T.);
#260=EDGE_CURVE('',#217,#216,#101,.T.);
#261=EDGE_CURVE('',#215,#217,#102,.T.);
#262=EDGE_CURVE('',#218,#219,#200,.T.);
#263=EDGE_CURVE('',#220,#218,#201,.T.);
#264=EDGE_CURVE('',#211,#220,#202,.T.);
#265=EDGE_CURVE('',#219,#213,#203,.T.);
#266=EDGE_CURVE('',#219,#205,#204,.T.);
#267=EDGE_CURVE('',#216,#221,#103,.T.);
#268=EDGE_CURVE('',#221,#222,#104,.T.);
#269=EDGE_CURVE('',#217,#222,#105,.T.);
#270=EDGE_CURVE('',#214,#223,#106,.T.);
#271=EDGE_CURVE('',#223,#221,#107,.T.);
#272=EDGE_CURVE('',#210,#224,#108,.T.);
#273=EDGE_CURVE('',#224,#225,#109,.T.);
#274=EDGE_CURVE('',#225,#226,#110,.T.);
#275=EDGE_CURVE('',#227,#226,#111,.T.);
#276=EDGE_CURVE('',#227,#228,#112,.T.);
#277=EDGE_CURVE('',#229,#228,#113,.T.);
#278=EDGE_CURVE('',#206,#229,#114,.T.);
#279=EDGE_CURVE('',#230,#230,#16,.T.);
#280=EDGE_CURVE('',#220,#231,#115,.T.);
#281=EDGE_CURVE('',#231,#224,#116,.T.);
#282=EDGE_CURVE('',#227,#232,#117,.T.);
#283=EDGE_CURVE('',#226,#233,#118,.T.);
#284=EDGE_CURVE('',#233,#232,#119,.T.);
#285=EDGE_CURVE('',#225,#234,#120,.T.);
#286=EDGE_CURVE('',#234,#233,#121,.T.);
#287=EDGE_CURVE('',#234,#231,#122,.T.);
#288=EDGE_CURVE('',#218,#235,#123,.T.);
#289=EDGE_CURVE('',#236,#235,#124,.T.);
#290=EDGE_CURVE('',#232,#236,#125,.T.);
#291=EDGE_CURVE('',#230,#237,#126,.T.);
#292=EDGE_CURVE('',#237,#237,#17,.T.);
#293=EDGE_CURVE('',#238,#239,#127,.T.);
#294=EDGE_CURVE('',#238,#240,#128,.T.);
#295=EDGE_CURVE('',#241,#240,#129,.T.);
#296=EDGE_CURVE('',#239,#241,#130,.T.);
#297=EDGE_CURVE('',#242,#238,#131,.T.);
#298=EDGE_CURVE('',#242,#243,#132,.T.);
#299=EDGE_CURVE('',#240,#243,#133,.T.);
#300=EDGE_CURVE('',#244,#242,#134,.T.);
#301=EDGE_CURVE('',#244,#245,#135,.T.);
#302=EDGE_CURVE('',#243,#245,#136,.T.);
#303=EDGE_CURVE('',#239,#244,#137,.T.);
#304=EDGE_CURVE('',#245,#241,#138,.T.);
#305=EDGE_CURVE('',#246,#223,#139,.T.);
#306=EDGE_CURVE('',#222,#246,#140,.T.);
#307=EDGE_CURVE('',#215,#246,#141,.T.);
#308=EDGE_CURVE('',#235,#229,#142,.T.);
#309=EDGE_CURVE('',#228,#236,#143,.T.);
#310=ORIENTED_EDGE('',*,*,#247,.F.);
#311=ORIENTED_EDGE('',*,*,#248,.T.);
#312=ORIENTED_EDGE('',*,*,#249,.T.);
#313=ORIENTED_EDGE('',*,*,#250,.F.);
#314=ORIENTED_EDGE('',*,*,#251,.F.);
#315=ORIENTED_EDGE('',*,*,#252,.F.);
#316=ORIENTED_EDGE('',*,*,#253,.F.);
#317=ORIENTED_EDGE('',*,*,#250,.T.);
#318=ORIENTED_EDGE('',*,*,#254,.T.);
#319=ORIENTED_EDGE('',*,*,#255,.F.);
#320=ORIENTED_EDGE('',*,*,#249,.F.);
#321=ORIENTED_EDGE('',*,*,#256,.F.);
#322=ORIENTED_EDGE('',*,*,#257,.F.);
#323=ORIENTED_EDGE('',*,*,#254,.F.);
#324=ORIENTED_EDGE('',*,*,#258,.F.);
#325=ORIENTED_EDGE('',*,*,#259,.F.);
#326=ORIENTED_EDGE('',*,*,#260,.F.);
#327=ORIENTED_EDGE('',*,*,#261,.F.);
#328=ORIENTED_EDGE('',*,*,#262,.F.);
#329=ORIENTED_EDGE('',*,*,#263,.F.);
#330=ORIENTED_EDGE('',*,*,#264,.F.);
#331=ORIENTED_EDGE('',*,*,#255,.T.);
#332=ORIENTED_EDGE('',*,*,#257,.T.);
#333=ORIENTED_EDGE('',*,*,#265,.F.);
#334=ORIENTED_EDGE('',*,*,#266,.F.);
#335=ORIENTED_EDGE('',*,*,#265,.T.);
#336=ORIENTED_EDGE('',*,*,#256,.T.);
#337=ORIENTED_EDGE('',*,*,#248,.F.);
#338=ORIENTED_EDGE('',*,*,#260,.T.);
#339=ORIENTED_EDGE('',*,*,#267,.T.);
#340=ORIENTED_EDGE('',*,*,#268,.T.);
#341=ORIENTED_EDGE('',*,*,#269,.F.);
#342=ORIENTED_EDGE('',*,*,#259,.T.);
#343=ORIENTED_EDGE('',*,*,#270,.T.);
#344=ORIENTED_EDGE('',*,*,#271,.T.);
#345=ORIENTED_EDGE('',*,*,#267,.F.);
#346=ORIENTED_EDGE('',*,*,#252,.T.);
#347=ORIENTED_EDGE('',*,*,#272,.T.);
#348=ORIENTED_EDGE('',*,*,#273,.T.);
#349=ORIENTED_EDGE('',*,*,#274,.T.);
#350=ORIENTED_EDGE('',*,*,#275,.F.);
#351=ORIENTED_EDGE('',*,*,#276,.T.);
#352=ORIENTED_EDGE('',*,*,#277,.F.);
#353=ORIENTED_EDGE('',*,*,#278,.F.);
#354=ORIENTED_EDGE('',*,*,#279,.T.);
#355=ORIENTED_EDGE('',*,*,#251,.T.);
#356=ORIENTED_EDGE('',*,*,#253,.T.);
#357=ORIENTED_EDGE('',*,*,#264,.T.);
#358=ORIENTED_EDGE('',*,*,#280,.T.);
#359=ORIENTED_EDGE('',*,*,#281,.T.);
#360=ORIENTED_EDGE('',*,*,#272,.F.);
#361=ORIENTED_EDGE('',*,*,#282,.F.);
#362=ORIENTED_EDGE('',*,*,#275,.T.);
#363=ORIENTED_EDGE('',*,*,#283,.T.);
#364=ORIENTED_EDGE('',*,*,#284,.T.);
#365=ORIENTED_EDGE('',*,*,#285,.T.);
#366=ORIENTED_EDGE('',*,*,#286,.T.);
#367=ORIENTED_EDGE('',*,*,#283,.F.);
#368=ORIENTED_EDGE('',*,*,#274,.F.);
#369=ORIENTED_EDGE('',*,*,#281,.F.);
#370=ORIENTED_EDGE('',*,*,#287,.F.);
#371=ORIENTED_EDGE('',*,*,#285,.F.);
#372=ORIENTED_EDGE('',*,*,#273,.F.);
#373=ORIENTED_EDGE('',*,*,#263,.T.);
#374=ORIENTED_EDGE('',*,*,#288,.T.);
#375=ORIENTED_EDGE('',*,*,#289,.F.);
#376=ORIENTED_EDGE('',*,*,#290,.F.);
#377=ORIENTED_EDGE('',*,*,#284,.F.);
#378=ORIENTED_EDGE('',*,*,#286,.F.);
#379=ORIENTED_EDGE('',*,*,#287,.T.);
#380=ORIENTED_EDGE('',*,*,#280,.F.);
#381=ORIENTED_EDGE('',*,*,#279,.F.);
#382=ORIENTED_EDGE('',*,*,#291,.T.);
#383=ORIENTED_EDGE('',*,*,#292,.F.);
#384=ORIENTED_EDGE('',*,*,#291,.F.);
#385=ORIENTED_EDGE('',*,*,#293,.F.);
#386=ORIENTED_EDGE('',*,*,#294,.T.);
#387=ORIENTED_EDGE('',*,*,#295,.F.);
#388=ORIENTED_EDGE('',*,*,#296,.F.);
#389=ORIENTED_EDGE('',*,*,#297,.F.);
#390=ORIENTED_EDGE('',*,*,#298,.T.);
#391=ORIENTED_EDGE('',*,*,#299,.F.);
#392=ORIENTED_EDGE('',*,*,#294,.F.);
#393=ORIENTED_EDGE('',*,*,#300,.F.);
#394=ORIENTED_EDGE('',*,*,#301,.T.);
#395=ORIENTED_EDGE('',*,*,#302,.F.);
#396=ORIENTED_EDGE('',*,*,#298,.F.);
#397=ORIENTED_EDGE('',*,*,#303,.F.);
#398=ORIENTED_EDGE('',*,*,#296,.T.);
#399=ORIENTED_EDGE('',*,*,#304,.F.);
#400=ORIENTED_EDGE('',*,*,#301,.F.);
#401=ORIENTED_EDGE('',*,*,#292,.T.);
#402=ORIENTED_EDGE('',*,*,#303,.T.);
#403=ORIENTED_EDGE('',*,*,#300,.T.);
#404=ORIENTED_EDGE('',*,*,#297,.T.);
#405=ORIENTED_EDGE('',*,*,#293,.T.);
#406=ORIENTED_EDGE('',*,*,#305,.F.);
#407=ORIENTED_EDGE('',*,*,#306,.F.);
#408=ORIENTED_EDGE('',*,*,#268,.F.);
#409=ORIENTED_EDGE('',*,*,#271,.F.);
#410=ORIENTED_EDGE('',*,*,#258,.T.);
#411=ORIENTED_EDGE('',*,*,#307,.T.);
#412=ORIENTED_EDGE('',*,*,#305,.T.);
#413=ORIENTED_EDGE('',*,*,#270,.F.);
#414=ORIENTED_EDGE('',*,*,#261,.T.);
#415=ORIENTED_EDGE('',*,*,#269,.T.);
#416=ORIENTED_EDGE('',*,*,#306,.T.);
#417=ORIENTED_EDGE('',*,*,#307,.F.);
#418=ORIENTED_EDGE('',*,*,#247,.T.);
#419=ORIENTED_EDGE('',*,*,#278,.T.);
#420=ORIENTED_EDGE('',*,*,#308,.F.);
#421=ORIENTED_EDGE('',*,*,#288,.F.);
#422=ORIENTED_EDGE('',*,*,#262,.T.);
#423=ORIENTED_EDGE('',*,*,#266,.T.);
#424=ORIENTED_EDGE('',*,*,#282,.T.);
#425=ORIENTED_EDGE('',*,*,#290,.T.);
#426=ORIENTED_EDGE('',*,*,#309,.F.);
#427=ORIENTED_EDGE('',*,*,#276,.F.);
#428=ORIENTED_EDGE('',*,*,#277,.T.);
#429=ORIENTED_EDGE('',*,*,#309,.T.);
#430=ORIENTED_EDGE('',*,*,#289,.T.);
#431=ORIENTED_EDGE('',*,*,#308,.T.);
#432=ORIENTED_EDGE('',*,*,#295,.T.);
#433=ORIENTED_EDGE('',*,*,#299,.T.);
#434=ORIENTED_EDGE('',*,*,#302,.T.);
#435=ORIENTED_EDGE('',*,*,#304,.T.);
#436=B_SPLINE_SURFACE_WITH_KNOTS('',3,3,((#596,#597,#598,#599),(#600,#601,
#602,#603),(#604,#605,#606,#607),(#608,#609,#610,#611)),.UNSPECIFIED.,.F.,
 .F.,.F.,(4,4),(4,4),(0.,1.),(0.831139694361713,1.),.UNSPECIFIED.);
#437=B_SPLINE_SURFACE_WITH_KNOTS('',3,3,((#641,#642,#643,#644),(#645,#646,
#647,#648),(#649,#650,#651,#652),(#653,#654,#655,#656)),.UNSPECIFIED.,.F.,
 .F.,.F.,(4,4),(4,4),(0.,1.),(0.923373348632255,1.),.UNSPECIFIED.);
#438=B_SPLINE_SURFACE_WITH_KNOTS('',3,3,((#682,#683,#684,#685),(#686,#687,
#688,#689),(#690,#691,#692,#693),(#694,#695,#696,#697)),.UNSPECIFIED.,.F.,
 .F.,.F.,(4,4),(4,4),(0.,1.),(0.831139694361705,1.),.UNSPECIFIED.);
#439=B_SPLINE_SURFACE_WITH_KNOTS('',3,3,((#719,#720,#721,#722),(#723,#724,
#725,#726),(#727,#728,#729,#730),(#731,#732,#733,#734)),.UNSPECIFIED.,.F.,
 .F.,.F.,(4,4),(4,4),(0.,1.),(0.923373348632242,1.),.UNSPECIFIED.);
#440=ADVANCED_FACE('',(#42),#436,.F.);
#441=ADVANCED_FACE('',(#43),#437,.F.);
#442=ADVANCED_FACE('',(#44,#18),#23,.F.);
#443=ADVANCED_FACE('',(#45),#438,.F.);
#444=ADVANCED_FACE('',(#46),#439,.F.);
#445=ADVANCED_FACE('',(#47),#24,.F.);
#446=ADVANCED_FACE('',(#48),#25,.F.);
#447=ADVANCED_FACE('',(#49,#19),#26,.T.);
#448=ADVANCED_FACE('',(#50),#27,.T.);
#449=ADVANCED_FACE('',(#51),#28,.T.);
#450=ADVANCED_FACE('',(#52),#29,.T.);
#451=ADVANCED_FACE('',(#53),#30,.F.);
#452=ADVANCED_FACE('',(#54),#31,.T.);
#453=ADVANCED_FACE('',(#55),#15,.F.);
#454=ADVANCED_FACE('',(#56),#32,.F.);
#455=ADVANCED_FACE('',(#57),#33,.F.);
#456=ADVANCED_FACE('',(#58),#34,.F.);
#457=ADVANCED_FACE('',(#59,#20),#35,.F.);
#458=ADVANCED_FACE('',(#60,#21),#36,.T.);
#459=ADVANCED_FACE('',(#61),#37,.F.);
#460=ADVANCED_FACE('',(#62),#38,.F.);
#461=ADVANCED_FACE('',(#63),#39,.T.);
#462=ADVANCED_FACE('',(#64),#40,.T.);
#463=ADVANCED_FACE('',(#65,#22),#41,.T.);
#464=CLOSED_SHELL('',(#440,#441,#442,#443,#444,#445,#446,#447,#448,#449,
#450,#451,#452,#453,#454,#455,#456,#457,#458,#459,#460,#461,#462,#463));
#465=DERIVED_UNIT_ELEMENT(#467,1.);
#466=DERIVED_UNIT_ELEMENT(#834,-3.);
#467=(
MASS_UNIT()
NAMED_UNIT(*)
SI_UNIT(.KILO.,.GRAM.)
);
#468=DERIVED_UNIT((#465,#466));
#469=MEASURE_REPRESENTATION_ITEM('density measure',
POSITIVE_RATIO_MEASURE(7850.),#468);
#470=PROPERTY_DEFINITION_REPRESENTATION(#475,#472);
#471=PROPERTY_DEFINITION_REPRESENTATION(#476,#473);
#472=REPRESENTATION('material name',(#474),#831);
#473=REPRESENTATION('density',(#469),#831);
#474=DESCRIPTIVE_REPRESENTATION_ITEM('Steel','Steel');
#475=PROPERTY_DEFINITION('material property','material name',#841);
#476=PROPERTY_DEFINITION('material property','density of part',#841);
#477=AXIS2_PLACEMENT_3D('',#595,#500,#501);
#478=AXIS2_PLACEMENT_3D('',#670,#504,#505);
#479=AXIS2_PLACEMENT_3D('',#741,#512,#513);
#480=AXIS2_PLACEMENT_3D('',#747,#517,#518);
#481=AXIS2_PLACEMENT_3D('',#751,#521,#522);
#482=AXIS2_PLACEMENT_3D('',#766,#530,#531);
#483=AXIS2_PLACEMENT_3D('',#767,#532,#533);
#484=AXIS2_PLACEMENT_3D('',#771,#536,#537);
#485=AXIS2_PLACEMENT_3D('',#777,#541,#542);
#486=AXIS2_PLACEMENT_3D('',#781,#545,#546);
#487=AXIS2_PLACEMENT_3D('',#783,#548,#549);
#488=AXIS2_PLACEMENT_3D('',#789,#553,#554);
#489=AXIS2_PLACEMENT_3D('',#792,#556,#557);
#490=AXIS2_PLACEMENT_3D('',#793,#558,#559);
#491=AXIS2_PLACEMENT_3D('',#802,#564,#565);
#492=AXIS2_PLACEMENT_3D('',#808,#569,#570);
#493=AXIS2_PLACEMENT_3D('',#814,#574,#575);
#494=AXIS2_PLACEMENT_3D('',#817,#578,#579);
#495=AXIS2_PLACEMENT_3D('',#821,#582,#583);
#496=AXIS2_PLACEMENT_3D('',#823,#585,#586);
#497=AXIS2_PLACEMENT_3D('',#824,#587,#588);
#498=AXIS2_PLACEMENT_3D('',#826,#590,#591);
#499=AXIS2_PLACEMENT_3D('',#828,#593,#594);
#500=DIRECTION('axis',(0.,0.,1.));
#501=DIRECTION('refdir',(1.,0.,0.));
#502=DIRECTION('',(0.,-1.,0.));
#503=DIRECTION('',(1.,0.,0.));
#504=DIRECTION('center_axis',(0.,0.,1.));
#505=DIRECTION('ref_axis',(1.,0.,0.));
#506=DIRECTION('',(-1.,0.,0.));
#507=DIRECTION('',(0.,1.,0.));
#508=DIRECTION('',(1.,0.,0.));
#509=DIRECTION('',(0.,1.,0.));
#510=DIRECTION('',(-1.,0.,0.));
#511=DIRECTION('',(0.,-1.,0.));
#512=DIRECTION('center_axis',(0.,-1.,0.));
#513=DIRECTION('ref_axis',(1.,0.,0.));
#514=DIRECTION('',(0.,0.,1.));
#515=DIRECTION('',(1.,0.,0.));
#516=DIRECTION('',(0.,0.,1.));
#517=DIRECTION('center_axis',(-1.,0.,0.));
#518=DIRECTION('ref_axis',(0.,-1.,0.));
#519=DIRECTION('',(0.,0.,1.));
#520=DIRECTION('',(0.,-1.,0.));
#521=DIRECTION('center_axis',(-1.,0.,0.));
#522=DIRECTION('ref_axis',(0.,-1.,0.));
#523=DIRECTION('',(0.,0.,1.));
#524=DIRECTION('',(0.,-1.,0.));
#525=DIRECTION('',(0.,0.,1.));
#526=DIRECTION('',(0.,-1.,0.));
#527=DIRECTION('',(0.,0.,1.));
#528=DIRECTION('',(0.,-1.,0.));
#529=DIRECTION('',(0.,0.,1.));
#530=DIRECTION('center_axis',(1.,0.,0.));
#531=DIRECTION('ref_axis',(0.,0.,-1.));
#532=DIRECTION('center_axis',(0.,-1.,0.));
#533=DIRECTION('ref_axis',(1.,0.,0.));
#534=DIRECTION('',(0.,0.,1.));
#535=DIRECTION('',(-1.,0.,0.));
#536=DIRECTION('center_axis',(0.,0.,1.));
#537=DIRECTION('ref_axis',(1.,0.,0.));
#538=DIRECTION('',(1.,0.,0.));
#539=DIRECTION('',(1.,0.,0.));
#540=DIRECTION('',(0.,1.,0.));
#541=DIRECTION('center_axis',(0.,-1.,0.));
#542=DIRECTION('ref_axis',(1.,0.,0.));
#543=DIRECTION('',(1.,0.,0.));
#544=DIRECTION('',(0.,0.,1.));
#545=DIRECTION('center_axis',(0.,0.,1.));
#546=DIRECTION('ref_axis',(1.,0.,0.));
#547=DIRECTION('',(0.,1.,0.));
#548=DIRECTION('center_axis',(1.,0.,0.));
#549=DIRECTION('ref_axis',(0.,1.,0.));
#550=DIRECTION('',(0.,0.,1.));
#551=DIRECTION('',(0.,1.,0.));
#552=DIRECTION('',(0.,0.,1.));
#553=DIRECTION('center_axis',(1.,0.,0.));
#554=DIRECTION('ref_axis',(0.,0.,-1.));
#555=DIRECTION('',(1.,0.,0.));
#556=DIRECTION('center_axis',(-1.,0.,0.));
#557=DIRECTION('ref_axis',(0.,0.,-1.));
#558=DIRECTION('center_axis',(0.,1.,0.));
#559=DIRECTION('ref_axis',(-1.,0.,0.));
#560=DIRECTION('',(-1.,0.,0.));
#561=DIRECTION('',(0.,0.,1.));
#562=DIRECTION('',(1.,0.,0.));
#563=DIRECTION('',(0.,0.,1.));
#564=DIRECTION('center_axis',(1.,0.,0.));
#565=DIRECTION('ref_axis',(0.,1.,0.));
#566=DIRECTION('',(0.,1.,0.));
#567=DIRECTION('',(0.,0.,1.));
#568=DIRECTION('',(0.,-1.,0.));
#569=DIRECTION('center_axis',(0.,-1.,0.));
#570=DIRECTION('ref_axis',(1.,0.,0.));
#571=DIRECTION('',(1.,0.,0.));
#572=DIRECTION('',(0.,0.,1.));
#573=DIRECTION('',(-1.,0.,0.));
#574=DIRECTION('center_axis',(-1.,0.,0.));
#575=DIRECTION('ref_axis',(0.,-1.,0.));
#576=DIRECTION('',(0.,-1.,0.));
#577=DIRECTION('',(0.,1.,0.));
#578=DIRECTION('center_axis',(0.,0.,1.));
#579=DIRECTION('ref_axis',(1.,0.,0.));
#580=DIRECTION('',(-1.,0.,0.));
#581=DIRECTION('',(0.,1.,0.));
#582=DIRECTION('center_axis',(0.,1.,0.));
#583=DIRECTION('ref_axis',(-1.,0.,0.));
#584=DIRECTION('',(0.,0.,1.));
#585=DIRECTION('center_axis',(1.,0.,0.));
#586=DIRECTION('ref_axis',(0.,1.,0.));
#587=DIRECTION('center_axis',(0.,1.,0.));
#588=DIRECTION('ref_axis',(-1.,0.,0.));
#589=DIRECTION('',(-1.,0.,0.));
#590=DIRECTION('center_axis',(0.,-1.,0.));
#591=DIRECTION('ref_axis',(1.,0.,0.));
#592=DIRECTION('',(1.,0.,0.));
#593=DIRECTION('center_axis',(0.,0.,1.));
#594=DIRECTION('ref_axis',(1.,0.,0.));
#595=CARTESIAN_POINT('',(0.,0.,0.));
#596=CARTESIAN_POINT('Ctrl Pts',(-5.72458747072346E-16,98.0988821445649,
0.999714721601609));
#597=CARTESIAN_POINT('Ctrl Pts',(0.272686166760352,98.0858223954573,3.96207015700946));
#598=CARTESIAN_POINT('Ctrl Pts',(0.33935283342702,97.9861950139356,6.96216524980892));
#599=CARTESIAN_POINT('Ctrl Pts',(0.200000000000003,97.8,10.));
#600=CARTESIAN_POINT('Ctrl Pts',(-5.72458747072346E-16,65.3662940481883,
0.999714721601609));
#601=CARTESIAN_POINT('Ctrl Pts',(0.272686166760352,65.3619407984857,3.96207015700946));
#602=CARTESIAN_POINT('Ctrl Pts',(0.33935283342702,65.3287316713119,6.96216524980893));
#603=CARTESIAN_POINT('Ctrl Pts',(0.200000000000003,65.2666666666667,10.));
#604=CARTESIAN_POINT('Ctrl Pts',(-5.72458747072346E-16,32.6337059518117,
0.999714721601609));
#605=CARTESIAN_POINT('Ctrl Pts',(0.272686166760352,32.6380592015142,3.96207015700946));
#606=CARTESIAN_POINT('Ctrl Pts',(0.33935283342702,32.6712683286881,6.96216524980892));
#607=CARTESIAN_POINT('Ctrl Pts',(0.200000000000003,32.7333333333333,10.));
#608=CARTESIAN_POINT('Ctrl Pts',(-5.72458747072346E-16,-0.0988821445648889,
0.999714721601609));
#609=CARTESIAN_POINT('Ctrl Pts',(0.272686166760352,-0.0858223954572588,
3.96207015700946));
#610=CARTESIAN_POINT('Ctrl Pts',(0.33935283342702,0.0138049860643576,6.96216524980892));
#611=CARTESIAN_POINT('Ctrl Pts',(0.200000000000003,0.19999999999996,10.));
#612=CARTESIAN_POINT('',(0.262437240048248,98.,5.88772246980246));
#613=CARTESIAN_POINT('',(0.,98.,0.999714721601615));
#614=CARTESIAN_POINT('Ctrl Pts',(0.262437240048269,98.,5.88772246980292));
#615=CARTESIAN_POINT('Ctrl Pts',(0.236539250733164,98.,4.25441160720948));
#616=CARTESIAN_POINT('Ctrl Pts',(0.149604548983386,98.,2.62495979401543));
#617=CARTESIAN_POINT('Ctrl Pts',(-3.46944695195361E-17,98.,0.999714721601615));
#618=CARTESIAN_POINT('',(0.19999999999996,97.8,10.));
#619=CARTESIAN_POINT('Ctrl Pts',(0.262437240048248,98.,5.88772246980246));
#620=CARTESIAN_POINT('Ctrl Pts',(0.284048950460701,97.9511595873997,7.25071018851676));
#621=CARTESIAN_POINT('Ctrl Pts',(0.263236537111272,97.8844929207331,8.62146936524927));
#622=CARTESIAN_POINT('Ctrl Pts',(0.19999999999996,97.8,10.));
#623=CARTESIAN_POINT('',(0.200000000000003,0.200000000000003,10.));
#624=CARTESIAN_POINT('',(0.200000000000003,97.8,10.));
#625=CARTESIAN_POINT('',(0.262437240048273,-1.0842021724855E-17,5.88772246980316));
#626=CARTESIAN_POINT('Ctrl Pts',(0.262437240048273,-2.16840434497101E-17,
5.88772246980316));
#627=CARTESIAN_POINT('Ctrl Pts',(0.284048950460717,0.0488404126002668,7.25071018851722));
#628=CARTESIAN_POINT('Ctrl Pts',(0.263236537111293,0.115507079266934,8.6214693652495));
#629=CARTESIAN_POINT('Ctrl Pts',(0.200000000000003,0.200000000000003,10.));
#630=CARTESIAN_POINT('',(0.,0.,0.999714721601615));
#631=CARTESIAN_POINT('Ctrl Pts',(1.04083408558608E-16,-1.83514156754583E-15,
0.999714721601616));
#632=CARTESIAN_POINT('Ctrl Pts',(0.149604548983405,-1.83489145167248E-15,
2.62495979401564));
#633=CARTESIAN_POINT('Ctrl Pts',(0.236539250733186,-1.84442208340571E-15,
4.2544116072099));
#634=CARTESIAN_POINT('Ctrl Pts',(0.262437240048279,-1.83436217417839E-15,
5.88772246980354));
#635=CARTESIAN_POINT('Ctrl Pts',(0.,98.,0.999714721601615));
#636=CARTESIAN_POINT('Ctrl Pts',(0.,81.6666666666667,0.999714721601615));
#637=CARTESIAN_POINT('Ctrl Pts',(-3.46944695195361E-17,65.3333333333333,
0.999714721601615));
#638=CARTESIAN_POINT('Ctrl Pts',(-3.46944695195361E-17,32.6666666666667,
0.999714721601615));
#639=CARTESIAN_POINT('Ctrl Pts',(0.,16.3333333333333,0.999714721601615));
#640=CARTESIAN_POINT('Ctrl Pts',(0.,0.,0.999714721601615));
#641=CARTESIAN_POINT('Ctrl Pts',(0.262437240048273,-3.46944695195361E-17,
5.88772246980316));
#642=CARTESIAN_POINT('Ctrl Pts',(0.284048950460717,0.0488404126002667,7.25071018851722));
#643=CARTESIAN_POINT('Ctrl Pts',(0.263236537111294,0.115507079266934,8.6214693652495));
#644=CARTESIAN_POINT('Ctrl Pts',(0.200000000000003,0.200000000000003,10.));
#645=CARTESIAN_POINT('Ctrl Pts',(32.7541457466828,-3.46944695195361E-17,
5.88772246980316));
#646=CARTESIAN_POINT('Ctrl Pts',(32.7613496501536,0.0488404126002667,7.25071018851722));
#647=CARTESIAN_POINT('Ctrl Pts',(32.7544121790371,0.115507079266934,8.6214693652495));
#648=CARTESIAN_POINT('Ctrl Pts',(32.7333333333333,0.200000000000003,10.));
#649=CARTESIAN_POINT('Ctrl Pts',(65.2458542533172,-3.46944695195361E-17,
5.88772246980316));
#650=CARTESIAN_POINT('Ctrl Pts',(65.2386503498464,0.0488404126002668,7.25071018851722));
#651=CARTESIAN_POINT('Ctrl Pts',(65.2455878209629,0.115507079266934,8.6214693652495));
#652=CARTESIAN_POINT('Ctrl Pts',(65.2666666666667,0.200000000000003,10.));
#653=CARTESIAN_POINT('Ctrl Pts',(97.7375627599517,-3.46944695195361E-17,
5.88772246980316));
#654=CARTESIAN_POINT('Ctrl Pts',(97.7159510495393,0.0488404126002667,7.25071018851722));
#655=CARTESIAN_POINT('Ctrl Pts',(97.7367634628887,0.115507079266934,8.6214693652495));
#656=CARTESIAN_POINT('Ctrl Pts',(97.8,0.200000000000003,10.));
#657=CARTESIAN_POINT('',(97.7375627599517,-1.0842021724855E-17,5.88772246980316));
#658=CARTESIAN_POINT('Ctrl Pts',(0.262437240048273,-3.46944695195361E-17,
5.88772246980316));
#659=CARTESIAN_POINT('Ctrl Pts',(16.5082914933655,-3.46944695195361E-17,
5.88772246980316));
#660=CARTESIAN_POINT('Ctrl Pts',(32.7541457466828,-3.46944695195361E-17,
5.88772246980316));
#661=CARTESIAN_POINT('Ctrl Pts',(65.2458542533172,-3.46944695195361E-17,
5.88772246980316));
#662=CARTESIAN_POINT('Ctrl Pts',(81.4917085066345,-3.46944695195361E-17,
5.88772246980316));
#663=CARTESIAN_POINT('Ctrl Pts',(97.7375627599517,-3.46944695195361E-17,
5.88772246980316));
#664=CARTESIAN_POINT('',(97.8,0.200000000000003,10.));
#665=CARTESIAN_POINT('',(0.200000000000003,0.200000000000003,10.));
#666=CARTESIAN_POINT('Ctrl Pts',(97.7375627599517,-2.16840434497101E-17,
5.88772246980316));
#667=CARTESIAN_POINT('Ctrl Pts',(97.7159510495393,0.0488404126002668,7.25071018851722));
#668=CARTESIAN_POINT('Ctrl Pts',(97.7367634628887,0.115507079266934,8.6214693652495));
#669=CARTESIAN_POINT('Ctrl Pts',(97.8,0.200000000000003,10.));
#670=CARTESIAN_POINT('Origin',(49.,49.,10.));
#671=CARTESIAN_POINT('',(97.8,97.8,10.));
#672=CARTESIAN_POINT('',(97.8,97.8,10.));
#673=CARTESIAN_POINT('',(97.8,0.200000000000003,10.));
#674=CARTESIAN_POINT('',(2.5,95.5,10.));
#675=CARTESIAN_POINT('',(95.5,95.5,10.));
#676=CARTESIAN_POINT('',(72.25,95.5,10.));
#677=CARTESIAN_POINT('',(2.5,2.5,10.));
#678=CARTESIAN_POINT('',(2.5,72.25,10.));
#679=CARTESIAN_POINT('',(95.5,2.5,10.));
#680=CARTESIAN_POINT('',(25.75,2.5,10.));
#681=CARTESIAN_POINT('',(95.5,25.75,10.));
#682=CARTESIAN_POINT('Ctrl Pts',(98.,-0.0988821445649065,0.999714721601235));
#683=CARTESIAN_POINT('Ctrl Pts',(97.7273138332396,-0.0858223954572669,3.96207015700921));
#684=CARTESIAN_POINT('Ctrl Pts',(97.660647166573,0.0138049860643696,6.9621652498088));
#685=CARTESIAN_POINT('Ctrl Pts',(97.8,0.200000000000003,10.));
#686=CARTESIAN_POINT('Ctrl Pts',(98.,32.6337059518117,0.999714721601235));
#687=CARTESIAN_POINT('Ctrl Pts',(97.7273138332396,32.6380592015142,3.96207015700921));
#688=CARTESIAN_POINT('Ctrl Pts',(97.660647166573,32.6712683286881,6.9621652498088));
#689=CARTESIAN_POINT('Ctrl Pts',(97.8,32.7333333333333,10.));
#690=CARTESIAN_POINT('Ctrl Pts',(98.,65.3662940481883,0.999714721601235));
#691=CARTESIAN_POINT('Ctrl Pts',(97.7273138332396,65.3619407984857,3.96207015700921));
#692=CARTESIAN_POINT('Ctrl Pts',(97.660647166573,65.3287316713119,6.96216524980879));
#693=CARTESIAN_POINT('Ctrl Pts',(97.8,65.2666666666667,10.));
#694=CARTESIAN_POINT('Ctrl Pts',(98.,98.0988821445649,0.999714721601235));
#695=CARTESIAN_POINT('Ctrl Pts',(97.7273138332396,98.0858223954573,3.96207015700921));
#696=CARTESIAN_POINT('Ctrl Pts',(97.660647166573,97.9861950139356,6.9621652498088));
#697=CARTESIAN_POINT('Ctrl Pts',(97.8,97.8,10.));
#698=CARTESIAN_POINT('',(98.,98.,0.999714721601346));
#699=CARTESIAN_POINT('',(97.7375627599517,98.,5.88772246980246));
#700=CARTESIAN_POINT('Ctrl Pts',(98.,98.,0.999714721601347));
#701=CARTESIAN_POINT('Ctrl Pts',(97.8503954510166,98.,2.62495979401541));
#702=CARTESIAN_POINT('Ctrl Pts',(97.7634607492668,98.,4.25441160720966));
#703=CARTESIAN_POINT('Ctrl Pts',(97.7375627599517,98.,5.88772246980305));
#704=CARTESIAN_POINT('',(98.,0.,0.999714721601346));
#705=CARTESIAN_POINT('Ctrl Pts',(98.,0.,0.999714721601346));
#706=CARTESIAN_POINT('Ctrl Pts',(98.,16.3333333333333,0.999714721601346));
#707=CARTESIAN_POINT('Ctrl Pts',(98.,32.6666666666667,0.999714721601235));
#708=CARTESIAN_POINT('Ctrl Pts',(98.,65.3333333333333,0.999714721601235));
#709=CARTESIAN_POINT('Ctrl Pts',(98.,81.6666666666667,0.999714721601346));
#710=CARTESIAN_POINT('Ctrl Pts',(98.,98.,0.999714721601346));
#711=CARTESIAN_POINT('Ctrl Pts',(97.7375627599517,3.7898571379606E-19,5.88772246980316));
#712=CARTESIAN_POINT('Ctrl Pts',(97.7634607492668,-5.26973919672224E-19,
4.25441160720954));
#713=CARTESIAN_POINT('Ctrl Pts',(97.8503954510166,7.64431931546911E-19,
2.62495979401532));
#714=CARTESIAN_POINT('Ctrl Pts',(98.,8.10608068893178E-19,0.999714721601347));
#715=CARTESIAN_POINT('Ctrl Pts',(97.7375627599517,98.,5.88772246980246));
#716=CARTESIAN_POINT('Ctrl Pts',(97.7159510495393,97.9511595873997,7.25071018851676));
#717=CARTESIAN_POINT('Ctrl Pts',(97.7367634628887,97.8844929207331,8.62146936524927));
#718=CARTESIAN_POINT('Ctrl Pts',(97.8,97.8,10.));
#719=CARTESIAN_POINT('Ctrl Pts',(97.7375627599517,98.,5.88772246980246));
#720=CARTESIAN_POINT('Ctrl Pts',(97.7159510495392,97.9511595873997,7.25071018851675));
#721=CARTESIAN_POINT('Ctrl Pts',(97.7367634628887,97.8844929207331,8.62146936524927));
#722=CARTESIAN_POINT('Ctrl Pts',(97.8,97.8,10.));
#723=CARTESIAN_POINT('Ctrl Pts',(65.2458542533172,98.,5.88772246980246));
#724=CARTESIAN_POINT('Ctrl Pts',(65.2386503498464,97.9511595873997,7.25071018851675));
#725=CARTESIAN_POINT('Ctrl Pts',(65.2455878209629,97.8844929207331,8.62146936524927));
#726=CARTESIAN_POINT('Ctrl Pts',(65.2666666666667,97.8,10.));
#727=CARTESIAN_POINT('Ctrl Pts',(32.7541457466827,98.,5.88772246980246));
#728=CARTESIAN_POINT('Ctrl Pts',(32.7613496501536,97.9511595873997,7.25071018851676));
#729=CARTESIAN_POINT('Ctrl Pts',(32.7544121790371,97.8844929207331,8.62146936524926));
#730=CARTESIAN_POINT('Ctrl Pts',(32.7333333333333,97.8,10.));
#731=CARTESIAN_POINT('Ctrl Pts',(0.262437240048248,98.,5.88772246980246));
#732=CARTESIAN_POINT('Ctrl Pts',(0.284048950460701,97.9511595873997,7.25071018851675));
#733=CARTESIAN_POINT('Ctrl Pts',(0.263236537111272,97.8844929207331,8.62146936524927));
#734=CARTESIAN_POINT('Ctrl Pts',(0.19999999999996,97.8,10.));
#735=CARTESIAN_POINT('Ctrl Pts',(97.7375627599517,98.,5.88772246980292));
#736=CARTESIAN_POINT('Ctrl Pts',(81.4917085066345,98.,5.88772246980292));
#737=CARTESIAN_POINT('Ctrl Pts',(65.2458542533172,98.,5.88772246980292));
#738=CARTESIAN_POINT('Ctrl Pts',(32.7541457466827,98.,5.88772246980292));
#739=CARTESIAN_POINT('Ctrl Pts',(16.5082914933655,98.,5.88772246980292));
#740=CARTESIAN_POINT('Ctrl Pts',(0.262437240048256,98.,5.88772246980292));
#741=CARTESIAN_POINT('Origin',(2.5,2.5,7.));
#742=CARTESIAN_POINT('',(2.5,2.5,12.5));
#743=CARTESIAN_POINT('',(2.5,2.5,7.));
#744=CARTESIAN_POINT('',(95.5,2.5,12.5));
#745=CARTESIAN_POINT('',(2.5,2.5,12.5));
#746=CARTESIAN_POINT('',(95.5,2.5,7.));
#747=CARTESIAN_POINT('Origin',(2.5,95.5,7.));
#748=CARTESIAN_POINT('',(2.5,95.5,12.5));
#749=CARTESIAN_POINT('',(2.5,95.5,7.));
#750=CARTESIAN_POINT('',(2.5,95.5,12.5));
#751=CARTESIAN_POINT('Origin',(0.,98.,0.));
#752=CARTESIAN_POINT('',(0.,0.,10.));
#753=CARTESIAN_POINT('',(0.,0.,0.));
#754=CARTESIAN_POINT('',(0.,-12.,10.));
#755=CARTESIAN_POINT('',(0.,0.3,10.));
#756=CARTESIAN_POINT('',(0.,-12.,25.));
#757=CARTESIAN_POINT('',(0.,-12.,10.));
#758=CARTESIAN_POINT('',(0.,0.,25.));
#759=CARTESIAN_POINT('',(0.,0.3,25.));
#760=CARTESIAN_POINT('',(0.,0.,35.));
#761=CARTESIAN_POINT('',(0.,0.,0.));
#762=CARTESIAN_POINT('',(0.,98.,35.));
#763=CARTESIAN_POINT('',(0.,98.,35.));
#764=CARTESIAN_POINT('',(0.,98.,0.));
#765=CARTESIAN_POINT('',(0.,20.,31.));
#766=CARTESIAN_POINT('Origin',(0.,20.,25.));
#767=CARTESIAN_POINT('Origin',(0.,0.,0.));
#768=CARTESIAN_POINT('',(98.,0.,10.));
#769=CARTESIAN_POINT('',(98.,0.,0.));
#770=CARTESIAN_POINT('',(24.5,0.,10.));
#771=CARTESIAN_POINT('Origin',(49.,-5.85,25.));
#772=CARTESIAN_POINT('',(98.,0.,25.));
#773=CARTESIAN_POINT('',(24.5,0.,25.));
#774=CARTESIAN_POINT('',(98.,-12.,25.));
#775=CARTESIAN_POINT('',(0.,-12.,25.));
#776=CARTESIAN_POINT('',(98.,-12.,25.));
#777=CARTESIAN_POINT('Origin',(0.,-12.,10.));
#778=CARTESIAN_POINT('',(98.,-12.,10.));
#779=CARTESIAN_POINT('',(0.,-12.,10.));
#780=CARTESIAN_POINT('',(98.,-12.,10.));
#781=CARTESIAN_POINT('Origin',(49.,-5.85,10.));
#782=CARTESIAN_POINT('',(98.,-12.,10.));
#783=CARTESIAN_POINT('Origin',(98.,0.,0.));
#784=CARTESIAN_POINT('',(98.,98.,35.));
#785=CARTESIAN_POINT('',(98.,98.,0.));
#786=CARTESIAN_POINT('',(98.,0.,35.));
#787=CARTESIAN_POINT('',(98.,0.,35.));
#788=CARTESIAN_POINT('',(98.,0.,0.));
#789=CARTESIAN_POINT('Origin',(0.,20.,25.));
#790=CARTESIAN_POINT('',(2.,20.,31.));
#791=CARTESIAN_POINT('',(0.,20.,31.));
#792=CARTESIAN_POINT('Origin',(2.,20.,25.));
#793=CARTESIAN_POINT('Origin',(96.,96.,12.5));
#794=CARTESIAN_POINT('',(96.,96.,12.5));
#795=CARTESIAN_POINT('',(2.,96.,12.5));
#796=CARTESIAN_POINT('',(96.,96.,12.5));
#797=CARTESIAN_POINT('',(96.,96.,35.));
#798=CARTESIAN_POINT('',(96.,96.,12.5));
#799=CARTESIAN_POINT('',(2.,96.,35.));
#800=CARTESIAN_POINT('',(72.5,96.,35.));
#801=CARTESIAN_POINT('',(2.,96.,12.5));
#802=CARTESIAN_POINT('Origin',(96.,2.,12.5));
#803=CARTESIAN_POINT('',(96.,2.,12.5));
#804=CARTESIAN_POINT('',(96.,2.,12.5));
#805=CARTESIAN_POINT('',(96.,1.99999999999999,35.));
#806=CARTESIAN_POINT('',(96.,2.,12.5));
#807=CARTESIAN_POINT('',(96.,25.5,35.));
#808=CARTESIAN_POINT('Origin',(2.,2.,12.5));
#809=CARTESIAN_POINT('',(2.,1.99999999999999,12.5));
#810=CARTESIAN_POINT('',(2.,2.,12.5));
#811=CARTESIAN_POINT('',(2.,1.99999999999999,35.));
#812=CARTESIAN_POINT('',(2.,1.99999999999999,12.5));
#813=CARTESIAN_POINT('',(25.5,2.,35.));
#814=CARTESIAN_POINT('Origin',(2.,96.,12.5));
#815=CARTESIAN_POINT('',(2.,96.,12.5));
#816=CARTESIAN_POINT('',(2.,72.5,35.));
#817=CARTESIAN_POINT('Origin',(49.,49.,12.5));
#818=CARTESIAN_POINT('',(95.5,95.5,12.5));
#819=CARTESIAN_POINT('',(95.5,95.5,12.5));
#820=CARTESIAN_POINT('',(95.5,2.5,12.5));
#821=CARTESIAN_POINT('Origin',(95.5,95.5,7.));
#822=CARTESIAN_POINT('',(95.5,95.5,7.));
#823=CARTESIAN_POINT('Origin',(95.5,2.5,7.));
#824=CARTESIAN_POINT('Origin',(98.,98.,0.));
#825=CARTESIAN_POINT('',(98.,98.,35.));
#826=CARTESIAN_POINT('Origin',(0.,0.,0.));
#827=CARTESIAN_POINT('',(0.,0.,35.));
#828=CARTESIAN_POINT('Origin',(49.,49.,35.));
#829=UNCERTAINTY_MEASURE_WITH_UNIT(LENGTH_MEASURE(0.01),#833,
'DISTANCE_ACCURACY_VALUE',
'Maximum model space distance between geometric entities at asserted c
onnectivities');
#830=UNCERTAINTY_MEASURE_WITH_UNIT(LENGTH_MEASURE(0.01),#833,
'DISTANCE_ACCURACY_VALUE',
'Maximum model space distance between geometric entities at asserted c
onnectivities');
#831=(
GEOMETRIC_REPRESENTATION_CONTEXT(3)
GLOBAL_UNCERTAINTY_ASSIGNED_CONTEXT((#829))
GLOBAL_UNIT_ASSIGNED_CONTEXT((#833,#835,#836))
REPRESENTATION_CONTEXT('','3D')
);
#832=(
GEOMETRIC_REPRESENTATION_CONTEXT(3)
GLOBAL_UNCERTAINTY_ASSIGNED_CONTEXT((#830))
GLOBAL_UNIT_ASSIGNED_CONTEXT((#833,#835,#836))
REPRESENTATION_CONTEXT('','3D')
);
#833=(
LENGTH_UNIT()
NAMED_UNIT(*)
SI_UNIT(.MILLI.,.METRE.)
);
#834=(
LENGTH_UNIT()
NAMED_UNIT(*)
SI_UNIT($,.METRE.)
);
#835=(
NAMED_UNIT(*)
PLANE_ANGLE_UNIT()
SI_UNIT($,.RADIAN.)
);
#836=(
NAMED_UNIT(*)
SI_UNIT($,.STERADIAN.)
SOLID_ANGLE_UNIT()
);
#837=SHAPE_DEFINITION_REPRESENTATION(#838,#839);
#838=PRODUCT_DEFINITION_SHAPE('',$,#841);
#839=SHAPE_REPRESENTATION('',(#477),#831);
#840=PRODUCT_DEFINITION_CONTEXT('part definition',#845,'design');
#841=PRODUCT_DEFINITION('2026-08-29-00-38-29-554','Body Tube',#842,#840);
#842=PRODUCT_DEFINITION_FORMATION('',$,#847);
#843=PRODUCT_RELATED_PRODUCT_CATEGORY('Body Tube','Body Tube',(#847));
#844=APPLICATION_PROTOCOL_DEFINITION('international standard',
'automotive_design',2009,#845);
#845=APPLICATION_CONTEXT(
'Core Data for Automotive Mechanical Design Process');
#846=PRODUCT_CONTEXT('part definition',#845,'mechanical');
#847=PRODUCT('2026-08-29-00-38-29-554','Body Tube',$,(#846));
#848=PRESENTATION_STYLE_ASSIGNMENT((#849));
#849=SURFACE_STYLE_USAGE(.BOTH.,#850);
#850=SURFACE_SIDE_STYLE('',(#851));
#851=SURFACE_STYLE_FILL_AREA(#852);
#852=FILL_AREA_STYLE('Steel - Satin',(#853));
#853=FILL_AREA_STYLE_COLOUR('Steel - Satin',#854);
#854=COLOUR_RGB('Steel - Satin',0.627450980392157,0.627450980392157,0.627450980392157);
ENDSEC;
END-ISO-10303-21;
