ISO-10303-21;
HEADER;
/* Generated by software containing ST-Developer
 * from STEP Tools, Inc. (www.steptools.com) 
 */

FILE_DESCRIPTION(
/* description */ (''),
/* implementation_level */ '2;1');

FILE_NAME(
/* name */ 'Hood.step',
/* time_stamp */ '2026-08-29T00:40:42+03:00',
/* author */ (''),
/* organization */ (''),
/* preprocessor_version */ 'ST-DEVELOPER v20.1',
/* originating_system */ 'Autodesk Translation Framework v15.8.0.0',
/* authorisation */ '');

FILE_SCHEMA (('AUTOMOTIVE_DESIGN { 1 0 10303 214 3 1 1 }'));
ENDSEC;

DATA;
#10=MECHANICAL_DESIGN_GEOMETRIC_PRESENTATION_REPRESENTATION('',(#13),#626);
#11=SHAPE_REPRESENTATION_RELATIONSHIP('SRR','None',#633,#12);
#12=ADVANCED_BREP_SHAPE_REPRESENTATION('',(#14),#625);
#13=STYLED_ITEM('',(#642),#14);
#14=MANIFOLD_SOLID_BREP('Body1',#286);
#15=FACE_BOUND('',#53,.T.);
#16=FACE_BOUND('',#55,.T.);
#17=FACE_BOUND('',#58,.T.);
#18=B_SPLINE_SURFACE_WITH_KNOTS('',3,3,((#389,#390,#391,#392),(#393,#394,
#395,#396),(#397,#398,#399,#400),(#401,#402,#403,#404)),.UNSPECIFIED.,.F.,
 .F.,.F.,(4,4),(4,4),(0.,1.),(0.,1.),.UNSPECIFIED.);
#19=B_SPLINE_SURFACE_WITH_KNOTS('',3,3,((#429,#430,#431,#432),(#433,#434,
#435,#436),(#437,#438,#439,#440),(#441,#442,#443,#444)),.UNSPECIFIED.,.F.,
 .F.,.F.,(4,4),(4,4),(0.,1.),(0.,1.),.UNSPECIFIED.);
#20=B_SPLINE_SURFACE_WITH_KNOTS('',3,3,((#461,#462,#463,#464),(#465,#466,
#467,#468),(#469,#470,#471,#472),(#473,#474,#475,#476)),.UNSPECIFIED.,.F.,
 .F.,.F.,(4,4),(4,4),(0.,1.),(0.,1.),.UNSPECIFIED.);
#21=B_SPLINE_SURFACE_WITH_KNOTS('',3,3,((#493,#494,#495,#496),(#497,#498,
#499,#500),(#501,#502,#503,#504),(#505,#506,#507,#508)),.UNSPECIFIED.,.F.,
 .F.,.F.,(4,4),(4,4),(0.,1.),(0.,1.),.UNSPECIFIED.);
#22=B_SPLINE_SURFACE_WITH_KNOTS('',3,3,((#535,#536,#537,#538),(#539,#540,
#541,#542),(#543,#544,#545,#546),(#547,#548,#549,#550)),.UNSPECIFIED.,.F.,
 .F.,.F.,(4,4),(4,4),(0.,1.),(0.,1.),.UNSPECIFIED.);
#23=B_SPLINE_SURFACE_WITH_KNOTS('',3,3,((#563,#564,#565,#566),(#567,#568,
#569,#570),(#571,#572,#573,#574),(#575,#576,#577,#578)),.UNSPECIFIED.,.F.,
 .F.,.F.,(4,4),(4,4),(0.,1.),(0.,1.),.UNSPECIFIED.);
#24=B_SPLINE_SURFACE_WITH_KNOTS('',3,3,((#585,#586,#587,#588),(#589,#590,
#591,#592),(#593,#594,#595,#596),(#597,#598,#599,#600)),.UNSPECIFIED.,.F.,
 .F.,.F.,(4,4),(4,4),(0.,1.),(0.,1.),.UNSPECIFIED.);
#25=B_SPLINE_SURFACE_WITH_KNOTS('',3,3,((#607,#608,#609,#610),(#611,#612,
#613,#614),(#615,#616,#617,#618),(#619,#620,#621,#622)),.UNSPECIFIED.,.F.,
 .F.,.F.,(4,4),(4,4),(0.,1.),(0.,1.),.UNSPECIFIED.);
#26=FACE_OUTER_BOUND('',#42,.T.);
#27=FACE_OUTER_BOUND('',#43,.T.);
#28=FACE_OUTER_BOUND('',#44,.T.);
#29=FACE_OUTER_BOUND('',#45,.T.);
#30=FACE_OUTER_BOUND('',#46,.T.);
#31=FACE_OUTER_BOUND('',#47,.T.);
#32=FACE_OUTER_BOUND('',#48,.T.);
#33=FACE_OUTER_BOUND('',#49,.T.);
#34=FACE_OUTER_BOUND('',#50,.T.);
#35=FACE_OUTER_BOUND('',#51,.T.);
#36=FACE_OUTER_BOUND('',#52,.T.);
#37=FACE_OUTER_BOUND('',#54,.T.);
#38=FACE_OUTER_BOUND('',#56,.T.);
#39=FACE_OUTER_BOUND('',#57,.T.);
#40=FACE_OUTER_BOUND('',#59,.T.);
#41=FACE_OUTER_BOUND('',#60,.T.);
#42=EDGE_LOOP('',(#184,#185,#186,#187,#188));
#43=EDGE_LOOP('',(#189,#190,#191,#192));
#44=EDGE_LOOP('',(#193,#194,#195,#196,#197));
#45=EDGE_LOOP('',(#198,#199,#200,#201));
#46=EDGE_LOOP('',(#202,#203,#204,#205));
#47=EDGE_LOOP('',(#206,#207,#208,#209));
#48=EDGE_LOOP('',(#210,#211,#212,#213));
#49=EDGE_LOOP('',(#214,#215,#216,#217));
#50=EDGE_LOOP('',(#218,#219,#220,#221));
#51=EDGE_LOOP('',(#222,#223,#224,#225));
#52=EDGE_LOOP('',(#226,#227,#228,#229));
#53=EDGE_LOOP('',(#230,#231,#232,#233));
#54=EDGE_LOOP('',(#234,#235,#236,#237));
#55=EDGE_LOOP('',(#238,#239,#240,#241));
#56=EDGE_LOOP('',(#242,#243,#244,#245));
#57=EDGE_LOOP('',(#246,#247,#248,#249));
#58=EDGE_LOOP('',(#250,#251,#252,#253));
#59=EDGE_LOOP('',(#254,#255,#256,#257));
#60=EDGE_LOOP('',(#258,#259,#260,#261));
#61=LINE('',#354,#80);
#62=LINE('',#356,#81);
#63=LINE('',#358,#82);
#64=LINE('',#359,#83);
#65=LINE('',#367,#84);
#66=LINE('',#368,#85);
#67=LINE('',#376,#86);
#68=LINE('',#378,#87);
#69=LINE('',#379,#88);
#70=LINE('',#381,#89);
#71=LINE('',#382,#90);
#72=LINE('',#520,#91);
#73=LINE('',#522,#92);
#74=LINE('',#524,#93);
#75=LINE('',#525,#94);
#76=LINE('',#529,#95);
#77=LINE('',#531,#96);
#78=LINE('',#533,#97);
#79=LINE('',#534,#98);
#80=VECTOR('',#312,10.);
#81=VECTOR('',#313,10.);
#82=VECTOR('',#314,10.);
#83=VECTOR('',#315,10.);
#84=VECTOR('',#318,10.);
#85=VECTOR('',#319,10.);
#86=VECTOR('',#322,10.);
#87=VECTOR('',#323,10.);
#88=VECTOR('',#324,10.);
#89=VECTOR('',#327,10.);
#90=VECTOR('',#328,10.);
#91=VECTOR('',#335,10.);
#92=VECTOR('',#336,10.);
#93=VECTOR('',#337,10.);
#94=VECTOR('',#338,10.);
#95=VECTOR('',#341,10.);
#96=VECTOR('',#342,10.);
#97=VECTOR('',#343,10.);
#98=VECTOR('',#344,10.);
#99=B_SPLINE_CURVE_WITH_KNOTS('',3,(#349,#350,#351,#352),.UNSPECIFIED.,
 .F.,.F.,(4,4),(-0.722266691827169,-0.0501605159957295),.UNSPECIFIED.);
#100=B_SPLINE_CURVE_WITH_KNOTS('',3,(#362,#363,#364,#365),.UNSPECIFIED.,
 .F.,.F.,(4,4),(-6.05,-0.0500000000000025),.UNSPECIFIED.);
#101=B_SPLINE_CURVE_WITH_KNOTS('',3,(#371,#372,#373,#374),.UNSPECIFIED.,
 .F.,.F.,(4,4),(-1.0675044086817,-0.395396169754689),.UNSPECIFIED.);
#102=B_SPLINE_CURVE_WITH_KNOTS('',3,(#384,#385,#386,#387),.UNSPECIFIED.,
 .F.,.F.,(4,4),(-6.05,-0.0499999999999909),.UNSPECIFIED.);
#103=B_SPLINE_CURVE_WITH_KNOTS('',3,(#407,#408,#409,#410),.UNSPECIFIED.,
 .F.,.F.,(4,4),(0.,1.),.UNSPECIFIED.);
#104=B_SPLINE_CURVE_WITH_KNOTS('',3,(#412,#413,#414,#415,#416,#417),
 .UNSPECIFIED.,.F.,.F.,(4,2,4),(0.,0.812117134016136,1.),.UNSPECIFIED.);
#105=B_SPLINE_CURVE_WITH_KNOTS('',3,(#419,#420,#421,#422),.UNSPECIFIED.,
 .F.,.F.,(4,4),(-1.,0.),.UNSPECIFIED.);
#106=B_SPLINE_CURVE_WITH_KNOTS('',3,(#423,#424,#425,#426,#427,#428),
 .UNSPECIFIED.,.F.,.F.,(4,2,4),(0.,0.812117134016136,1.),.UNSPECIFIED.);
#107=B_SPLINE_CURVE_WITH_KNOTS('',3,(#446,#447,#448,#449),.UNSPECIFIED.,
 .F.,.F.,(4,4),(0.,1.),.UNSPECIFIED.);
#108=B_SPLINE_CURVE_WITH_KNOTS('',3,(#451,#452,#453,#454),.UNSPECIFIED.,
 .F.,.F.,(4,4),(-1.,0.),.UNSPECIFIED.);
#109=B_SPLINE_CURVE_WITH_KNOTS('',3,(#455,#456,#457,#458,#459,#460),
 .UNSPECIFIED.,.F.,.F.,(4,2,4),(0.,0.812117134016136,1.),.UNSPECIFIED.);
#110=B_SPLINE_CURVE_WITH_KNOTS('',3,(#478,#479,#480,#481),.UNSPECIFIED.,
 .F.,.F.,(4,4),(0.,1.),.UNSPECIFIED.);
#111=B_SPLINE_CURVE_WITH_KNOTS('',3,(#483,#484,#485,#486),.UNSPECIFIED.,
 .F.,.F.,(4,4),(-1.,0.),.UNSPECIFIED.);
#112=B_SPLINE_CURVE_WITH_KNOTS('',3,(#487,#488,#489,#490,#491,#492),
 .UNSPECIFIED.,.F.,.F.,(4,2,4),(0.,0.812117134016136,1.),.UNSPECIFIED.);
#113=B_SPLINE_CURVE_WITH_KNOTS('',3,(#509,#510,#511,#512),.UNSPECIFIED.,
 .F.,.F.,(4,4),(0.,1.),.UNSPECIFIED.);
#114=B_SPLINE_CURVE_WITH_KNOTS('',3,(#513,#514,#515,#516),.UNSPECIFIED.,
 .F.,.F.,(4,4),(-1.,0.),.UNSPECIFIED.);
#115=B_SPLINE_CURVE_WITH_KNOTS('',3,(#551,#552,#553,#554,#555,#556),
 .UNSPECIFIED.,.F.,.F.,(4,2,4),(0.,0.813039626801146,1.),.UNSPECIFIED.);
#116=B_SPLINE_CURVE_WITH_KNOTS('',3,(#557,#558,#559,#560,#561,#562),
 .UNSPECIFIED.,.F.,.F.,(4,2,4),(0.,0.813039626801146,1.),.UNSPECIFIED.);
#117=B_SPLINE_CURVE_WITH_KNOTS('',3,(#579,#580,#581,#582,#583,#584),
 .UNSPECIFIED.,.F.,.F.,(4,2,4),(0.,0.813039626801146,1.),.UNSPECIFIED.);
#118=B_SPLINE_CURVE_WITH_KNOTS('',3,(#601,#602,#603,#604,#605,#606),
 .UNSPECIFIED.,.F.,.F.,(4,2,4),(0.,0.813039626801146,1.),.UNSPECIFIED.);
#119=VERTEX_POINT('',#347);
#120=VERTEX_POINT('',#348);
#121=VERTEX_POINT('',#353);
#122=VERTEX_POINT('',#355);
#123=VERTEX_POINT('',#357);
#124=VERTEX_POINT('',#361);
#125=VERTEX_POINT('',#366);
#126=VERTEX_POINT('',#370);
#127=VERTEX_POINT('',#375);
#128=VERTEX_POINT('',#377);
#129=VERTEX_POINT('',#405);
#130=VERTEX_POINT('',#406);
#131=VERTEX_POINT('',#411);
#132=VERTEX_POINT('',#418);
#133=VERTEX_POINT('',#445);
#134=VERTEX_POINT('',#450);
#135=VERTEX_POINT('',#477);
#136=VERTEX_POINT('',#482);
#137=VERTEX_POINT('',#518);
#138=VERTEX_POINT('',#519);
#139=VERTEX_POINT('',#521);
#140=VERTEX_POINT('',#523);
#141=VERTEX_POINT('',#527);
#142=VERTEX_POINT('',#528);
#143=VERTEX_POINT('',#530);
#144=VERTEX_POINT('',#532);
#145=EDGE_CURVE('',#119,#120,#99,.T.);
#146=EDGE_CURVE('',#121,#119,#61,.T.);
#147=EDGE_CURVE('',#121,#122,#62,.T.);
#148=EDGE_CURVE('',#122,#123,#63,.T.);
#149=EDGE_CURVE('',#120,#123,#64,.T.);
#150=EDGE_CURVE('',#124,#119,#100,.T.);
#151=EDGE_CURVE('',#125,#124,#65,.T.);
#152=EDGE_CURVE('',#125,#121,#66,.T.);
#153=EDGE_CURVE('',#126,#124,#101,.T.);
#154=EDGE_CURVE('',#127,#126,#67,.T.);
#155=EDGE_CURVE('',#128,#127,#68,.T.);
#156=EDGE_CURVE('',#128,#125,#69,.T.);
#157=EDGE_CURVE('',#122,#128,#70,.T.);
#158=EDGE_CURVE('',#123,#127,#71,.T.);
#159=EDGE_CURVE('',#120,#126,#102,.T.);
#160=EDGE_CURVE('',#129,#130,#103,.T.);
#161=EDGE_CURVE('',#129,#131,#104,.T.);
#162=EDGE_CURVE('',#132,#131,#105,.T.);
#163=EDGE_CURVE('',#130,#132,#106,.T.);
#164=EDGE_CURVE('',#130,#133,#107,.T.);
#165=EDGE_CURVE('',#134,#132,#108,.T.);
#166=EDGE_CURVE('',#133,#134,#109,.T.);
#167=EDGE_CURVE('',#133,#135,#110,.T.);
#168=EDGE_CURVE('',#136,#134,#111,.T.);
#169=EDGE_CURVE('',#135,#136,#112,.T.);
#170=EDGE_CURVE('',#135,#129,#113,.T.);
#171=EDGE_CURVE('',#131,#136,#114,.T.);
#172=EDGE_CURVE('',#137,#138,#72,.T.);
#173=EDGE_CURVE('',#138,#139,#73,.T.);
#174=EDGE_CURVE('',#139,#140,#74,.T.);
#175=EDGE_CURVE('',#140,#137,#75,.T.);
#176=EDGE_CURVE('',#141,#142,#76,.T.);
#177=EDGE_CURVE('',#143,#141,#77,.T.);
#178=EDGE_CURVE('',#144,#143,#78,.T.);
#179=EDGE_CURVE('',#142,#144,#79,.T.);
#180=EDGE_CURVE('',#142,#138,#115,.T.);
#181=EDGE_CURVE('',#141,#137,#116,.T.);
#182=EDGE_CURVE('',#144,#139,#117,.T.);
#183=EDGE_CURVE('',#143,#140,#118,.T.);
#184=ORIENTED_EDGE('',*,*,#145,.F.);
#185=ORIENTED_EDGE('',*,*,#146,.F.);
#186=ORIENTED_EDGE('',*,*,#147,.T.);
#187=ORIENTED_EDGE('',*,*,#148,.T.);
#188=ORIENTED_EDGE('',*,*,#149,.F.);
#189=ORIENTED_EDGE('',*,*,#150,.F.);
#190=ORIENTED_EDGE('',*,*,#151,.F.);
#191=ORIENTED_EDGE('',*,*,#152,.T.);
#192=ORIENTED_EDGE('',*,*,#146,.T.);
#193=ORIENTED_EDGE('',*,*,#153,.F.);
#194=ORIENTED_EDGE('',*,*,#154,.F.);
#195=ORIENTED_EDGE('',*,*,#155,.F.);
#196=ORIENTED_EDGE('',*,*,#156,.T.);
#197=ORIENTED_EDGE('',*,*,#151,.T.);
#198=ORIENTED_EDGE('',*,*,#157,.T.);
#199=ORIENTED_EDGE('',*,*,#155,.T.);
#200=ORIENTED_EDGE('',*,*,#158,.F.);
#201=ORIENTED_EDGE('',*,*,#148,.F.);
#202=ORIENTED_EDGE('',*,*,#159,.F.);
#203=ORIENTED_EDGE('',*,*,#149,.T.);
#204=ORIENTED_EDGE('',*,*,#158,.T.);
#205=ORIENTED_EDGE('',*,*,#154,.T.);
#206=ORIENTED_EDGE('',*,*,#147,.F.);
#207=ORIENTED_EDGE('',*,*,#152,.F.);
#208=ORIENTED_EDGE('',*,*,#156,.F.);
#209=ORIENTED_EDGE('',*,*,#157,.F.);
#210=ORIENTED_EDGE('',*,*,#160,.F.);
#211=ORIENTED_EDGE('',*,*,#161,.T.);
#212=ORIENTED_EDGE('',*,*,#162,.F.);
#213=ORIENTED_EDGE('',*,*,#163,.F.);
#214=ORIENTED_EDGE('',*,*,#164,.F.);
#215=ORIENTED_EDGE('',*,*,#163,.T.);
#216=ORIENTED_EDGE('',*,*,#165,.F.);
#217=ORIENTED_EDGE('',*,*,#166,.F.);
#218=ORIENTED_EDGE('',*,*,#167,.F.);
#219=ORIENTED_EDGE('',*,*,#166,.T.);
#220=ORIENTED_EDGE('',*,*,#168,.F.);
#221=ORIENTED_EDGE('',*,*,#169,.F.);
#222=ORIENTED_EDGE('',*,*,#170,.F.);
#223=ORIENTED_EDGE('',*,*,#169,.T.);
#224=ORIENTED_EDGE('',*,*,#171,.F.);
#225=ORIENTED_EDGE('',*,*,#161,.F.);
#226=ORIENTED_EDGE('',*,*,#172,.T.);
#227=ORIENTED_EDGE('',*,*,#173,.T.);
#228=ORIENTED_EDGE('',*,*,#174,.T.);
#229=ORIENTED_EDGE('',*,*,#175,.T.);
#230=ORIENTED_EDGE('',*,*,#162,.T.);
#231=ORIENTED_EDGE('',*,*,#171,.T.);
#232=ORIENTED_EDGE('',*,*,#168,.T.);
#233=ORIENTED_EDGE('',*,*,#165,.T.);
#234=ORIENTED_EDGE('',*,*,#176,.F.);
#235=ORIENTED_EDGE('',*,*,#177,.F.);
#236=ORIENTED_EDGE('',*,*,#178,.F.);
#237=ORIENTED_EDGE('',*,*,#179,.F.);
#238=ORIENTED_EDGE('',*,*,#160,.T.);
#239=ORIENTED_EDGE('',*,*,#164,.T.);
#240=ORIENTED_EDGE('',*,*,#167,.T.);
#241=ORIENTED_EDGE('',*,*,#170,.T.);
#242=ORIENTED_EDGE('',*,*,#176,.T.);
#243=ORIENTED_EDGE('',*,*,#180,.T.);
#244=ORIENTED_EDGE('',*,*,#172,.F.);
#245=ORIENTED_EDGE('',*,*,#181,.F.);
#246=ORIENTED_EDGE('',*,*,#179,.T.);
#247=ORIENTED_EDGE('',*,*,#182,.T.);
#248=ORIENTED_EDGE('',*,*,#173,.F.);
#249=ORIENTED_EDGE('',*,*,#180,.F.);
#250=ORIENTED_EDGE('',*,*,#150,.T.);
#251=ORIENTED_EDGE('',*,*,#145,.T.);
#252=ORIENTED_EDGE('',*,*,#159,.T.);
#253=ORIENTED_EDGE('',*,*,#153,.T.);
#254=ORIENTED_EDGE('',*,*,#178,.T.);
#255=ORIENTED_EDGE('',*,*,#183,.T.);
#256=ORIENTED_EDGE('',*,*,#174,.F.);
#257=ORIENTED_EDGE('',*,*,#182,.F.);
#258=ORIENTED_EDGE('',*,*,#177,.T.);
#259=ORIENTED_EDGE('',*,*,#181,.T.);
#260=ORIENTED_EDGE('',*,*,#175,.F.);
#261=ORIENTED_EDGE('',*,*,#183,.F.);
#262=PLANE('',#300);
#263=PLANE('',#301);
#264=PLANE('',#302);
#265=PLANE('',#303);
#266=PLANE('',#304);
#267=PLANE('',#305);
#268=PLANE('',#306);
#269=PLANE('',#307);
#270=ADVANCED_FACE('',(#26),#262,.T.);
#271=ADVANCED_FACE('',(#27),#263,.T.);
#272=ADVANCED_FACE('',(#28),#264,.T.);
#273=ADVANCED_FACE('',(#29),#265,.T.);
#274=ADVANCED_FACE('',(#30),#266,.T.);
#275=ADVANCED_FACE('',(#31),#267,.F.);
#276=ADVANCED_FACE('',(#32),#18,.F.);
#277=ADVANCED_FACE('',(#33),#19,.F.);
#278=ADVANCED_FACE('',(#34),#20,.F.);
#279=ADVANCED_FACE('',(#35),#21,.F.);
#280=ADVANCED_FACE('',(#36,#15),#268,.T.);
#281=ADVANCED_FACE('',(#37,#16),#269,.F.);
#282=ADVANCED_FACE('',(#38),#22,.T.);
#283=ADVANCED_FACE('',(#39,#17),#23,.T.);
#284=ADVANCED_FACE('',(#40),#24,.T.);
#285=ADVANCED_FACE('',(#41),#25,.T.);
#286=CLOSED_SHELL('',(#270,#271,#272,#273,#274,#275,#276,#277,#278,#279,
#280,#281,#282,#283,#284,#285));
#287=DERIVED_UNIT_ELEMENT(#289,1.);
#288=DERIVED_UNIT_ELEMENT(#628,-3.);
#289=(
MASS_UNIT()
NAMED_UNIT(*)
SI_UNIT(.KILO.,.GRAM.)
);
#290=DERIVED_UNIT((#287,#288));
#291=MEASURE_REPRESENTATION_ITEM('density measure',
POSITIVE_RATIO_MEASURE(7850.),#290);
#292=PROPERTY_DEFINITION_REPRESENTATION(#297,#294);
#293=PROPERTY_DEFINITION_REPRESENTATION(#298,#295);
#294=REPRESENTATION('material name',(#296),#625);
#295=REPRESENTATION('density',(#291),#625);
#296=DESCRIPTIVE_REPRESENTATION_ITEM('Steel','Steel');
#297=PROPERTY_DEFINITION('material property','material name',#635);
#298=PROPERTY_DEFINITION('material property','density of part',#635);
#299=AXIS2_PLACEMENT_3D('',#345,#308,#309);
#300=AXIS2_PLACEMENT_3D('',#346,#310,#311);
#301=AXIS2_PLACEMENT_3D('',#360,#316,#317);
#302=AXIS2_PLACEMENT_3D('',#369,#320,#321);
#303=AXIS2_PLACEMENT_3D('',#380,#325,#326);
#304=AXIS2_PLACEMENT_3D('',#383,#329,#330);
#305=AXIS2_PLACEMENT_3D('',#388,#331,#332);
#306=AXIS2_PLACEMENT_3D('',#517,#333,#334);
#307=AXIS2_PLACEMENT_3D('',#526,#339,#340);
#308=DIRECTION('axis',(0.,0.,1.));
#309=DIRECTION('refdir',(1.,0.,0.));
#310=DIRECTION('center_axis',(-1.,0.,0.));
#311=DIRECTION('ref_axis',(0.,-1.,0.));
#312=DIRECTION('',(0.,0.,1.));
#313=DIRECTION('',(0.,-1.,0.));
#314=DIRECTION('',(0.,0.,1.));
#315=DIRECTION('',(0.,-1.,0.));
#316=DIRECTION('center_axis',(4.62592926927149E-18,1.,0.));
#317=DIRECTION('ref_axis',(-1.,4.62592926927149E-18,0.));
#318=DIRECTION('',(0.,0.,1.));
#319=DIRECTION('',(-1.,4.62592926927149E-18,0.));
#320=DIRECTION('center_axis',(1.,0.,0.));
#321=DIRECTION('ref_axis',(0.,1.,0.));
#322=DIRECTION('',(0.,1.,0.));
#323=DIRECTION('',(0.,0.,1.));
#324=DIRECTION('',(0.,1.,0.));
#325=DIRECTION('center_axis',(0.,-1.,0.));
#326=DIRECTION('ref_axis',(1.,0.,0.));
#327=DIRECTION('',(1.,0.,0.));
#328=DIRECTION('',(1.,0.,0.));
#329=DIRECTION('center_axis',(0.,0.,1.));
#330=DIRECTION('ref_axis',(1.,0.,0.));
#331=DIRECTION('center_axis',(0.,0.,1.));
#332=DIRECTION('ref_axis',(1.,0.,0.));
#333=DIRECTION('center_axis',(0.,0.,1.));
#334=DIRECTION('ref_axis',(1.,0.,0.));
#335=DIRECTION('',(0.,-1.,0.));
#336=DIRECTION('',(1.,0.,0.));
#337=DIRECTION('',(0.,1.,0.));
#338=DIRECTION('',(-1.,0.,0.));
#339=DIRECTION('center_axis',(0.,0.,1.));
#340=DIRECTION('ref_axis',(1.,0.,0.));
#341=DIRECTION('',(0.,-1.,0.));
#342=DIRECTION('',(-1.,0.,0.));
#343=DIRECTION('',(0.,1.,0.));
#344=DIRECTION('',(1.,0.,0.));
#345=CARTESIAN_POINT('',(0.,0.,0.));
#346=CARTESIAN_POINT('Origin',(19.,0.3,12.5));
#347=CARTESIAN_POINT('',(19.,0.3,20.8115911944578));
#348=CARTESIAN_POINT('',(19.,-0.36149430910703,27.5));
#349=CARTESIAN_POINT('Ctrl Pts',(19.,0.3,20.8115911944578));
#350=CARTESIAN_POINT('Ctrl Pts',(19.,0.0403718373507702,23.0369548564385));
#351=CARTESIAN_POINT('Ctrl Pts',(19.,-0.179422287502889,25.2670282625997));
#352=CARTESIAN_POINT('Ctrl Pts',(19.,-0.36149430910703,27.5));
#353=CARTESIAN_POINT('',(19.,0.3,12.5));
#354=CARTESIAN_POINT('',(19.,0.3,12.5));
#355=CARTESIAN_POINT('',(19.,-12.,12.5));
#356=CARTESIAN_POINT('',(19.,0.3,12.5));
#357=CARTESIAN_POINT('',(19.,-12.,27.5));
#358=CARTESIAN_POINT('',(19.,-12.,12.5));
#359=CARTESIAN_POINT('',(19.,0.3,27.5));
#360=CARTESIAN_POINT('Origin',(79.,0.3,12.5));
#361=CARTESIAN_POINT('',(79.,0.3,20.8115911944578));
#362=CARTESIAN_POINT('Ctrl Pts',(79.,0.3,20.8115911944578));
#363=CARTESIAN_POINT('Ctrl Pts',(59.,0.3,20.8115911944578));
#364=CARTESIAN_POINT('Ctrl Pts',(39.,0.3,20.8115911944578));
#365=CARTESIAN_POINT('Ctrl Pts',(19.,0.3,20.8115911944578));
#366=CARTESIAN_POINT('',(79.,0.3,12.5));
#367=CARTESIAN_POINT('',(79.,0.3,12.5));
#368=CARTESIAN_POINT('',(79.,0.3,12.5));
#369=CARTESIAN_POINT('Origin',(79.,-12.,12.5));
#370=CARTESIAN_POINT('',(79.,-0.361494309107031,27.5));
#371=CARTESIAN_POINT('Ctrl Pts',(79.,-0.36149430910703,27.5));
#372=CARTESIAN_POINT('Ctrl Pts',(79.,-0.179422287522003,25.2670282628342));
#373=CARTESIAN_POINT('Ctrl Pts',(79.,0.0403718373487045,23.0369548564562));
#374=CARTESIAN_POINT('Ctrl Pts',(79.,0.3,20.8115911944578));
#375=CARTESIAN_POINT('',(79.,-12.,27.5));
#376=CARTESIAN_POINT('',(79.,-12.,27.5));
#377=CARTESIAN_POINT('',(79.,-12.,12.5));
#378=CARTESIAN_POINT('',(79.,-12.,12.5));
#379=CARTESIAN_POINT('',(79.,-12.,12.5));
#380=CARTESIAN_POINT('Origin',(19.,-12.,12.5));
#381=CARTESIAN_POINT('',(19.,-12.,12.5));
#382=CARTESIAN_POINT('',(19.,-12.,27.5));
#383=CARTESIAN_POINT('Origin',(49.,-5.85,27.5));
#384=CARTESIAN_POINT('Ctrl Pts',(19.,-0.36149430910703,27.5));
#385=CARTESIAN_POINT('Ctrl Pts',(39.,-0.36149430910703,27.5));
#386=CARTESIAN_POINT('Ctrl Pts',(59.,-0.361494309107031,27.5));
#387=CARTESIAN_POINT('Ctrl Pts',(79.,-0.361494309107031,27.5));
#388=CARTESIAN_POINT('Origin',(49.,-5.85,12.5));
#389=CARTESIAN_POINT('Ctrl Pts',(-19.,92.,0.));
#390=CARTESIAN_POINT('Ctrl Pts',(-5.37474487032185,96.9693237608358,15.3431091731428));
#391=CARTESIAN_POINT('Ctrl Pts',(1.02525512967815,98.9026570941691,32.0097758398095));
#392=CARTESIAN_POINT('Ctrl Pts',(0.200000000000003,97.8,50.));
#393=CARTESIAN_POINT('Ctrl Pts',(-19.,63.3333333333333,0.));
#394=CARTESIAN_POINT('Ctrl Pts',(-5.37474487032187,64.9897745869453,15.3431091731428));
#395=CARTESIAN_POINT('Ctrl Pts',(1.02525512967815,65.6342190313897,32.0097758398095));
#396=CARTESIAN_POINT('Ctrl Pts',(0.200000000000003,65.2666666666667,50.));
#397=CARTESIAN_POINT('Ctrl Pts',(-19.,34.6666666666667,0.));
#398=CARTESIAN_POINT('Ctrl Pts',(-5.37474487032183,33.0102254130548,15.3431091731428));
#399=CARTESIAN_POINT('Ctrl Pts',(1.02525512967815,32.3657809686103,32.0097758398094));
#400=CARTESIAN_POINT('Ctrl Pts',(0.200000000000003,32.7333333333333,50.));
#401=CARTESIAN_POINT('Ctrl Pts',(-19.,6.00000000000001,0.));
#402=CARTESIAN_POINT('Ctrl Pts',(-5.37474487032185,1.03067623916432,15.3431091731428));
#403=CARTESIAN_POINT('Ctrl Pts',(1.02525512967815,-0.902657094169036,32.0097758398095));
#404=CARTESIAN_POINT('Ctrl Pts',(0.200000000000003,0.19999999999996,50.));
#405=CARTESIAN_POINT('',(-19.,92.,0.));
#406=CARTESIAN_POINT('',(-19.,6.,0.));
#407=CARTESIAN_POINT('Ctrl Pts',(-19.,92.,0.));
#408=CARTESIAN_POINT('Ctrl Pts',(-19.,63.3333333333333,0.));
#409=CARTESIAN_POINT('Ctrl Pts',(-19.,34.6666666666667,0.));
#410=CARTESIAN_POINT('Ctrl Pts',(-19.,6.00000000000001,0.));
#411=CARTESIAN_POINT('',(0.19999999999996,97.8,50.));
#412=CARTESIAN_POINT('Ctrl Pts',(-19.,92.,0.));
#413=CARTESIAN_POINT('Ctrl Pts',(-7.93469685384703,96.0356729706482,12.4604018485894));
#414=CARTESIAN_POINT('Ctrl Pts',(-1.63469685384702,98.0690063039816,25.7937351819228));
#415=CARTESIAN_POINT('Ctrl Pts',(0.255051298931822,98.1071703750499,43.2866117917579));
#416=CARTESIAN_POINT('Ctrl Pts',(0.355051298931802,98.0071703750499,46.6199451250913));
#417=CARTESIAN_POINT('Ctrl Pts',(0.19999999999996,97.8,50.));
#418=CARTESIAN_POINT('',(0.200000000000003,0.200000000000003,50.));
#419=CARTESIAN_POINT('Ctrl Pts',(0.200000000000003,0.19999999999996,50.));
#420=CARTESIAN_POINT('Ctrl Pts',(0.200000000000003,32.7333333333333,50.));
#421=CARTESIAN_POINT('Ctrl Pts',(0.200000000000003,65.2666666666667,50.));
#422=CARTESIAN_POINT('Ctrl Pts',(0.200000000000003,97.8,50.));
#423=CARTESIAN_POINT('Ctrl Pts',(-19.,6.,0.));
#424=CARTESIAN_POINT('Ctrl Pts',(-7.93469685384712,1.96432702935175,12.4604018485894));
#425=CARTESIAN_POINT('Ctrl Pts',(-1.63469685384712,-0.0690063039815884,
25.7937351819228));
#426=CARTESIAN_POINT('Ctrl Pts',(0.255051298931818,-0.107170375049934,43.2866117917579));
#427=CARTESIAN_POINT('Ctrl Pts',(0.355051298931819,-0.00717037504993263,
46.6199451250913));
#428=CARTESIAN_POINT('Ctrl Pts',(0.200000000000003,0.200000000000003,50.));
#429=CARTESIAN_POINT('Ctrl Pts',(-19.,6.,0.));
#430=CARTESIAN_POINT('Ctrl Pts',(-5.37474487032185,1.0306762391642,15.3431091731428));
#431=CARTESIAN_POINT('Ctrl Pts',(1.02525512967815,-0.902657094169128,32.0097758398095));
#432=CARTESIAN_POINT('Ctrl Pts',(0.200000000000003,0.200000000000003,50.));
#433=CARTESIAN_POINT('Ctrl Pts',(26.3333333333333,6.,0.));
#434=CARTESIAN_POINT('Ctrl Pts',(30.875085043226,1.0306762391642,15.3431091731428));
#435=CARTESIAN_POINT('Ctrl Pts',(33.0084183765594,-0.902657094169129,32.0097758398095));
#436=CARTESIAN_POINT('Ctrl Pts',(32.7333333333333,0.200000000000003,50.));
#437=CARTESIAN_POINT('Ctrl Pts',(71.6666666666667,6.,0.));
#438=CARTESIAN_POINT('Ctrl Pts',(67.1249149567739,1.0306762391642,15.3431091731428));
#439=CARTESIAN_POINT('Ctrl Pts',(64.9915816234405,-0.902657094169129,32.0097758398094));
#440=CARTESIAN_POINT('Ctrl Pts',(65.2666666666667,0.200000000000003,50.));
#441=CARTESIAN_POINT('Ctrl Pts',(117.,6.,0.));
#442=CARTESIAN_POINT('Ctrl Pts',(103.374744870322,1.0306762391642,15.3431091731428));
#443=CARTESIAN_POINT('Ctrl Pts',(96.9747448703218,-0.902657094169128,32.0097758398095));
#444=CARTESIAN_POINT('Ctrl Pts',(97.8,0.200000000000003,50.));
#445=CARTESIAN_POINT('',(117.,6.,0.));
#446=CARTESIAN_POINT('Ctrl Pts',(-19.,6.,0.));
#447=CARTESIAN_POINT('Ctrl Pts',(26.3333333333333,6.,0.));
#448=CARTESIAN_POINT('Ctrl Pts',(71.6666666666667,6.,0.));
#449=CARTESIAN_POINT('Ctrl Pts',(117.,6.,0.));
#450=CARTESIAN_POINT('',(97.8,0.200000000000003,50.));
#451=CARTESIAN_POINT('Ctrl Pts',(97.8,0.200000000000003,50.));
#452=CARTESIAN_POINT('Ctrl Pts',(65.2666666666667,0.200000000000003,50.));
#453=CARTESIAN_POINT('Ctrl Pts',(32.7333333333333,0.200000000000003,50.));
#454=CARTESIAN_POINT('Ctrl Pts',(0.200000000000003,0.200000000000003,50.));
#455=CARTESIAN_POINT('Ctrl Pts',(117.,6.,0.));
#456=CARTESIAN_POINT('Ctrl Pts',(105.934696853847,1.96432702935175,12.4604018485894));
#457=CARTESIAN_POINT('Ctrl Pts',(99.6346968538471,-0.0690063039815884,25.7937351819228));
#458=CARTESIAN_POINT('Ctrl Pts',(97.7449487010682,-0.107170375049934,43.2866117917579));
#459=CARTESIAN_POINT('Ctrl Pts',(97.6449487010682,-0.00717037504993263,
46.6199451250913));
#460=CARTESIAN_POINT('Ctrl Pts',(97.8,0.200000000000003,50.));
#461=CARTESIAN_POINT('Ctrl Pts',(117.,6.,0.));
#462=CARTESIAN_POINT('Ctrl Pts',(103.374744870322,1.0306762391642,15.3431091731428));
#463=CARTESIAN_POINT('Ctrl Pts',(96.9747448703218,-0.902657094169128,32.0097758398095));
#464=CARTESIAN_POINT('Ctrl Pts',(97.8,0.200000000000003,50.));
#465=CARTESIAN_POINT('Ctrl Pts',(117.,34.6666666666667,0.));
#466=CARTESIAN_POINT('Ctrl Pts',(103.374744870322,33.0102254130547,15.3431091731428));
#467=CARTESIAN_POINT('Ctrl Pts',(96.9747448703218,32.3657809686103,32.0097758398095));
#468=CARTESIAN_POINT('Ctrl Pts',(97.8,32.7333333333333,50.));
#469=CARTESIAN_POINT('Ctrl Pts',(117.,63.3333333333333,0.));
#470=CARTESIAN_POINT('Ctrl Pts',(103.374744870322,64.9897745869452,15.3431091731428));
#471=CARTESIAN_POINT('Ctrl Pts',(96.9747448703218,65.6342190313896,32.0097758398094));
#472=CARTESIAN_POINT('Ctrl Pts',(97.8,65.2666666666667,50.));
#473=CARTESIAN_POINT('Ctrl Pts',(117.,92.,0.));
#474=CARTESIAN_POINT('Ctrl Pts',(103.374744870322,96.9693237608357,15.3431091731428));
#475=CARTESIAN_POINT('Ctrl Pts',(96.9747448703218,98.9026570941691,32.0097758398095));
#476=CARTESIAN_POINT('Ctrl Pts',(97.8,97.8,50.));
#477=CARTESIAN_POINT('',(117.,92.,0.));
#478=CARTESIAN_POINT('Ctrl Pts',(117.,6.,0.));
#479=CARTESIAN_POINT('Ctrl Pts',(117.,34.6666666666667,0.));
#480=CARTESIAN_POINT('Ctrl Pts',(117.,63.3333333333333,0.));
#481=CARTESIAN_POINT('Ctrl Pts',(117.,92.,0.));
#482=CARTESIAN_POINT('',(97.8,97.8,50.));
#483=CARTESIAN_POINT('Ctrl Pts',(97.8,97.8,50.));
#484=CARTESIAN_POINT('Ctrl Pts',(97.8,65.2666666666667,50.));
#485=CARTESIAN_POINT('Ctrl Pts',(97.8,32.7333333333333,50.));
#486=CARTESIAN_POINT('Ctrl Pts',(97.8,0.200000000000003,50.));
#487=CARTESIAN_POINT('Ctrl Pts',(117.,92.,0.));
#488=CARTESIAN_POINT('Ctrl Pts',(105.934696853847,96.0356729706482,12.4604018485894));
#489=CARTESIAN_POINT('Ctrl Pts',(99.6346968538471,98.0690063039816,25.7937351819228));
#490=CARTESIAN_POINT('Ctrl Pts',(97.7449487010682,98.1071703750499,43.2866117917579));
#491=CARTESIAN_POINT('Ctrl Pts',(97.6449487010682,98.0071703750499,46.6199451250913));
#492=CARTESIAN_POINT('Ctrl Pts',(97.8,97.8,50.));
#493=CARTESIAN_POINT('Ctrl Pts',(117.,92.,0.));
#494=CARTESIAN_POINT('Ctrl Pts',(103.374744870322,96.9693237608358,15.3431091731428));
#495=CARTESIAN_POINT('Ctrl Pts',(96.9747448703218,98.9026570941691,32.0097758398095));
#496=CARTESIAN_POINT('Ctrl Pts',(97.8,97.8,50.));
#497=CARTESIAN_POINT('Ctrl Pts',(71.6666666666667,92.,0.));
#498=CARTESIAN_POINT('Ctrl Pts',(67.124914956774,96.9693237608358,15.3431091731428));
#499=CARTESIAN_POINT('Ctrl Pts',(64.9915816234406,98.9026570941691,32.0097758398095));
#500=CARTESIAN_POINT('Ctrl Pts',(65.2666666666667,97.8,50.));
#501=CARTESIAN_POINT('Ctrl Pts',(26.3333333333333,92.,0.));
#502=CARTESIAN_POINT('Ctrl Pts',(30.8750850432261,96.9693237608358,15.3431091731428));
#503=CARTESIAN_POINT('Ctrl Pts',(33.0084183765594,98.9026570941691,32.0097758398094));
#504=CARTESIAN_POINT('Ctrl Pts',(32.7333333333333,97.8,50.));
#505=CARTESIAN_POINT('Ctrl Pts',(-19.,92.,0.));
#506=CARTESIAN_POINT('Ctrl Pts',(-5.37474487032174,96.9693237608358,15.3431091731428));
#507=CARTESIAN_POINT('Ctrl Pts',(1.02525512967825,98.9026570941691,32.0097758398095));
#508=CARTESIAN_POINT('Ctrl Pts',(0.19999999999996,97.8,50.));
#509=CARTESIAN_POINT('Ctrl Pts',(117.,92.,0.));
#510=CARTESIAN_POINT('Ctrl Pts',(71.6666666666667,92.,0.));
#511=CARTESIAN_POINT('Ctrl Pts',(26.3333333333333,92.,0.));
#512=CARTESIAN_POINT('Ctrl Pts',(-19.,92.,0.));
#513=CARTESIAN_POINT('Ctrl Pts',(0.19999999999996,97.8,50.));
#514=CARTESIAN_POINT('Ctrl Pts',(32.7333333333333,97.8,50.));
#515=CARTESIAN_POINT('Ctrl Pts',(65.2666666666667,97.8,50.));
#516=CARTESIAN_POINT('Ctrl Pts',(97.8,97.8,50.));
#517=CARTESIAN_POINT('Origin',(49.,49.,50.));
#518=CARTESIAN_POINT('',(-0.999999999999996,99.,50.));
#519=CARTESIAN_POINT('',(-1.,-1.,50.));
#520=CARTESIAN_POINT('',(-1.,99.,50.));
#521=CARTESIAN_POINT('',(99.,-1.,50.));
#522=CARTESIAN_POINT('',(-1.,-1.,50.));
#523=CARTESIAN_POINT('',(99.,99.,50.));
#524=CARTESIAN_POINT('',(99.,-1.,50.));
#525=CARTESIAN_POINT('',(99.,99.,50.));
#526=CARTESIAN_POINT('Origin',(49.,49.,0.));
#527=CARTESIAN_POINT('',(-21.,94.,0.));
#528=CARTESIAN_POINT('',(-21.,4.,0.));
#529=CARTESIAN_POINT('',(-21.,94.,0.));
#530=CARTESIAN_POINT('',(119.,94.,0.));
#531=CARTESIAN_POINT('',(119.,94.,0.));
#532=CARTESIAN_POINT('',(119.,4.,0.));
#533=CARTESIAN_POINT('',(119.,4.,0.));
#534=CARTESIAN_POINT('',(-21.,4.,0.));
#535=CARTESIAN_POINT('Ctrl Pts',(-21.,94.,0.));
#536=CARTESIAN_POINT('Ctrl Pts',(-6.13365099694309,97.7165872507642,15.2369412691789));
#537=CARTESIAN_POINT('Ctrl Pts',(0.533015669723574,99.3832539174309,31.9036079358456));
#538=CARTESIAN_POINT('Ctrl Pts',(-1.,99.,50.));
#539=CARTESIAN_POINT('Ctrl Pts',(-21.,64.,0.));
#540=CARTESIAN_POINT('Ctrl Pts',(-6.13365099694309,65.2388624169214,15.2369412691789));
#541=CARTESIAN_POINT('Ctrl Pts',(0.533015669723573,65.794417972477,31.9036079358456));
#542=CARTESIAN_POINT('Ctrl Pts',(-1.,65.6666666666667,50.));
#543=CARTESIAN_POINT('Ctrl Pts',(-21.,34.,0.));
#544=CARTESIAN_POINT('Ctrl Pts',(-6.13365099694309,32.7611375830786,15.2369412691789));
#545=CARTESIAN_POINT('Ctrl Pts',(0.533015669723574,32.205582027523,31.9036079358456));
#546=CARTESIAN_POINT('Ctrl Pts',(-1.,32.3333333333333,50.));
#547=CARTESIAN_POINT('Ctrl Pts',(-21.,4.,0.));
#548=CARTESIAN_POINT('Ctrl Pts',(-6.13365099694309,0.283412749235776,15.2369412691789));
#549=CARTESIAN_POINT('Ctrl Pts',(0.533015669723574,-1.38325391743089,31.9036079358456));
#550=CARTESIAN_POINT('Ctrl Pts',(-1.,-0.999999999999996,50.));
#551=CARTESIAN_POINT('Ctrl Pts',(-21.,4.,0.));
#552=CARTESIAN_POINT('Ctrl Pts',(-8.91306915465903,0.978267288664757,12.3882370430842));
#553=CARTESIAN_POINT('Ctrl Pts',(-2.24640248799236,-0.688399378001909,25.7215703764175));
#554=CARTESIAN_POINT('Ctrl Pts',(-0.713386818268789,-1.0716532954328,43.2833584527996));
#555=CARTESIAN_POINT('Ctrl Pts',(-0.713386818268789,-1.0716532954328,46.6166917861329));
#556=CARTESIAN_POINT('Ctrl Pts',(-1.,-1.,50.));
#557=CARTESIAN_POINT('Ctrl Pts',(-21.,94.,0.));
#558=CARTESIAN_POINT('Ctrl Pts',(-8.91306915465902,97.0217327113352,12.3882370430842));
#559=CARTESIAN_POINT('Ctrl Pts',(-2.24640248799236,98.6883993780019,25.7215703764175));
#560=CARTESIAN_POINT('Ctrl Pts',(-0.713386818268785,99.0716532954328,43.2833584527996));
#561=CARTESIAN_POINT('Ctrl Pts',(-0.713386818268785,99.0716532954328,46.6166917861329));
#562=CARTESIAN_POINT('Ctrl Pts',(-0.999999999999996,99.,50.));
#563=CARTESIAN_POINT('Ctrl Pts',(-21.,4.,0.));
#564=CARTESIAN_POINT('Ctrl Pts',(-6.13365099694309,0.283412749235773,15.2369412691789));
#565=CARTESIAN_POINT('Ctrl Pts',(0.533015669723574,-1.38325391743089,31.9036079358456));
#566=CARTESIAN_POINT('Ctrl Pts',(-1.,-1.,50.));
#567=CARTESIAN_POINT('Ctrl Pts',(25.6666666666667,4.,0.));
#568=CARTESIAN_POINT('Ctrl Pts',(30.6221163343523,0.283412749235773,15.2369412691789));
#569=CARTESIAN_POINT('Ctrl Pts',(32.8443385565745,-1.38325391743089,31.9036079358456));
#570=CARTESIAN_POINT('Ctrl Pts',(32.3333333333333,-1.,50.));
#571=CARTESIAN_POINT('Ctrl Pts',(72.3333333333333,4.,0.));
#572=CARTESIAN_POINT('Ctrl Pts',(67.3778836656477,0.283412749235773,15.2369412691789));
#573=CARTESIAN_POINT('Ctrl Pts',(65.1556614434255,-1.38325391743089,31.9036079358456));
#574=CARTESIAN_POINT('Ctrl Pts',(65.6666666666667,-1.,50.));
#575=CARTESIAN_POINT('Ctrl Pts',(119.,4.,0.));
#576=CARTESIAN_POINT('Ctrl Pts',(104.133650996943,0.283412749235773,15.2369412691789));
#577=CARTESIAN_POINT('Ctrl Pts',(97.4669843302764,-1.38325391743089,31.9036079358456));
#578=CARTESIAN_POINT('Ctrl Pts',(99.,-1.,50.));
#579=CARTESIAN_POINT('Ctrl Pts',(119.,4.,0.));
#580=CARTESIAN_POINT('Ctrl Pts',(106.913069154659,0.978267288664757,12.3882370430842));
#581=CARTESIAN_POINT('Ctrl Pts',(100.246402487992,-0.688399378001909,25.7215703764175));
#582=CARTESIAN_POINT('Ctrl Pts',(98.7133868182688,-1.0716532954328,43.2833584527996));
#583=CARTESIAN_POINT('Ctrl Pts',(98.7133868182688,-1.0716532954328,46.6166917861329));
#584=CARTESIAN_POINT('Ctrl Pts',(99.,-1.,50.));
#585=CARTESIAN_POINT('Ctrl Pts',(119.,4.,0.));
#586=CARTESIAN_POINT('Ctrl Pts',(104.133650996943,0.283412749235773,15.2369412691789));
#587=CARTESIAN_POINT('Ctrl Pts',(97.4669843302764,-1.38325391743089,31.9036079358456));
#588=CARTESIAN_POINT('Ctrl Pts',(99.,-1.,50.));
#589=CARTESIAN_POINT('Ctrl Pts',(119.,34.,0.));
#590=CARTESIAN_POINT('Ctrl Pts',(104.133650996943,32.7611375830786,15.2369412691789));
#591=CARTESIAN_POINT('Ctrl Pts',(97.4669843302764,32.205582027523,31.9036079358456));
#592=CARTESIAN_POINT('Ctrl Pts',(99.,32.3333333333333,50.));
#593=CARTESIAN_POINT('Ctrl Pts',(119.,64.,0.));
#594=CARTESIAN_POINT('Ctrl Pts',(104.133650996943,65.2388624169214,15.2369412691789));
#595=CARTESIAN_POINT('Ctrl Pts',(97.4669843302764,65.794417972477,31.9036079358456));
#596=CARTESIAN_POINT('Ctrl Pts',(99.,65.6666666666667,50.));
#597=CARTESIAN_POINT('Ctrl Pts',(119.,94.,0.));
#598=CARTESIAN_POINT('Ctrl Pts',(104.133650996943,97.7165872507642,15.2369412691789));
#599=CARTESIAN_POINT('Ctrl Pts',(97.4669843302764,99.3832539174309,31.9036079358456));
#600=CARTESIAN_POINT('Ctrl Pts',(99.,99.,50.));
#601=CARTESIAN_POINT('Ctrl Pts',(119.,94.,0.));
#602=CARTESIAN_POINT('Ctrl Pts',(106.913069154659,97.0217327113352,12.3882370430842));
#603=CARTESIAN_POINT('Ctrl Pts',(100.246402487992,98.6883993780019,25.7215703764175));
#604=CARTESIAN_POINT('Ctrl Pts',(98.7133868182688,99.0716532954328,43.2833584527996));
#605=CARTESIAN_POINT('Ctrl Pts',(98.7133868182688,99.0716532954328,46.6166917861329));
#606=CARTESIAN_POINT('Ctrl Pts',(99.,99.,50.));
#607=CARTESIAN_POINT('Ctrl Pts',(119.,94.,0.));
#608=CARTESIAN_POINT('Ctrl Pts',(104.133650996943,97.7165872507642,15.2369412691789));
#609=CARTESIAN_POINT('Ctrl Pts',(97.4669843302764,99.3832539174309,31.9036079358456));
#610=CARTESIAN_POINT('Ctrl Pts',(99.,99.,50.));
#611=CARTESIAN_POINT('Ctrl Pts',(72.3333333333333,94.,0.));
#612=CARTESIAN_POINT('Ctrl Pts',(67.3778836656477,97.7165872507642,15.2369412691789));
#613=CARTESIAN_POINT('Ctrl Pts',(65.1556614434255,99.3832539174309,31.9036079358456));
#614=CARTESIAN_POINT('Ctrl Pts',(65.6666666666667,99.,50.));
#615=CARTESIAN_POINT('Ctrl Pts',(25.6666666666667,94.,0.));
#616=CARTESIAN_POINT('Ctrl Pts',(30.6221163343523,97.7165872507642,15.2369412691789));
#617=CARTESIAN_POINT('Ctrl Pts',(32.8443385565745,99.3832539174309,31.9036079358456));
#618=CARTESIAN_POINT('Ctrl Pts',(32.3333333333333,99.,50.));
#619=CARTESIAN_POINT('Ctrl Pts',(-21.,94.,0.));
#620=CARTESIAN_POINT('Ctrl Pts',(-6.13365099694309,97.7165872507642,15.2369412691789));
#621=CARTESIAN_POINT('Ctrl Pts',(0.533015669723577,99.3832539174309,31.9036079358456));
#622=CARTESIAN_POINT('Ctrl Pts',(-0.999999999999996,99.,50.));
#623=UNCERTAINTY_MEASURE_WITH_UNIT(LENGTH_MEASURE(0.01),#627,
'DISTANCE_ACCURACY_VALUE',
'Maximum model space distance between geometric entities at asserted c
onnectivities');
#624=UNCERTAINTY_MEASURE_WITH_UNIT(LENGTH_MEASURE(0.01),#627,
'DISTANCE_ACCURACY_VALUE',
'Maximum model space distance between geometric entities at asserted c
onnectivities');
#625=(
GEOMETRIC_REPRESENTATION_CONTEXT(3)
GLOBAL_UNCERTAINTY_ASSIGNED_CONTEXT((#623))
GLOBAL_UNIT_ASSIGNED_CONTEXT((#627,#629,#630))
REPRESENTATION_CONTEXT('','3D')
);
#626=(
GEOMETRIC_REPRESENTATION_CONTEXT(3)
GLOBAL_UNCERTAINTY_ASSIGNED_CONTEXT((#624))
GLOBAL_UNIT_ASSIGNED_CONTEXT((#627,#629,#630))
REPRESENTATION_CONTEXT('','3D')
);
#627=(
LENGTH_UNIT()
NAMED_UNIT(*)
SI_UNIT(.MILLI.,.METRE.)
);
#628=(
LENGTH_UNIT()
NAMED_UNIT(*)
SI_UNIT($,.METRE.)
);
#629=(
NAMED_UNIT(*)
PLANE_ANGLE_UNIT()
SI_UNIT($,.RADIAN.)
);
#630=(
NAMED_UNIT(*)
SI_UNIT($,.STERADIAN.)
SOLID_ANGLE_UNIT()
);
#631=SHAPE_DEFINITION_REPRESENTATION(#632,#633);
#632=PRODUCT_DEFINITION_SHAPE('',$,#635);
#633=SHAPE_REPRESENTATION('',(#299),#625);
#634=PRODUCT_DEFINITION_CONTEXT('part definition',#639,'design');
#635=PRODUCT_DEFINITION('2026-08-29-00-40-41-942','Hood',#636,#634);
#636=PRODUCT_DEFINITION_FORMATION('',$,#641);
#637=PRODUCT_RELATED_PRODUCT_CATEGORY('Hood','Hood',(#641));
#638=APPLICATION_PROTOCOL_DEFINITION('international standard',
'automotive_design',2009,#639);
#639=APPLICATION_CONTEXT(
'Core Data for Automotive Mechanical Design Process');
#640=PRODUCT_CONTEXT('part definition',#639,'mechanical');
#641=PRODUCT('2026-08-29-00-40-41-942','Hood',$,(#640));
#642=PRESENTATION_STYLE_ASSIGNMENT((#643));
#643=SURFACE_STYLE_USAGE(.BOTH.,#644);
#644=SURFACE_SIDE_STYLE('',(#645));
#645=SURFACE_STYLE_FILL_AREA(#646);
#646=FILL_AREA_STYLE('Steel - Satin',(#647));
#647=FILL_AREA_STYLE_COLOUR('Steel - Satin',#648);
#648=COLOUR_RGB('Steel - Satin',0.627450980392157,0.627450980392157,0.627450980392157);
ENDSEC;
END-ISO-10303-21;
